<mxfile host="Electron" agent="Mozilla/5.0 (X11; Linux x86_64) AppleWebKit/537.36 (KHTML, like Gecko) draw.io/26.1.1 Chrome/132.0.6834.210 Electron/34.5.0 Safari/537.36" version="26.1.1">
  <diagram name="Page-1" id="iFa84HnWyoCGzS2DdgBc">
    <mxGraphModel dx="8613" dy="3987" grid="1" gridSize="10" guides="1" tooltips="1" connect="1" arrows="1" fold="1" page="1" pageScale="1" pageWidth="850" pageHeight="1100" math="0" shadow="0">
      <root>
        <mxCell id="0" />
        <mxCell id="1" parent="0" />
        <UserObject label="" mermaidData="{&#xa;  &quot;data&quot;: &quot;classDiagram\n    class AxisCore {\n        -contextManager: ContextManager\n        -nlpProcessor: NLPProcessor\n        -platformIntegration: PlatformIntegration\n        -securityManager: SecurityManager\n        +processCommand(input: String): Response\n        +getContext(): Context\n        +executeAction(action: Action): Result\n    }\n    \n    class ContextManager {\n        -activeContext: Context\n        -contextHistory: List~Context~\n        -userPreferences: UserPreferences\n        +updateContext(context: Context)\n        +getActiveContext(): Context\n        +maintainContextContinuity()\n        +learnFromInteraction(interaction: Interaction)\n    }\n    \n    class NLPProcessor {\n        -languageModel: LanguageModel\n        -commandParser: CommandParser\n        +parseNaturalLanguage(input: String): Command\n        +generateResponse(result: Result): Response\n        +resolveAmbiguity(command: Command, context: Context)\n    }\n    \n    class PlatformIntegration {\n        -platformDetector: PlatformDetector\n        -fileSystemManager: FileSystemManager\n        -appController: ApplicationController\n        -windowManager: WindowManager\n        -systemSettings: SystemSettings\n        +getPlatformType(): PlatformType\n        +accessFileSystem(path: String): FileResult\n        +launchApplication(app: String, params: String[]): AppResult\n        +manageWindow(window: Window, action: String): void\n        +modifySystemSetting(setting: String, value: any): void\n    }\n    \n    class PlatformFactory {\n        +createPlatformIntegration(platform: PlatformType): PlatformIntegration\n        +detectCurrentPlatform(): PlatformType\n    }\n    \n    class WindowsPlatformIntegration {\n        +accessFileSystem(path: String): FileResult\n        +launchApplication(app: String, params: String[]): AppResult\n        +manageWindow(window: Window, action: String): void\n        +modifySystemSetting(setting: String, value: any): void\n    }\n    \n    class MacOSPlatformIntegration {\n        +accessFileSystem(path: String): FileResult\n        +launchApplication(app: String, params: String[]): AppResult\n        +manageWindow(window: Window, action: String): void\n        +modifySystemSetting(setting: String, value: any): void\n    }\n    \n    class LinuxPlatformIntegration {\n        +accessFileSystem(path: String): FileResult\n        +launchApplication(app: String, params: String[]): AppResult\n        +manageWindow(window: Window, action: String): void\n        +modifySystemSetting(setting: String, value: any): void\n    }\n    \n    class SecurityManager {\n        -permissionModel: PermissionModel\n        -authenticationService: AuthenticationService\n        -dataEncryption: DataEncryption\n        +validatePermission(action: Action): Boolean\n        +authenticateOperation(operation: Operation): Boolean\n        +secureData(data: Data): EncryptedData\n    }\n    \n    class UserInterface {\n        -commandBar: CommandBar\n        -responseArea: ResponseArea\n        -contextPanel: ContextPanel\n        -systemTray: SystemTray\n        -settingsPanel: SettingsPanel\n        -platformStyleAdapter: PlatformStyleAdapter\n        +displayResponse(response: Response)\n        +showContext(context: Context)\n        +getCommand(): String\n        +updateSystemTrayStatus(status: Status)\n        +adaptToPlatformStyle(): void\n    }\n    \n    class ExtensionManager {\n        -loadedExtensions: Map~String, Extension~\n        -extensionAPI: ExtensionAPI\n        -platformSpecificExtensions: Map~PlatformType, List~Extension~~\n        +loadExtension(extension: Extension)\n        +executeExtensionCommand(command: Command): Result\n        +getAvailableExtensions(): List~Extension~\n        +getPlatformSpecificExtensions(platform: PlatformType): List~Extension~\n    }\n    \n    AxisCore --&gt; ContextManager\n    AxisCore --&gt; NLPProcessor\n    AxisCore --&gt; PlatformIntegration\n    AxisCore --&gt; SecurityManager\n    AxisCore --&gt; UserInterface\n    AxisCore --&gt; ExtensionManager\n    \n    PlatformIntegration &lt;|-- WindowsPlatformIntegration\n    PlatformIntegration &lt;|-- MacOSPlatformIntegration\n    PlatformIntegration &lt;|-- LinuxPlatformIntegration\n    \n    PlatformFactory --&gt; PlatformIntegration : creates\n&quot;&#xa;}" id="MHEVSjm8MACDbG2sjFY3-3">
          <mxCell style="shape=image;noLabel=1;verticalAlign=top;imageAspect=1;image=data:image/svg+xml,PHN2ZyBhcmlhLXJvbGVkZXNjcmlwdGlvbj0iY2xhc3MiIHJvbGU9ImdyYXBoaWNzLWRvY3VtZW50IGRvY3VtZW50IiB2aWV3Qm94PSIwIDAgMzI3OS4wMTk1MzEyNSA5NjEiIHN0eWxlPSJtYXgtd2lkdGg6IDMyNzkuMDE5NTMxMjVweDsiIGNsYXNzPSJjbGFzc0RpYWdyYW0iIHhtbG5zPSJodHRwOi8vd3d3LnczLm9yZy8yMDAwL3N2ZyIgd2lkdGg9IjEwMCUiIGlkPSJnZU1lcm1haWRPdXRwdXQtMTc0NTUxNzI4NjIzNiI+PHN0eWxlPiNnZU1lcm1haWRPdXRwdXQtMTc0NTUxNzI4NjIzNntmb250LWZhbWlseToidHJlYnVjaGV0IG1zIix2ZXJkYW5hLGFyaWFsLHNhbnMtc2VyaWY7Zm9udC1zaXplOjE2cHg7ZmlsbDojY2NjO30jZ2VNZXJtYWlkT3V0cHV0LTE3NDU1MTcyODYyMzYgLmVycm9yLWljb257ZmlsbDojYTQ0MTQxO30jZ2VNZXJtYWlkT3V0cHV0LTE3NDU1MTcyODYyMzYgLmVycm9yLXRleHR7ZmlsbDojZGRkO3N0cm9rZTojZGRkO30jZ2VNZXJtYWlkT3V0cHV0LTE3NDU1MTcyODYyMzYgLmVkZ2UtdGhpY2tuZXNzLW5vcm1hbHtzdHJva2Utd2lkdGg6MXB4O30jZ2VNZXJtYWlkT3V0cHV0LTE3NDU1MTcyODYyMzYgLmVkZ2UtdGhpY2tuZXNzLXRoaWNre3N0cm9rZS13aWR0aDozLjVweDt9I2dlTWVybWFpZE91dHB1dC0xNzQ1NTE3Mjg2MjM2IC5lZGdlLXBhdHRlcm4tc29saWR7c3Ryb2tlLWRhc2hhcnJheTowO30jZ2VNZXJtYWlkT3V0cHV0LTE3NDU1MTcyODYyMzYgLmVkZ2UtdGhpY2tuZXNzLWludmlzaWJsZXtzdHJva2Utd2lkdGg6MDtmaWxsOm5vbmU7fSNnZU1lcm1haWRPdXRwdXQtMTc0NTUxNzI4NjIzNiAuZWRnZS1wYXR0ZXJuLWRhc2hlZHtzdHJva2UtZGFzaGFycmF5OjM7fSNnZU1lcm1haWRPdXRwdXQtMTc0NTUxNzI4NjIzNiAuZWRnZS1wYXR0ZXJuLWRvdHRlZHtzdHJva2UtZGFzaGFycmF5OjI7fSNnZU1lcm1haWRPdXRwdXQtMTc0NTUxNzI4NjIzNiAubWFya2Vye2ZpbGw6bGlnaHRncmV5O3N0cm9rZTpsaWdodGdyZXk7fSNnZU1lcm1haWRPdXRwdXQtMTc0NTUxNzI4NjIzNiAubWFya2VyLmNyb3Nze3N0cm9rZTpsaWdodGdyZXk7fSNnZU1lcm1haWRPdXRwdXQtMTc0NTUxNzI4NjIzNiBzdmd7Zm9udC1mYW1pbHk6InRyZWJ1Y2hldCBtcyIsdmVyZGFuYSxhcmlhbCxzYW5zLXNlcmlmO2ZvbnQtc2l6ZToxNnB4O30jZ2VNZXJtYWlkT3V0cHV0LTE3NDU1MTcyODYyMzYgcHttYXJnaW46MDt9I2dlTWVybWFpZE91dHB1dC0xNzQ1NTE3Mjg2MjM2IGcuY2xhc3NHcm91cCB0ZXh0e2ZpbGw6I2NjYztzdHJva2U6bm9uZTtmb250LWZhbWlseToidHJlYnVjaGV0IG1zIix2ZXJkYW5hLGFyaWFsLHNhbnMtc2VyaWY7Zm9udC1zaXplOjEwcHg7fSNnZU1lcm1haWRPdXRwdXQtMTc0NTUxNzI4NjIzNiBnLmNsYXNzR3JvdXAgdGV4dCAudGl0bGV7Zm9udC13ZWlnaHQ6Ym9sZGVyO30jZ2VNZXJtYWlkT3V0cHV0LTE3NDU1MTcyODYyMzYgLm5vZGVMYWJlbCwjZ2VNZXJtYWlkT3V0cHV0LTE3NDU1MTcyODYyMzYgLmVkZ2VMYWJlbHtjb2xvcjojZTBkZmRmO30jZ2VNZXJtYWlkT3V0cHV0LTE3NDU1MTcyODYyMzYgLmVkZ2VMYWJlbCAubGFiZWwgcmVjdHtmaWxsOiMxZjIwMjA7fSNnZU1lcm1haWRPdXRwdXQtMTc0NTUxNzI4NjIzNiAubGFiZWwgdGV4dHtmaWxsOiNlMGRmZGY7fSNnZU1lcm1haWRPdXRwdXQtMTc0NTUxNzI4NjIzNiAubGFiZWxCa2d7YmFja2dyb3VuZDojMWYyMDIwO30jZ2VNZXJtYWlkT3V0cHV0LTE3NDU1MTcyODYyMzYgLmVkZ2VMYWJlbCAubGFiZWwgc3BhbntiYWNrZ3JvdW5kOiMxZjIwMjA7fSNnZU1lcm1haWRPdXRwdXQtMTc0NTUxNzI4NjIzNiAuY2xhc3NUaXRsZXtmb250LXdlaWdodDpib2xkZXI7fSNnZU1lcm1haWRPdXRwdXQtMTc0NTUxNzI4NjIzNiAubm9kZSByZWN0LCNnZU1lcm1haWRPdXRwdXQtMTc0NTUxNzI4NjIzNiAubm9kZSBjaXJjbGUsI2dlTWVybWFpZE91dHB1dC0xNzQ1NTE3Mjg2MjM2IC5ub2RlIGVsbGlwc2UsI2dlTWVybWFpZE91dHB1dC0xNzQ1NTE3Mjg2MjM2IC5ub2RlIHBvbHlnb24sI2dlTWVybWFpZE91dHB1dC0xNzQ1NTE3Mjg2MjM2IC5ub2RlIHBhdGh7ZmlsbDojMWYyMDIwO3N0cm9rZTojY2NjO3N0cm9rZS13aWR0aDoxcHg7fSNnZU1lcm1haWRPdXRwdXQtMTc0NTUxNzI4NjIzNiAuZGl2aWRlcntzdHJva2U6I2NjYztzdHJva2Utd2lkdGg6MTt9I2dlTWVybWFpZE91dHB1dC0xNzQ1NTE3Mjg2MjM2IGcuY2xpY2thYmxle2N1cnNvcjpwb2ludGVyO30jZ2VNZXJtYWlkT3V0cHV0LTE3NDU1MTcyODYyMzYgZy5jbGFzc0dyb3VwIHJlY3R7ZmlsbDojMWYyMDIwO3N0cm9rZTojY2NjO30jZ2VNZXJtYWlkT3V0cHV0LTE3NDU1MTcyODYyMzYgZy5jbGFzc0dyb3VwIGxpbmV7c3Ryb2tlOiNjY2M7c3Ryb2tlLXdpZHRoOjE7fSNnZU1lcm1haWRPdXRwdXQtMTc0NTUxNzI4NjIzNiAuY2xhc3NMYWJlbCAuYm94e3N0cm9rZTpub25lO3N0cm9rZS13aWR0aDowO2ZpbGw6IzFmMjAyMDtvcGFjaXR5OjAuNTt9I2dlTWVybWFpZE91dHB1dC0xNzQ1NTE3Mjg2MjM2IC5jbGFzc0xhYmVsIC5sYWJlbHtmaWxsOiNjY2M7Zm9udC1zaXplOjEwcHg7fSNnZU1lcm1haWRPdXRwdXQtMTc0NTUxNzI4NjIzNiAucmVsYXRpb257c3Ryb2tlOmxpZ2h0Z3JleTtzdHJva2Utd2lkdGg6MTtmaWxsOm5vbmU7fSNnZU1lcm1haWRPdXRwdXQtMTc0NTUxNzI4NjIzNiAuZGFzaGVkLWxpbmV7c3Ryb2tlLWRhc2hhcnJheTozO30jZ2VNZXJtYWlkT3V0cHV0LTE3NDU1MTcyODYyMzYgLmRvdHRlZC1saW5le3N0cm9rZS1kYXNoYXJyYXk6MSAyO30jZ2VNZXJtYWlkT3V0cHV0LTE3NDU1MTcyODYyMzYgI2NvbXBvc2l0aW9uU3RhcnQsI2dlTWVybWFpZE91dHB1dC0xNzQ1NTE3Mjg2MjM2IC5jb21wb3NpdGlvbntmaWxsOmxpZ2h0Z3JleSFpbXBvcnRhbnQ7c3Ryb2tlOmxpZ2h0Z3JleSFpbXBvcnRhbnQ7c3Ryb2tlLXdpZHRoOjE7fSNnZU1lcm1haWRPdXRwdXQtMTc0NTUxNzI4NjIzNiAjY29tcG9zaXRpb25FbmQsI2dlTWVybWFpZE91dHB1dC0xNzQ1NTE3Mjg2MjM2IC5jb21wb3NpdGlvbntmaWxsOmxpZ2h0Z3JleSFpbXBvcnRhbnQ7c3Ryb2tlOmxpZ2h0Z3JleSFpbXBvcnRhbnQ7c3Ryb2tlLXdpZHRoOjE7fSNnZU1lcm1haWRPdXRwdXQtMTc0NTUxNzI4NjIzNiAjZGVwZW5kZW5jeVN0YXJ0LCNnZU1lcm1haWRPdXRwdXQtMTc0NTUxNzI4NjIzNiAuZGVwZW5kZW5jeXtmaWxsOmxpZ2h0Z3JleSFpbXBvcnRhbnQ7c3Ryb2tlOmxpZ2h0Z3JleSFpbXBvcnRhbnQ7c3Ryb2tlLXdpZHRoOjE7fSNnZU1lcm1haWRPdXRwdXQtMTc0NTUxNzI4NjIzNiAjZGVwZW5kZW5jeVN0YXJ0LCNnZU1lcm1haWRPdXRwdXQtMTc0NTUxNzI4NjIzNiAuZGVwZW5kZW5jeXtmaWxsOmxpZ2h0Z3JleSFpbXBvcnRhbnQ7c3Ryb2tlOmxpZ2h0Z3JleSFpbXBvcnRhbnQ7c3Ryb2tlLXdpZHRoOjE7fSNnZU1lcm1haWRPdXRwdXQtMTc0NTUxNzI4NjIzNiAjZXh0ZW5zaW9uU3RhcnQsI2dlTWVybWFpZE91dHB1dC0xNzQ1NTE3Mjg2MjM2IC5leHRlbnNpb257ZmlsbDp0cmFuc3BhcmVudCFpbXBvcnRhbnQ7c3Ryb2tlOmxpZ2h0Z3JleSFpbXBvcnRhbnQ7c3Ryb2tlLXdpZHRoOjE7fSNnZU1lcm1haWRPdXRwdXQtMTc0NTUxNzI4NjIzNiAjZXh0ZW5zaW9uRW5kLCNnZU1lcm1haWRPdXRwdXQtMTc0NTUxNzI4NjIzNiAuZXh0ZW5zaW9ue2ZpbGw6dHJhbnNwYXJlbnQhaW1wb3J0YW50O3N0cm9rZTpsaWdodGdyZXkhaW1wb3J0YW50O3N0cm9rZS13aWR0aDoxO30jZ2VNZXJtYWlkT3V0cHV0LTE3NDU1MTcyODYyMzYgI2FnZ3JlZ2F0aW9uU3RhcnQsI2dlTWVybWFpZE91dHB1dC0xNzQ1NTE3Mjg2MjM2IC5hZ2dyZWdhdGlvbntmaWxsOnRyYW5zcGFyZW50IWltcG9ydGFudDtzdHJva2U6bGlnaHRncmV5IWltcG9ydGFudDtzdHJva2Utd2lkdGg6MTt9I2dlTWVybWFpZE91dHB1dC0xNzQ1NTE3Mjg2MjM2ICNhZ2dyZWdhdGlvbkVuZCwjZ2VNZXJtYWlkT3V0cHV0LTE3NDU1MTcyODYyMzYgLmFnZ3JlZ2F0aW9ue2ZpbGw6dHJhbnNwYXJlbnQhaW1wb3J0YW50O3N0cm9rZTpsaWdodGdyZXkhaW1wb3J0YW50O3N0cm9rZS13aWR0aDoxO30jZ2VNZXJtYWlkT3V0cHV0LTE3NDU1MTcyODYyMzYgI2xvbGxpcG9wU3RhcnQsI2dlTWVybWFpZE91dHB1dC0xNzQ1NTE3Mjg2MjM2IC5sb2xsaXBvcHtmaWxsOiMxZjIwMjAhaW1wb3J0YW50O3N0cm9rZTpsaWdodGdyZXkhaW1wb3J0YW50O3N0cm9rZS13aWR0aDoxO30jZ2VNZXJtYWlkT3V0cHV0LTE3NDU1MTcyODYyMzYgI2xvbGxpcG9wRW5kLCNnZU1lcm1haWRPdXRwdXQtMTc0NTUxNzI4NjIzNiAubG9sbGlwb3B7ZmlsbDojMWYyMDIwIWltcG9ydGFudDtzdHJva2U6bGlnaHRncmV5IWltcG9ydGFudDtzdHJva2Utd2lkdGg6MTt9I2dlTWVybWFpZE91dHB1dC0xNzQ1NTE3Mjg2MjM2IC5lZGdlVGVybWluYWxze2ZvbnQtc2l6ZToxMXB4O2xpbmUtaGVpZ2h0OmluaXRpYWw7fSNnZU1lcm1haWRPdXRwdXQtMTc0NTUxNzI4NjIzNiAuY2xhc3NUaXRsZVRleHR7dGV4dC1hbmNob3I6bWlkZGxlO2ZvbnQtc2l6ZToxOHB4O2ZpbGw6I2NjYzt9I2dlTWVybWFpZE91dHB1dC0xNzQ1NTE3Mjg2MjM2IDpyb290ey0tbWVybWFpZC1mb250LWZhbWlseToidHJlYnVjaGV0IG1zIix2ZXJkYW5hLGFyaWFsLHNhbnMtc2VyaWY7fTwvc3R5bGU+PGc+PGRlZnM+PG1hcmtlciBvcmllbnQ9ImF1dG8iIG1hcmtlckhlaWdodD0iMjQwIiBtYXJrZXJXaWR0aD0iMTkwIiByZWZZPSI3IiByZWZYPSIxOCIgY2xhc3M9Im1hcmtlciBhZ2dyZWdhdGlvbiBjbGFzcyIgaWQ9ImdlTWVybWFpZE91dHB1dC0xNzQ1NTE3Mjg2MjM2X2NsYXNzLWFnZ3JlZ2F0aW9uU3RhcnQiPjxwYXRoIGQ9Ik0gMTgsNyBMOSwxMyBMMSw3IEw5LDEgWiI+PC9wYXRoPjwvbWFya2VyPjwvZGVmcz48ZGVmcz48bWFya2VyIG9yaWVudD0iYXV0byIgbWFya2VySGVpZ2h0PSIyOCIgbWFya2VyV2lkdGg9IjIwIiByZWZZPSI3IiByZWZYPSIxIiBjbGFzcz0ibWFya2VyIGFnZ3JlZ2F0aW9uIGNsYXNzIiBpZD0iZ2VNZXJtYWlkT3V0cHV0LTE3NDU1MTcyODYyMzZfY2xhc3MtYWdncmVnYXRpb25FbmQiPjxwYXRoIGQ9Ik0gMTgsNyBMOSwxMyBMMSw3IEw5LDEgWiI+PC9wYXRoPjwvbWFya2VyPjwvZGVmcz48ZGVmcz48bWFya2VyIG9yaWVudD0iYXV0byIgbWFya2VySGVpZ2h0PSIyNDAiIG1hcmtlcldpZHRoPSIxOTAiIHJlZlk9IjciIHJlZlg9IjE4IiBjbGFzcz0ibWFya2VyIGV4dGVuc2lvbiBjbGFzcyIgaWQ9ImdlTWVybWFpZE91dHB1dC0xNzQ1NTE3Mjg2MjM2X2NsYXNzLWV4dGVuc2lvblN0YXJ0Ij48cGF0aCBkPSJNIDEsNyBMMTgsMTMgViAxIFoiPjwvcGF0aD48L21hcmtlcj48L2RlZnM+PGRlZnM+PG1hcmtlciBvcmllbnQ9ImF1dG8iIG1hcmtlckhlaWdodD0iMjgiIG1hcmtlcldpZHRoPSIyMCIgcmVmWT0iNyIgcmVmWD0iMSIgY2xhc3M9Im1hcmtlciBleHRlbnNpb24gY2xhc3MiIGlkPSJnZU1lcm1haWRPdXRwdXQtMTc0NTUxNzI4NjIzNl9jbGFzcy1leHRlbnNpb25FbmQiPjxwYXRoIGQ9Ik0gMSwxIFYgMTMgTDE4LDcgWiI+PC9wYXRoPjwvbWFya2VyPjwvZGVmcz48ZGVmcz48bWFya2VyIG9yaWVudD0iYXV0byIgbWFya2VySGVpZ2h0PSIyNDAiIG1hcmtlcldpZHRoPSIxOTAiIHJlZlk9IjciIHJlZlg9IjE4IiBjbGFzcz0ibWFya2VyIGNvbXBvc2l0aW9uIGNsYXNzIiBpZD0iZ2VNZXJtYWlkT3V0cHV0LTE3NDU1MTcyODYyMzZfY2xhc3MtY29tcG9zaXRpb25TdGFydCI+PHBhdGggZD0iTSAxOCw3IEw5LDEzIEwxLDcgTDksMSBaIj48L3BhdGg+PC9tYXJrZXI+PC9kZWZzPjxkZWZzPjxtYXJrZXIgb3JpZW50PSJhdXRvIiBtYXJrZXJIZWlnaHQ9IjI4IiBtYXJrZXJXaWR0aD0iMjAiIHJlZlk9IjciIHJlZlg9IjEiIGNsYXNzPSJtYXJrZXIgY29tcG9zaXRpb24gY2xhc3MiIGlkPSJnZU1lcm1haWRPdXRwdXQtMTc0NTUxNzI4NjIzNl9jbGFzcy1jb21wb3NpdGlvbkVuZCI+PHBhdGggZD0iTSAxOCw3IEw5LDEzIEwxLDcgTDksMSBaIj48L3BhdGg+PC9tYXJrZXI+PC9kZWZzPjxkZWZzPjxtYXJrZXIgb3JpZW50PSJhdXRvIiBtYXJrZXJIZWlnaHQ9IjI0MCIgbWFya2VyV2lkdGg9IjE5MCIgcmVmWT0iNyIgcmVmWD0iNiIgY2xhc3M9Im1hcmtlciBkZXBlbmRlbmN5IGNsYXNzIiBpZD0iZ2VNZXJtYWlkT3V0cHV0LTE3NDU1MTcyODYyMzZfY2xhc3MtZGVwZW5kZW5jeVN0YXJ0Ij48cGF0aCBkPSJNIDUsNyBMOSwxMyBMMSw3IEw5LDEgWiI+PC9wYXRoPjwvbWFya2VyPjwvZGVmcz48ZGVmcz48bWFya2VyIG9yaWVudD0iYXV0byIgbWFya2VySGVpZ2h0PSIyOCIgbWFya2VyV2lkdGg9IjIwIiByZWZZPSI3IiByZWZYPSIxMyIgY2xhc3M9Im1hcmtlciBkZXBlbmRlbmN5IGNsYXNzIiBpZD0iZ2VNZXJtYWlkT3V0cHV0LTE3NDU1MTcyODYyMzZfY2xhc3MtZGVwZW5kZW5jeUVuZCI+PHBhdGggZD0iTSAxOCw3IEw5LDEzIEwxNCw3IEw5LDEgWiI+PC9wYXRoPjwvbWFya2VyPjwvZGVmcz48ZGVmcz48bWFya2VyIG9yaWVudD0iYXV0byIgbWFya2VySGVpZ2h0PSIyNDAiIG1hcmtlcldpZHRoPSIxOTAiIHJlZlk9IjciIHJlZlg9IjEzIiBjbGFzcz0ibWFya2VyIGxvbGxpcG9wIGNsYXNzIiBpZD0iZ2VNZXJtYWlkT3V0cHV0LTE3NDU1MTcyODYyMzZfY2xhc3MtbG9sbGlwb3BTdGFydCI+PGNpcmNsZSByPSI2IiBjeT0iNyIgY3g9IjciIGZpbGw9InRyYW5zcGFyZW50IiBzdHJva2U9ImJsYWNrIj48L2NpcmNsZT48L21hcmtlcj48L2RlZnM+PGRlZnM+PG1hcmtlciBvcmllbnQ9ImF1dG8iIG1hcmtlckhlaWdodD0iMjQwIiBtYXJrZXJXaWR0aD0iMTkwIiByZWZZPSI3IiByZWZYPSIxIiBjbGFzcz0ibWFya2VyIGxvbGxpcG9wIGNsYXNzIiBpZD0iZ2VNZXJtYWlkT3V0cHV0LTE3NDU1MTcyODYyMzZfY2xhc3MtbG9sbGlwb3BFbmQiPjxjaXJjbGUgcj0iNiIgY3k9IjciIGN4PSI3IiBmaWxsPSJ0cmFuc3BhcmVudCIgc3Ryb2tlPSJibGFjayI+PC9jaXJjbGU+PC9tYXJrZXI+PC9kZWZzPjxnIGNsYXNzPSJyb290Ij48ZyBjbGFzcz0iY2x1c3RlcnMiPjwvZz48ZyBjbGFzcz0iZWRnZVBhdGhzIj48cGF0aCBtYXJrZXItZW5kPSJ1cmwoI2dlTWVybWFpZE91dHB1dC0xNzQ1NTE3Mjg2MjM2X2NsYXNzLWRlcGVuZGVuY3lFbmQpIiBzdHlsZT0iOyIgY2xhc3M9ImVkZ2UtdGhpY2tuZXNzLW5vcm1hbCBlZGdlLXBhdHRlcm4tc29saWQgcmVsYXRpb24iIGlkPSJpZF9BeGlzQ29yZV9Db250ZXh0TWFuYWdlcl8xIiBkPSJNMTY4Mi42OTEsMTU5LjQ3OUwxNDM5LjA4NywxODQuMzE2QzExOTUuNDgzLDIwOS4xNTMsNzA4LjI3NSwyNTguODI2LDQ2NC42NzEsMjk2Ljc0N0MyMjEuMDY2LDMzNC42NjcsMjIxLjA2NiwzNjAuODMzLDIyMS4wNjYsMzczLjkxN0wyMjEuMDY2LDM4NyI+PC9wYXRoPjxwYXRoIG1hcmtlci1lbmQ9InVybCgjZ2VNZXJtYWlkT3V0cHV0LTE3NDU1MTcyODYyMzZfY2xhc3MtZGVwZW5kZW5jeUVuZCkiIHN0eWxlPSI7IiBjbGFzcz0iZWRnZS10aGlja25lc3Mtbm9ybWFsIGVkZ2UtcGF0dGVybi1zb2xpZCByZWxhdGlvbiIgaWQ9ImlkX0F4aXNDb3JlX05MUFByb2Nlc3Nvcl8yIiBkPSJNMTY4Mi42OTEsMTY4LjI2TDE1MjQuNjY3LDE5MS42MzNDMTM2Ni42NDMsMjE1LjAwNiwxMDUwLjU5NSwyNjEuNzUzLDg5Mi41NzEsMzAyLjIxQzczNC41NDcsMzQyLjY2Nyw3MzQuNTQ3LDM3Ni44MzMsNzM0LjU0NywzOTMuOTE3TDczNC41NDcsNDExIj48L3BhdGg+PHBhdGggbWFya2VyLWVuZD0idXJsKCNnZU1lcm1haWRPdXRwdXQtMTc0NTUxNzI4NjIzNl9jbGFzcy1kZXBlbmRlbmN5RW5kKSIgc3R5bGU9IjsiIGNsYXNzPSJlZGdlLXRoaWNrbmVzcy1ub3JtYWwgZWRnZS1wYXR0ZXJuLXNvbGlkIHJlbGF0aW9uIiBpZD0iaWRfQXhpc0NvcmVfUGxhdGZvcm1JbnRlZ3JhdGlvbl8zIiBkPSJNMTY4Mi42OTEsMjUxLjkyN0wxNjY2LjU5NiwyNjEuMzU2QzE2NTAuNTAxLDI3MC43ODUsMTYxOC4zMTEsMjg5LjY0MiwxNTkyLjYzOCwzMDYuNTRDMTU2Ni45NjQsMzIzLjQzNywxNTQ3LjgwOCwzMzguMzc0LDE1MzguMjI5LDM0NS44NDJMMTUyOC42NTEsMzUzLjMxMSI+PC9wYXRoPjxwYXRoIG1hcmtlci1lbmQ9InVybCgjZ2VNZXJtYWlkT3V0cHV0LTE3NDU1MTcyODYyMzZfY2xhc3MtZGVwZW5kZW5jeUVuZCkiIHN0eWxlPSI7IiBjbGFzcz0iZWRnZS10aGlja25lc3Mtbm9ybWFsIGVkZ2UtcGF0dGVybi1zb2xpZCByZWxhdGlvbiIgaWQ9ImlkX0F4aXNDb3JlX1NlY3VyaXR5TWFuYWdlcl80IiBkPSJNMTg4MS41ODQsMjcyTDE4ODEuOTQ1LDI3OC4wODNDMTg4Mi4zMDYsMjg0LjE2NywxODgzLjAyOCwyOTYuMzMzLDE4ODMuMzg5LDMxNy41QzE4ODMuNzUsMzM4LjY2NywxODgzLjc1LDM2OC44MzMsMTg4My43NSwzODMuOTE3TDE4ODMuNzUsMzk5Ij48L3BhdGg+PHBhdGggbWFya2VyLWVuZD0idXJsKCNnZU1lcm1haWRPdXRwdXQtMTc0NTUxNzI4NjIzNl9jbGFzcy1kZXBlbmRlbmN5RW5kKSIgc3R5bGU9IjsiIGNsYXNzPSJlZGdlLXRoaWNrbmVzcy1ub3JtYWwgZWRnZS1wYXR0ZXJuLXNvbGlkIHJlbGF0aW9uIiBpZD0iaWRfQXhpc0NvcmVfVXNlckludGVyZmFjZV81IiBkPSJNMjA2NC44MDksMjAyLjg0OUwyMTE4LjMzOCwyMjAuNDU3QzIxNzEuODY3LDIzOC4wNjYsMjI3OC45MjYsMjczLjI4MywyMzMyLjQ1NSwyOTUuOTc1QzIzODUuOTg0LDMxOC42NjcsMjM4NS45ODQsMzI4LjgzMywyMzg1Ljk4NCwzMzMuOTE3TDIzODUuOTg0LDMzOSI+PC9wYXRoPjxwYXRoIG1hcmtlci1lbmQ9InVybCgjZ2VNZXJtYWlkT3V0cHV0LTE3NDU1MTcyODYyMzZfY2xhc3MtZGVwZW5kZW5jeUVuZCkiIHN0eWxlPSI7IiBjbGFzcz0iZWRnZS10aGlja25lc3Mtbm9ybWFsIGVkZ2UtcGF0dGVybi1zb2xpZCByZWxhdGlvbiIgaWQ9ImlkX0F4aXNDb3JlX0V4dGVuc2lvbk1hbmFnZXJfNiIgZD0iTTIwNjQuODA5LDE2OS44MDlMMjIxMi45NjQsMTkyLjkyNEMyMzYxLjExOCwyMTYuMDM5LDI2NTcuNDI4LDI2Mi4yNywyODA1LjU4MywyOTguNDY4QzI5NTMuNzM4LDMzNC42NjcsMjk1My43MzgsMzYwLjgzMywyOTUzLjczOCwzNzMuOTE3TDI5NTMuNzM4LDM4NyI+PC9wYXRoPjxwYXRoIG1hcmtlci1zdGFydD0idXJsKCNnZU1lcm1haWRPdXRwdXQtMTc0NTUxNzI4NjIzNl9jbGFzcy1leHRlbnNpb25TdGFydCkiIHN0eWxlPSI7IiBjbGFzcz0iZWRnZS10aGlja25lc3Mtbm9ybWFsIGVkZ2UtcGF0dGVybi1zb2xpZCByZWxhdGlvbiIgaWQ9ImlkX1BsYXRmb3JtSW50ZWdyYXRpb25fV2luZG93c1BsYXRmb3JtSW50ZWdyYXRpb25fNyIgZD0iTTEwMTcuODU2LDYyMC4yMzVMOTYyLjAzMyw2MzguNTI5QzkwNi4yMSw2NTYuODIzLDc5NC41NjQsNjkzLjQxMiw3MzguNzQxLDcxNS44NzJDNjgyLjkxOCw3MzguMzMzLDY4Mi45MTgsNzQ2LjY2Nyw2ODIuOTE4LDc1MC44MzNMNjgyLjkxOCw3NTUiPjwvcGF0aD48cGF0aCBtYXJrZXItc3RhcnQ9InVybCgjZ2VNZXJtYWlkT3V0cHV0LTE3NDU1MTcyODYyMzZfY2xhc3MtZXh0ZW5zaW9uU3RhcnQpIiBzdHlsZT0iOyIgY2xhc3M9ImVkZ2UtdGhpY2tuZXNzLW5vcm1hbCBlZGdlLXBhdHRlcm4tc29saWQgcmVsYXRpb24iIGlkPSJpZF9QbGF0Zm9ybUludGVncmF0aW9uX01hY09TUGxhdGZvcm1JbnRlZ3JhdGlvbl84IiBkPSJNMTMwOC40NTcsNzExTDEzMDguNDU3LDcxNC4xNjdDMTMwOC40NTcsNzE3LjMzMywxMzA4LjQ1Nyw3MjMuNjY3LDEzMDguNDU3LDczMUMxMzA4LjQ1Nyw3MzguMzMzLDEzMDguNDU3LDc0Ni42NjcsMTMwOC40NTcsNzUwLjgzM0wxMzA4LjQ1Nyw3NTUiPjwvcGF0aD48cGF0aCBtYXJrZXItc3RhcnQ9InVybCgjZ2VNZXJtYWlkT3V0cHV0LTE3NDU1MTcyODYyMzZfY2xhc3MtZXh0ZW5zaW9uU3RhcnQpIiBzdHlsZT0iOyIgY2xhc3M9ImVkZ2UtdGhpY2tuZXNzLW5vcm1hbCBlZGdlLXBhdHRlcm4tc29saWQgcmVsYXRpb24iIGlkPSJpZF9QbGF0Zm9ybUludGVncmF0aW9uX0xpbnV4UGxhdGZvcm1JbnRlZ3JhdGlvbl85IiBkPSJNMTU5OS4wNDEsNjIxLjE4MkwxNjUzLjgzNSw2MzkuMzE4QzE3MDguNjI4LDY1Ny40NTUsMTgxOC4yMTQsNjkzLjcyNywxODczLjAwOCw3MTYuMDNDMTkyNy44MDEsNzM4LjMzMywxOTI3LjgwMSw3NDYuNjY3LDE5MjcuODAxLDc1MC44MzNMMTkyNy44MDEsNzU1Ij48L3BhdGg+PHBhdGggbWFya2VyLWVuZD0idXJsKCNnZU1lcm1haWRPdXRwdXQtMTc0NTUxNzI4NjIzNl9jbGFzcy1kZXBlbmRlbmN5RW5kKSIgc3R5bGU9IjsiIGNsYXNzPSJlZGdlLXRoaWNrbmVzcy1ub3JtYWwgZWRnZS1wYXR0ZXJuLXNvbGlkIHJlbGF0aW9uIiBpZD0iaWRfUGxhdGZvcm1GYWN0b3J5X1BsYXRmb3JtSW50ZWdyYXRpb25fMTAiIGQ9Ik04OTkuOTExLDIxNUw5MjQuMjExLDIzMC41ODNDOTQ4LjUxLDI0Ni4xNjcsOTk3LjExLDI3Ny4zMzMsMTAzMC40NDgsMzAwLjM2NEMxMDYzLjc4NiwzMjMuMzk1LDEwODEuODYyLDMzOC4yOSwxMDkwLjkwMSwzNDUuNzM3TDEwOTkuOTM5LDM1My4xODUiPjwvcGF0aD48L2c+PGcgY2xhc3M9ImVkZ2VMYWJlbHMiPjxnPjxyZWN0IHN0eWxlPSJzdHJva2U6IG5vbmUiIGNsYXNzPSJiYWNrZ3JvdW5kIj48L3JlY3Q+PC9nPjxnPjxyZWN0IHN0eWxlPSJzdHJva2U6IG5vbmUiIGNsYXNzPSJiYWNrZ3JvdW5kIj48L3JlY3Q+PC9nPjxnPjxyZWN0IHN0eWxlPSJzdHJva2U6IG5vbmUiIGNsYXNzPSJiYWNrZ3JvdW5kIj48L3JlY3Q+PC9nPjxnPjxyZWN0IHN0eWxlPSJzdHJva2U6IG5vbmUiIGNsYXNzPSJiYWNrZ3JvdW5kIj48L3JlY3Q+PC9nPjxnPjxyZWN0IHN0eWxlPSJzdHJva2U6IG5vbmUiIGNsYXNzPSJiYWNrZ3JvdW5kIj48L3JlY3Q+PC9nPjxnPjxyZWN0IHN0eWxlPSJzdHJva2U6IG5vbmUiIGNsYXNzPSJiYWNrZ3JvdW5kIj48L3JlY3Q+PC9nPjxnPjxyZWN0IHN0eWxlPSJzdHJva2U6IG5vbmUiIGNsYXNzPSJiYWNrZ3JvdW5kIj48L3JlY3Q+PC9nPjxnPjxyZWN0IHN0eWxlPSJzdHJva2U6IG5vbmUiIGNsYXNzPSJiYWNrZ3JvdW5kIj48L3JlY3Q+PC9nPjxnPjxyZWN0IHN0eWxlPSJzdHJva2U6IG5vbmUiIGNsYXNzPSJiYWNrZ3JvdW5kIj48L3JlY3Q+PC9nPjxnIGNsYXNzPSJlZGdlTGFiZWwiPjxnIHRyYW5zZm9ybT0idHJhbnNsYXRlKDAsIDApIiBjbGFzcz0ibGFiZWwiPjx0ZXh0IHk9Ii0xMC4xIj48dHNwYW4gZHk9IjEuMWVtIiB5PSItMC4xZW0iIHg9IjAiIGNsYXNzPSJ0ZXh0LW91dGVyLXRzcGFuIj48L3RzcGFuPjwvdGV4dD48L2c+PC9nPjxnIGNsYXNzPSJlZGdlTGFiZWwiPjxnIHRyYW5zZm9ybT0idHJhbnNsYXRlKDAsIDApIiBjbGFzcz0ibGFiZWwiPjx0ZXh0IHk9Ii0xMC4xIj48dHNwYW4gZHk9IjEuMWVtIiB5PSItMC4xZW0iIHg9IjAiIGNsYXNzPSJ0ZXh0LW91dGVyLXRzcGFuIj48L3RzcGFuPjwvdGV4dD48L2c+PC9nPjxnIGNsYXNzPSJlZGdlTGFiZWwiPjxnIHRyYW5zZm9ybT0idHJhbnNsYXRlKDAsIDApIiBjbGFzcz0ibGFiZWwiPjx0ZXh0IHk9Ii0xMC4xIj48dHNwYW4gZHk9IjEuMWVtIiB5PSItMC4xZW0iIHg9IjAiIGNsYXNzPSJ0ZXh0LW91dGVyLXRzcGFuIj48L3RzcGFuPjwvdGV4dD48L2c+PC9nPjxnIGNsYXNzPSJlZGdlTGFiZWwiPjxnIHRyYW5zZm9ybT0idHJhbnNsYXRlKDAsIDApIiBjbGFzcz0ibGFiZWwiPjx0ZXh0IHk9Ii0xMC4xIj48dHNwYW4gZHk9IjEuMWVtIiB5PSItMC4xZW0iIHg9IjAiIGNsYXNzPSJ0ZXh0LW91dGVyLXRzcGFuIj48L3RzcGFuPjwvdGV4dD48L2c+PC9nPjxnIGNsYXNzPSJlZGdlTGFiZWwiPjxnIHRyYW5zZm9ybT0idHJhbnNsYXRlKDAsIDApIiBjbGFzcz0ibGFiZWwiPjx0ZXh0IHk9Ii0xMC4xIj48dHNwYW4gZHk9IjEuMWVtIiB5PSItMC4xZW0iIHg9IjAiIGNsYXNzPSJ0ZXh0LW91dGVyLXRzcGFuIj48L3RzcGFuPjwvdGV4dD48L2c+PC9nPjxnIGNsYXNzPSJlZGdlTGFiZWwiPjxnIHRyYW5zZm9ybT0idHJhbnNsYXRlKDAsIDApIiBjbGFzcz0ibGFiZWwiPjx0ZXh0IHk9Ii0xMC4xIj48dHNwYW4gZHk9IjEuMWVtIiB5PSItMC4xZW0iIHg9IjAiIGNsYXNzPSJ0ZXh0LW91dGVyLXRzcGFuIj48L3RzcGFuPjwvdGV4dD48L2c+PC9nPjxnIGNsYXNzPSJlZGdlTGFiZWwiPjxnIHRyYW5zZm9ybT0idHJhbnNsYXRlKDAsIDApIiBjbGFzcz0ibGFiZWwiPjx0ZXh0IHk9Ii0xMC4xIj48dHNwYW4gZHk9IjEuMWVtIiB5PSItMC4xZW0iIHg9IjAiIGNsYXNzPSJ0ZXh0LW91dGVyLXRzcGFuIj48L3RzcGFuPjwvdGV4dD48L2c+PC9nPjxnIGNsYXNzPSJlZGdlTGFiZWwiPjxnIHRyYW5zZm9ybT0idHJhbnNsYXRlKDAsIDApIiBjbGFzcz0ibGFiZWwiPjx0ZXh0IHk9Ii0xMC4xIj48dHNwYW4gZHk9IjEuMWVtIiB5PSItMC4xZW0iIHg9IjAiIGNsYXNzPSJ0ZXh0LW91dGVyLXRzcGFuIj48L3RzcGFuPjwvdGV4dD48L2c+PC9nPjxnIGNsYXNzPSJlZGdlTGFiZWwiPjxnIHRyYW5zZm9ybT0idHJhbnNsYXRlKDAsIDApIiBjbGFzcz0ibGFiZWwiPjx0ZXh0IHk9Ii0xMC4xIj48dHNwYW4gZHk9IjEuMWVtIiB5PSItMC4xZW0iIHg9IjAiIGNsYXNzPSJ0ZXh0LW91dGVyLXRzcGFuIj48L3RzcGFuPjwvdGV4dD48L2c+PC9nPjxnIHRyYW5zZm9ybT0idHJhbnNsYXRlKDEwNDUuNzA4OTg0Mzc1LCAzMDguNSkiIGNsYXNzPSJlZGdlTGFiZWwiPjxnIHRyYW5zZm9ybT0idHJhbnNsYXRlKC0yOC40MTQwNjI1LCAtMTEuNSkiIGNsYXNzPSJsYWJlbCI+PGc+PHJlY3QgaGVpZ2h0PSIyMyIgd2lkdGg9IjU2LjgyODEyNSIgeT0iLTEiIHg9Ii0yIiBzdHlsZT0iO2Rpc3BsYXk6IGlubGluZS1ibG9jayIgY2xhc3M9ImJhY2tncm91bmQiPjwvcmVjdD48dGV4dCBzdHlsZT0iO2Rpc3BsYXk6IGlubGluZS1ibG9jayIgeT0iLTEwLjEiPjx0c3BhbiBkeT0iMS4xZW0iIHk9Ii0wLjFlbSIgeD0iMCIgY2xhc3M9InRleHQtb3V0ZXItdHNwYW4iPjx0c3BhbiBmb250LXdlaWdodD0ibm9ybWFsIiBjbGFzcz0idGV4dC1pbm5lci10c3BhbiIgZm9udC1zdHlsZT0ibm9ybWFsIj5jcmVhdGVzPC90c3Bhbj48L3RzcGFuPjwvdGV4dD48L2c+PC9nPjwvZz48L2c+PGcgY2xhc3M9Im5vZGVzIj48ZyB0cmFuc2Zvcm09InRyYW5zbGF0ZSgxODczLjc1LCAxNDApIiBpZD0iY2xhc3NJZC1BeGlzQ29yZS00NCIgY2xhc3M9Im5vZGUgZGVmYXVsdCI+PGcgY2xhc3M9ImJhc2ljIGxhYmVsLWNvbnRhaW5lciI+PHBhdGggc3R5bGU9IiIgZmlsbD0iIzFmMjAyMCIgc3Ryb2tlLXdpZHRoPSIwIiBzdHJva2U9Im5vbmUiIGQ9Ik0tMTkxLjA1ODU5Mzc1IC0xMzIgTDE5MS4wNTg1OTM3NSAtMTMyIEwxOTEuMDU4NTkzNzUgMTMyIEwtMTkxLjA1ODU5Mzc1IDEzMiI+PC9wYXRoPjxwYXRoIHN0eWxlPSIiIGZpbGw9Im5vbmUiIHN0cm9rZS13aWR0aD0iMS4zIiBzdHJva2U9IiNjY2MiIGQ9Ik0tMTkxLjA1ODU5Mzc1IC0xMzIgQy04OC40NzE2MDAyMDUwOTc1MiAtMTMyLCAxNC4xMTUzOTMzMzk4MDQ5NjcgLTEzMiwgMTkxLjA1ODU5Mzc1IC0xMzIgTS0xOTEuMDU4NTkzNzUgLTEzMiBDLTczLjc2NTE1NTI3Njc1NjkzIC0xMzIsIDQzLjUyODI4MzE5NjQ4NjE0IC0xMzIsIDE5MS4wNTg1OTM3NSAtMTMyIE0xOTEuMDU4NTkzNzUgLTEzMiBDMTkxLjA1ODU5Mzc1IC03NS44MzMzNjkzMDc2MTQxLCAxOTEuMDU4NTkzNzUgLTE5LjY2NjczODYxNTIyODIxMiwgMTkxLjA1ODU5Mzc1IDEzMiBNMTkxLjA1ODU5Mzc1IC0xMzIgQzE5MS4wNTg1OTM3NSAtMzIuMTY0MjM2NDI0NTQ1MzEsIDE5MS4wNTg1OTM3NSA2Ny42NzE1MjcxNTA5MDkzOCwgMTkxLjA1ODU5Mzc1IDEzMiBNMTkxLjA1ODU5Mzc1IDEzMiBDMTA3LjU0MTQ2NTg1NDk1Nzg2IDEzMiwgMjQuMDI0MzM3OTU5OTE1NzI3IDEzMiwgLTE5MS4wNTg1OTM3NSAxMzIgTTE5MS4wNTg1OTM3NSAxMzIgQzg2LjMzMzkwNzkxMDgzNTQ1IDEzMiwgLTE4LjM5MDc3NzkyODMyOTEgMTMyLCAtMTkxLjA1ODU5Mzc1IDEzMiBNLTE5MS4wNTg1OTM3NSAxMzIgQy0xOTEuMDU4NTkzNzUgNDguNTI3ODY0NDY0NzIyMjg1LCAtMTkxLjA1ODU5Mzc1IC0zNC45NDQyNzEwNzA1NTU0MywgLTE5MS4wNTg1OTM3NSAtMTMyIE0tMTkxLjA1ODU5Mzc1IDEzMiBDLTE5MS4wNTg1OTM3NSA2NS41NjQ4OTYyODQ5MTQ2NywgLTE5MS4wNTg1OTM3NSAtMC44NzAyMDc0MzAxNzA2NjU5LCAtMTkxLjA1ODU5Mzc1IC0xMzIiPjwvcGF0aD48L2c+PGcgdHJhbnNmb3JtPSJ0cmFuc2xhdGUoMCwgLTEwOCkiIGNsYXNzPSJhbm5vdGF0aW9uLWdyb3VwIHRleHQiPjwvZz48ZyB0cmFuc2Zvcm09InRyYW5zbGF0ZSgtMzIuNzU3ODEyNSwgLTEwOCkiIGNsYXNzPSJsYWJlbC1ncm91cCB0ZXh0Ij48ZyB0cmFuc2Zvcm09InRyYW5zbGF0ZSgwLC0xMikiIHN0eWxlPSJmb250LXdlaWdodDogYm9sZGVyIiBjbGFzcz0ibGFiZWwiPjxmb3JlaWduT2JqZWN0IGhlaWdodD0iMjQiIHdpZHRoPSI2NS41MTU2MjUiPjxkaXYgc3R5bGU9ImRpc3BsYXk6IHRhYmxlLWNlbGw7IHdoaXRlLXNwYWNlOiBub3dyYXA7IGxpbmUtaGVpZ2h0OiAxLjU7IG1heC13aWR0aDogMTEzcHg7IHRleHQtYWxpZ246IGNlbnRlcjsiIHhtbG5zPSJodHRwOi8vd3d3LnczLm9yZy8xOTk5L3hodG1sIj48c3BhbiBzdHlsZT0iIiBjbGFzcz0ibm9kZUxhYmVsIG1hcmtkb3duLW5vZGUtbGFiZWwiPjxwPkF4aXNDb3JlPC9wPjwvc3Bhbj48L2Rpdj48L2ZvcmVpZ25PYmplY3Q+PC9nPjwvZz48ZyB0cmFuc2Zvcm09InRyYW5zbGF0ZSgtMTc5LjA1ODU5Mzc1LCAtNjApIiBjbGFzcz0ibWVtYmVycy1ncm91cCB0ZXh0Ij48ZyB0cmFuc2Zvcm09InRyYW5zbGF0ZSgwLC0xMikiIHN0eWxlPSIiIGNsYXNzPSJsYWJlbCI+PGZvcmVpZ25PYmplY3QgaGVpZ2h0PSIyNCIgd2lkdGg9IjI0Ny4zNDM3NSI+PGRpdiBzdHlsZT0iZGlzcGxheTogdGFibGUtY2VsbDsgd2hpdGUtc3BhY2U6IG5vd3JhcDsgbGluZS1oZWlnaHQ6IDEuNTsgbWF4LXdpZHRoOiAzMDVweDsgdGV4dC1hbGlnbjogY2VudGVyOyIgeG1sbnM9Imh0dHA6Ly93d3cudzMub3JnLzE5OTkveGh0bWwiPjxzcGFuIHN0eWxlPSIiIGNsYXNzPSJub2RlTGFiZWwgbWFya2Rvd24tbm9kZS1sYWJlbCI+PHA+LWNvbnRleHRNYW5hZ2VyOiBDb250ZXh0TWFuYWdlcjwvcD48L3NwYW4+PC9kaXY+PC9mb3JlaWduT2JqZWN0PjwvZz48ZyB0cmFuc2Zvcm09InRyYW5zbGF0ZSgwLDEyKSIgc3R5bGU9IiIgY2xhc3M9ImxhYmVsIj48Zm9yZWlnbk9iamVjdCBoZWlnaHQ9IjI0IiB3aWR0aD0iMjAwLjk1MzEyNSI+PGRpdiBzdHlsZT0iZGlzcGxheTogdGFibGUtY2VsbDsgd2hpdGUtc3BhY2U6IG5vd3JhcDsgbGluZS1oZWlnaHQ6IDEuNTsgbWF4LXdpZHRoOiAyNjBweDsgdGV4dC1hbGlnbjogY2VudGVyOyIgeG1sbnM9Imh0dHA6Ly93d3cudzMub3JnLzE5OTkveGh0bWwiPjxzcGFuIHN0eWxlPSIiIGNsYXNzPSJub2RlTGFiZWwgbWFya2Rvd24tbm9kZS1sYWJlbCI+PHA+LW5scFByb2Nlc3NvcjogTkxQUHJvY2Vzc29yPC9wPjwvc3Bhbj48L2Rpdj48L2ZvcmVpZ25PYmplY3Q+PC9nPjxnIHRyYW5zZm9ybT0idHJhbnNsYXRlKDAsMzYpIiBzdHlsZT0iIiBjbGFzcz0ibGFiZWwiPjxmb3JlaWduT2JqZWN0IGhlaWdodD0iMjQiIHdpZHRoPSIyOTkuNjU2MjUiPjxkaXYgc3R5bGU9ImRpc3BsYXk6IHRhYmxlLWNlbGw7IHdoaXRlLXNwYWNlOiBub3dyYXA7IGxpbmUtaGVpZ2h0OiAxLjU7IG1heC13aWR0aDogMzQ2cHg7IHRleHQtYWxpZ246IGNlbnRlcjsiIHhtbG5zPSJodHRwOi8vd3d3LnczLm9yZy8xOTk5L3hodG1sIj48c3BhbiBzdHlsZT0iIiBjbGFzcz0ibm9kZUxhYmVsIG1hcmtkb3duLW5vZGUtbGFiZWwiPjxwPi1wbGF0Zm9ybUludGVncmF0aW9uOiBQbGF0Zm9ybUludGVncmF0aW9uPC9wPjwvc3Bhbj48L2Rpdj48L2ZvcmVpZ25PYmplY3Q+PC9nPjxnIHRyYW5zZm9ybT0idHJhbnNsYXRlKDAsNjApIiBzdHlsZT0iIiBjbGFzcz0ibGFiZWwiPjxmb3JlaWduT2JqZWN0IGhlaWdodD0iMjQiIHdpZHRoPSIyNTEuMzI4MTI1Ij48ZGl2IHN0eWxlPSJkaXNwbGF5OiB0YWJsZS1jZWxsOyB3aGl0ZS1zcGFjZTogbm93cmFwOyBsaW5lLWhlaWdodDogMS41OyBtYXgtd2lkdGg6IDMwOXB4OyB0ZXh0LWFsaWduOiBjZW50ZXI7IiB4bWxucz0iaHR0cDovL3d3dy53My5vcmcvMTk5OS94aHRtbCI+PHNwYW4gc3R5bGU9IiIgY2xhc3M9Im5vZGVMYWJlbCBtYXJrZG93bi1ub2RlLWxhYmVsIj48cD4tc2VjdXJpdHlNYW5hZ2VyOiBTZWN1cml0eU1hbmFnZXI8L3A+PC9zcGFuPjwvZGl2PjwvZm9yZWlnbk9iamVjdD48L2c+PC9nPjxnIHRyYW5zZm9ybT0idHJhbnNsYXRlKC0xNzkuMDU4NTkzNzUsIDYwKSIgY2xhc3M9Im1ldGhvZHMtZ3JvdXAgdGV4dCI+PGcgdHJhbnNmb3JtPSJ0cmFuc2xhdGUoMCwtMTIpIiBzdHlsZT0iIiBjbGFzcz0ibGFiZWwiPjxmb3JlaWduT2JqZWN0IGhlaWdodD0iMjQiIHdpZHRoPSIzMjUuMzU5Mzc1Ij48ZGl2IHN0eWxlPSJkaXNwbGF5OiB0YWJsZS1jZWxsOyB3aGl0ZS1zcGFjZTogbm93cmFwOyBsaW5lLWhlaWdodDogMS41OyBtYXgtd2lkdGg6IDM3N3B4OyB0ZXh0LWFsaWduOiBjZW50ZXI7IiB4bWxucz0iaHR0cDovL3d3dy53My5vcmcvMTk5OS94aHRtbCI+PHNwYW4gc3R5bGU9IiIgY2xhc3M9Im5vZGVMYWJlbCBtYXJrZG93bi1ub2RlLWxhYmVsIj48cD4rcHJvY2Vzc0NvbW1hbmQoaW5wdXQ6IFN0cmluZykgOiA6IFJlc3BvbnNlPC9wPjwvc3Bhbj48L2Rpdj48L2ZvcmVpZ25PYmplY3Q+PC9nPjxnIHRyYW5zZm9ybT0idHJhbnNsYXRlKDAsMTIpIiBzdHlsZT0iIiBjbGFzcz0ibGFiZWwiPjxmb3JlaWduT2JqZWN0IGhlaWdodD0iMjQiIHdpZHRoPSIxODIuMTA5Mzc1Ij48ZGl2IHN0eWxlPSJkaXNwbGF5OiB0YWJsZS1jZWxsOyB3aGl0ZS1zcGFjZTogbm93cmFwOyBsaW5lLWhlaWdodDogMS41OyBtYXgtd2lkdGg6IDIzMXB4OyB0ZXh0LWFsaWduOiBjZW50ZXI7IiB4bWxucz0iaHR0cDovL3d3dy53My5vcmcvMTk5OS94aHRtbCI+PHNwYW4gc3R5bGU9IiIgY2xhc3M9Im5vZGVMYWJlbCBtYXJrZG93bi1ub2RlLWxhYmVsIj48cD4rZ2V0Q29udGV4dCgpIDogOiBDb250ZXh0PC9wPjwvc3Bhbj48L2Rpdj48L2ZvcmVpZ25PYmplY3Q+PC9nPjxnIHRyYW5zZm9ybT0idHJhbnNsYXRlKDAsMzYpIiBzdHlsZT0iIiBjbGFzcz0ibGFiZWwiPjxmb3JlaWduT2JqZWN0IGhlaWdodD0iMjQiIHdpZHRoPSIyOTIuNzk2ODc1Ij48ZGl2IHN0eWxlPSJkaXNwbGF5OiB0YWJsZS1jZWxsOyB3aGl0ZS1zcGFjZTogbm93cmFwOyBsaW5lLWhlaWdodDogMS41OyBtYXgtd2lkdGg6IDMzNnB4OyB0ZXh0LWFsaWduOiBjZW50ZXI7IiB4bWxucz0iaHR0cDovL3d3dy53My5vcmcvMTk5OS94aHRtbCI+PHNwYW4gc3R5bGU9IiIgY2xhc3M9Im5vZGVMYWJlbCBtYXJrZG93bi1ub2RlLWxhYmVsIj48cD4rZXhlY3V0ZUFjdGlvbihhY3Rpb246IEFjdGlvbikgOiA6IFJlc3VsdDwvcD48L3NwYW4+PC9kaXY+PC9mb3JlaWduT2JqZWN0PjwvZz48L2c+PGcgc3R5bGU9IiIgY2xhc3M9ImRpdmlkZXIiPjxwYXRoIHN0eWxlPSIiIGZpbGw9Im5vbmUiIHN0cm9rZS13aWR0aD0iMS4zIiBzdHJva2U9IiNjY2MiIGQ9Ik0tMTkxLjA1ODU5Mzc1IC04NCBDLTQwLjgzODQ0MDgwODU5NDUzIC04NCwgMTA5LjM4MTcxMjEzMjgxMDk1IC04NCwgMTkxLjA1ODU5Mzc1IC04NCBNLTE5MS4wNTg1OTM3NSAtODQgQy0xMDUuNTkyNDgwODU0NDA2MzYgLTg0LCAtMjAuMTI2MzY3OTU4ODEyNzIyIC04NCwgMTkxLjA1ODU5Mzc1IC04NCI+PC9wYXRoPjwvZz48ZyBzdHlsZT0iIiBjbGFzcz0iZGl2aWRlciI+PHBhdGggc3R5bGU9IiIgZmlsbD0ibm9uZSIgc3Ryb2tlLXdpZHRoPSIxLjMiIHN0cm9rZT0iI2NjYyIgZD0iTS0xOTEuMDU4NTkzNzUgMzYgQy0xMTAuODA4OTQxNDIwNjM1OCAzNiwgLTMwLjU1OTI4OTA5MTI3MTYxIDM2LCAxOTEuMDU4NTkzNzUgMzYgTS0xOTEuMDU4NTkzNzUgMzYgQy03OC4yODk1MDQ3NTc0ODI1NSAzNiwgMzQuNDc5NTg0MjM1MDM0OTA2IDM2LCAxOTEuMDU4NTkzNzUgMzYiPjwvcGF0aD48L2c+PC9nPjxnIHRyYW5zZm9ybT0idHJhbnNsYXRlKDIyMS4wNjY0MDYyNSwgNTI1KSIgaWQ9ImNsYXNzSWQtQ29udGV4dE1hbmFnZXItNDUiIGNsYXNzPSJub2RlIGRlZmF1bHQiPjxnIGNsYXNzPSJiYXNpYyBsYWJlbC1jb250YWluZXIiPjxwYXRoIHN0eWxlPSIiIGZpbGw9IiMxZjIwMjAiIHN0cm9rZS13aWR0aD0iMCIgc3Ryb2tlPSJub25lIiBkPSJNLTIxMy4wNjY0MDYyNSAtMTMyIEwyMTMuMDY2NDA2MjUgLTEzMiBMMjEzLjA2NjQwNjI1IDEzMiBMLTIxMy4wNjY0MDYyNSAxMzIiPjwvcGF0aD48cGF0aCBzdHlsZT0iIiBmaWxsPSJub25lIiBzdHJva2Utd2lkdGg9IjEuMyIgc3Ryb2tlPSIjY2NjIiBkPSJNLTIxMy4wNjY0MDYyNSAtMTMyIEMtMTE4LjA2MzgwNjgzMzg3Njk4IC0xMzIsIC0yMy4wNjEyMDc0MTc3NTM5NjMgLTEzMiwgMjEzLjA2NjQwNjI1IC0xMzIgTS0yMTMuMDY2NDA2MjUgLTEzMiBDLTEwNS4xNTk5MjYzODE0MjUgLTEzMiwgMi43NDY1NTM0ODcxNTAwMDk3IC0xMzIsIDIxMy4wNjY0MDYyNSAtMTMyIE0yMTMuMDY2NDA2MjUgLTEzMiBDMjEzLjA2NjQwNjI1IC01OC40NjM5NTkxODA4NjgzLCAyMTMuMDY2NDA2MjUgMTUuMDcyMDgxNjM4MjYzMzk4LCAyMTMuMDY2NDA2MjUgMTMyIE0yMTMuMDY2NDA2MjUgLTEzMiBDMjEzLjA2NjQwNjI1IC0zMS4yNDAwOTI1NjUwOTc2NTUsIDIxMy4wNjY0MDYyNSA2OS41MTk4MTQ4Njk4MDQ2OSwgMjEzLjA2NjQwNjI1IDEzMiBNMjEzLjA2NjQwNjI1IDEzMiBDOTEuNjIxMDY1OTkyNjAxNTcgMTMyLCAtMjkuODI0Mjc0MjY0Nzk2ODU2IDEzMiwgLTIxMy4wNjY0MDYyNSAxMzIgTTIxMy4wNjY0MDYyNSAxMzIgQzk0LjIyMDEzODQ2ODQxNDQyIDEzMiwgLTI0LjYyNjEyOTMxMzE3MTE2MiAxMzIsIC0yMTMuMDY2NDA2MjUgMTMyIE0tMjEzLjA2NjQwNjI1IDEzMiBDLTIxMy4wNjY0MDYyNSA1OS42ODYwNTk5ODI5NDczNTYsIC0yMTMuMDY2NDA2MjUgLTEyLjYyNzg4MDAzNDEwNTI4OSwgLTIxMy4wNjY0MDYyNSAtMTMyIE0tMjEzLjA2NjQwNjI1IDEzMiBDLTIxMy4wNjY0MDYyNSA1MS45OTc1MjM2NDI1MTc5NiwgLTIxMy4wNjY0MDYyNSAtMjguMDA0OTUyNzE0OTY0MDc3LCAtMjEzLjA2NjQwNjI1IC0xMzIiPjwvcGF0aD48L2c+PGcgdHJhbnNmb3JtPSJ0cmFuc2xhdGUoMCwgLTEwOCkiIGNsYXNzPSJhbm5vdGF0aW9uLWdyb3VwIHRleHQiPjwvZz48ZyB0cmFuc2Zvcm09InRyYW5zbGF0ZSgtNjAuNzQyMTg3NSwgLTEwOCkiIGNsYXNzPSJsYWJlbC1ncm91cCB0ZXh0Ij48ZyB0cmFuc2Zvcm09InRyYW5zbGF0ZSgwLC0xMikiIHN0eWxlPSJmb250LXdlaWdodDogYm9sZGVyIiBjbGFzcz0ibGFiZWwiPjxmb3JlaWduT2JqZWN0IGhlaWdodD0iMjQiIHdpZHRoPSIxMjEuNDg0Mzc1Ij48ZGl2IHN0eWxlPSJkaXNwbGF5OiB0YWJsZS1jZWxsOyB3aGl0ZS1zcGFjZTogbm93cmFwOyBsaW5lLWhlaWdodDogMS41OyBtYXgtd2lkdGg6IDE2OXB4OyB0ZXh0LWFsaWduOiBjZW50ZXI7IiB4bWxucz0iaHR0cDovL3d3dy53My5vcmcvMTk5OS94aHRtbCI+PHNwYW4gc3R5bGU9IiIgY2xhc3M9Im5vZGVMYWJlbCBtYXJrZG93bi1ub2RlLWxhYmVsIj48cD5Db250ZXh0TWFuYWdlcjwvcD48L3NwYW4+PC9kaXY+PC9mb3JlaWduT2JqZWN0PjwvZz48L2c+PGcgdHJhbnNmb3JtPSJ0cmFuc2xhdGUoLTIwMS4wNjY0MDYyNSwgLTYwKSIgY2xhc3M9Im1lbWJlcnMtZ3JvdXAgdGV4dCI+PGcgdHJhbnNmb3JtPSJ0cmFuc2xhdGUoMCwtMTIpIiBzdHlsZT0iIiBjbGFzcz0ibGFiZWwiPjxmb3JlaWduT2JqZWN0IGhlaWdodD0iMjQiIHdpZHRoPSIxNzMuMDMxMjUiPjxkaXYgc3R5bGU9ImRpc3BsYXk6IHRhYmxlLWNlbGw7IHdoaXRlLXNwYWNlOiBub3dyYXA7IGxpbmUtaGVpZ2h0OiAxLjU7IG1heC13aWR0aDogMjI1cHg7IHRleHQtYWxpZ246IGNlbnRlcjsiIHhtbG5zPSJodHRwOi8vd3d3LnczLm9yZy8xOTk5L3hodG1sIj48c3BhbiBzdHlsZT0iIiBjbGFzcz0ibm9kZUxhYmVsIG1hcmtkb3duLW5vZGUtbGFiZWwiPjxwPi1hY3RpdmVDb250ZXh0OiBDb250ZXh0PC9wPjwvc3Bhbj48L2Rpdj48L2ZvcmVpZ25PYmplY3Q+PC9nPjxnIHRyYW5zZm9ybT0idHJhbnNsYXRlKDAsMTIpIiBzdHlsZT0iIiBjbGFzcz0ibGFiZWwiPjxmb3JlaWduT2JqZWN0IGhlaWdodD0iMjQiIHdpZHRoPSIyMjAuMzkwNjI1Ij48ZGl2IHN0eWxlPSJkaXNwbGF5OiB0YWJsZS1jZWxsOyB3aGl0ZS1zcGFjZTogbm93cmFwOyBsaW5lLWhlaWdodDogMS41OyBtYXgtd2lkdGg6IDMwOXB4OyB0ZXh0LWFsaWduOiBjZW50ZXI7IiB4bWxucz0iaHR0cDovL3d3dy53My5vcmcvMTk5OS94aHRtbCI+PHNwYW4gc3R5bGU9IiIgY2xhc3M9Im5vZGVMYWJlbCBtYXJrZG93bi1ub2RlLWxhYmVsIj48cD4tY29udGV4dEhpc3Rvcnk6IExpc3QmbHQ7Q29udGV4dCZndDs8L3A+PC9zcGFuPjwvZGl2PjwvZm9yZWlnbk9iamVjdD48L2c+PGcgdHJhbnNmb3JtPSJ0cmFuc2xhdGUoMCwzNikiIHN0eWxlPSIiIGNsYXNzPSJsYWJlbCI+PGZvcmVpZ25PYmplY3QgaGVpZ2h0PSIyNCIgd2lkdGg9IjI0Ny42NzE4NzUiPjxkaXYgc3R5bGU9ImRpc3BsYXk6IHRhYmxlLWNlbGw7IHdoaXRlLXNwYWNlOiBub3dyYXA7IGxpbmUtaGVpZ2h0OiAxLjU7IG1heC13aWR0aDogMjk4cHg7IHRleHQtYWxpZ246IGNlbnRlcjsiIHhtbG5zPSJodHRwOi8vd3d3LnczLm9yZy8xOTk5L3hodG1sIj48c3BhbiBzdHlsZT0iIiBjbGFzcz0ibm9kZUxhYmVsIG1hcmtkb3duLW5vZGUtbGFiZWwiPjxwPi11c2VyUHJlZmVyZW5jZXM6IFVzZXJQcmVmZXJlbmNlczwvcD48L3NwYW4+PC9kaXY+PC9mb3JlaWduT2JqZWN0PjwvZz48L2c+PGcgdHJhbnNmb3JtPSJ0cmFuc2xhdGUoLTIwMS4wNjY0MDYyNSwgMzYpIiBjbGFzcz0ibWV0aG9kcy1ncm91cCB0ZXh0Ij48ZyB0cmFuc2Zvcm09InRyYW5zbGF0ZSgwLC0xMikiIHN0eWxlPSIiIGNsYXNzPSJsYWJlbCI+PGZvcmVpZ25PYmplY3QgaGVpZ2h0PSIyNCIgd2lkdGg9IjI0OC4yMTg3NSI+PGRpdiBzdHlsZT0iZGlzcGxheTogdGFibGUtY2VsbDsgd2hpdGUtc3BhY2U6IG5vd3JhcDsgbGluZS1oZWlnaHQ6IDEuNTsgbWF4LXdpZHRoOiAzMDBweDsgdGV4dC1hbGlnbjogY2VudGVyOyIgeG1sbnM9Imh0dHA6Ly93d3cudzMub3JnLzE5OTkveGh0bWwiPjxzcGFuIHN0eWxlPSIiIGNsYXNzPSJub2RlTGFiZWwgbWFya2Rvd24tbm9kZS1sYWJlbCI+PHA+K3VwZGF0ZUNvbnRleHQoY29udGV4dDogQ29udGV4dCk8L3A+PC9zcGFuPjwvZGl2PjwvZm9yZWlnbk9iamVjdD48L2c+PGcgdHJhbnNmb3JtPSJ0cmFuc2xhdGUoMCwxMikiIHN0eWxlPSIiIGNsYXNzPSJsYWJlbCI+PGZvcmVpZ25PYmplY3QgaGVpZ2h0PSIyNCIgd2lkdGg9IjIyNi45Mzc1Ij48ZGl2IHN0eWxlPSJkaXNwbGF5OiB0YWJsZS1jZWxsOyB3aGl0ZS1zcGFjZTogbm93cmFwOyBsaW5lLWhlaWdodDogMS41OyBtYXgtd2lkdGg6IDI3NXB4OyB0ZXh0LWFsaWduOiBjZW50ZXI7IiB4bWxucz0iaHR0cDovL3d3dy53My5vcmcvMTk5OS94aHRtbCI+PHNwYW4gc3R5bGU9IiIgY2xhc3M9Im5vZGVMYWJlbCBtYXJrZG93bi1ub2RlLWxhYmVsIj48cD4rZ2V0QWN0aXZlQ29udGV4dCgpIDogOiBDb250ZXh0PC9wPjwvc3Bhbj48L2Rpdj48L2ZvcmVpZ25PYmplY3Q+PC9nPjxnIHRyYW5zZm9ybT0idHJhbnNsYXRlKDAsMzYpIiBzdHlsZT0iIiBjbGFzcz0ibGFiZWwiPjxmb3JlaWduT2JqZWN0IGhlaWdodD0iMjQiIHdpZHRoPSIyMTMuNjA5Mzc1Ij48ZGl2IHN0eWxlPSJkaXNwbGF5OiB0YWJsZS1jZWxsOyB3aGl0ZS1zcGFjZTogbm93cmFwOyBsaW5lLWhlaWdodDogMS41OyBtYXgtd2lkdGg6IDI2OHB4OyB0ZXh0LWFsaWduOiBjZW50ZXI7IiB4bWxucz0iaHR0cDovL3d3dy53My5vcmcvMTk5OS94aHRtbCI+PHNwYW4gc3R5bGU9IiIgY2xhc3M9Im5vZGVMYWJlbCBtYXJrZG93bi1ub2RlLWxhYmVsIj48cD4rbWFpbnRhaW5Db250ZXh0Q29udGludWl0eSgpPC9wPjwvc3Bhbj48L2Rpdj48L2ZvcmVpZ25PYmplY3Q+PC9nPjxnIHRyYW5zZm9ybT0idHJhbnNsYXRlKDAsNjApIiBzdHlsZT0iIiBjbGFzcz0ibGFiZWwiPjxmb3JlaWduT2JqZWN0IGhlaWdodD0iMjQiIHdpZHRoPSIzNDEuMzkwNjI1Ij48ZGl2IHN0eWxlPSJkaXNwbGF5OiB0YWJsZS1jZWxsOyB3aGl0ZS1zcGFjZTogbm93cmFwOyBsaW5lLWhlaWdodDogMS41OyBtYXgtd2lkdGg6IDM4NXB4OyB0ZXh0LWFsaWduOiBjZW50ZXI7IiB4bWxucz0iaHR0cDovL3d3dy53My5vcmcvMTk5OS94aHRtbCI+PHNwYW4gc3R5bGU9IiIgY2xhc3M9Im5vZGVMYWJlbCBtYXJrZG93bi1ub2RlLWxhYmVsIj48cD4rbGVhcm5Gcm9tSW50ZXJhY3Rpb24oaW50ZXJhY3Rpb246IEludGVyYWN0aW9uKTwvcD48L3NwYW4+PC9kaXY+PC9mb3JlaWduT2JqZWN0PjwvZz48L2c+PGcgc3R5bGU9IiIgY2xhc3M9ImRpdmlkZXIiPjxwYXRoIHN0eWxlPSIiIGZpbGw9Im5vbmUiIHN0cm9rZS13aWR0aD0iMS4zIiBzdHJva2U9IiNjY2MiIGQ9Ik0tMjEzLjA2NjQwNjI1IC04NCBDLTEyMC4zODc1ODY1ODE3MzAzOSAtODQsIC0yNy43MDg3NjY5MTM0NjA3NzggLTg0LCAyMTMuMDY2NDA2MjUgLTg0IE0tMjEzLjA2NjQwNjI1IC04NCBDLTUwLjc3NDU2MDU0Njk5ODYgLTg0LCAxMTEuNTE3Mjg1MTU2MDAyOCAtODQsIDIxMy4wNjY0MDYyNSAtODQiPjwvcGF0aD48L2c+PGcgc3R5bGU9IiIgY2xhc3M9ImRpdmlkZXIiPjxwYXRoIHN0eWxlPSIiIGZpbGw9Im5vbmUiIHN0cm9rZS13aWR0aD0iMS4zIiBzdHJva2U9IiNjY2MiIGQ9Ik0tMjEzLjA2NjQwNjI1IDEyIEMtNjUuMDAxNDAyMjUwOTQ0NzIgMTIsIDgzLjA2MzYwMTc0ODExMDU2IDEyLCAyMTMuMDY2NDA2MjUgMTIgTS0yMTMuMDY2NDA2MjUgMTIgQy03NC44MzI1MTg1ODE3OTUwOSAxMiwgNjMuNDAxMzY5MDg2NDA5ODMgMTIsIDIxMy4wNjY0MDYyNSAxMiI+PC9wYXRoPjwvZz48L2c+PGcgdHJhbnNmb3JtPSJ0cmFuc2xhdGUoNzM0LjU0Njg3NSwgNTI1KSIgaWQ9ImNsYXNzSWQtTkxQUHJvY2Vzc29yLTQ2IiBjbGFzcz0ibm9kZSBkZWZhdWx0Ij48ZyBjbGFzcz0iYmFzaWMgbGFiZWwtY29udGFpbmVyIj48cGF0aCBzdHlsZT0iIiBmaWxsPSIjMWYyMDIwIiBzdHJva2Utd2lkdGg9IjAiIHN0cm9rZT0ibm9uZSIgZD0iTS0yNTAuNDE0MDYyNSAtMTA4IEwyNTAuNDE0MDYyNSAtMTA4IEwyNTAuNDE0MDYyNSAxMDggTC0yNTAuNDE0MDYyNSAxMDgiPjwvcGF0aD48cGF0aCBzdHlsZT0iIiBmaWxsPSJub25lIiBzdHJva2Utd2lkdGg9IjEuMyIgc3Ryb2tlPSIjY2NjIiBkPSJNLTI1MC40MTQwNjI1IC0xMDggQy0xMjguOTg5ODE2NzQ5NDY0NDcgLTEwOCwgLTcuNTY1NTcwOTk4OTI4OTA1IC0xMDgsIDI1MC40MTQwNjI1IC0xMDggTS0yNTAuNDE0MDYyNSAtMTA4IEMtMTAwLjkwODk5NDA0NzE0MTcgLTEwOCwgNDguNTk2MDc0NDA1NzE2NTkgLTEwOCwgMjUwLjQxNDA2MjUgLTEwOCBNMjUwLjQxNDA2MjUgLTEwOCBDMjUwLjQxNDA2MjUgLTYzLjI0MTMwODIzOTM1NjE2NSwgMjUwLjQxNDA2MjUgLTE4LjQ4MjYxNjQ3ODcxMjMzLCAyNTAuNDE0MDYyNSAxMDggTTI1MC40MTQwNjI1IC0xMDggQzI1MC40MTQwNjI1IC01OS42Nzk4Njc3MDEzNzk3MywgMjUwLjQxNDA2MjUgLTExLjM1OTczNTQwMjc1OTQ1NSwgMjUwLjQxNDA2MjUgMTA4IE0yNTAuNDE0MDYyNSAxMDggQzg2LjM5NDg5MjE2NzI3NTY5IDEwOCwgLTc3LjYyNDI3ODE2NTQ0ODYzIDEwOCwgLTI1MC40MTQwNjI1IDEwOCBNMjUwLjQxNDA2MjUgMTA4IEM3MS4zNTg1NTczNTEzNjI2NiAxMDgsIC0xMDcuNjk2OTQ3Nzk3Mjc0NjcgMTA4LCAtMjUwLjQxNDA2MjUgMTA4IE0tMjUwLjQxNDA2MjUgMTA4IEMtMjUwLjQxNDA2MjUgNDAuMDg5NjE2NDA0MzAwNiwgLTI1MC40MTQwNjI1IC0yNy44MjA3NjcxOTEzOTg4LCAtMjUwLjQxNDA2MjUgLTEwOCBNLTI1MC40MTQwNjI1IDEwOCBDLTI1MC40MTQwNjI1IDI3Ljg4MTQ1ODQ3MjU0MTIyNiwgLTI1MC40MTQwNjI1IC01Mi4yMzcwODMwNTQ5MTc1NSwgLTI1MC40MTQwNjI1IC0xMDgiPjwvcGF0aD48L2c+PGcgdHJhbnNmb3JtPSJ0cmFuc2xhdGUoMCwgLTg0KSIgY2xhc3M9ImFubm90YXRpb24tZ3JvdXAgdGV4dCI+PC9nPjxnIHRyYW5zZm9ybT0idHJhbnNsYXRlKC01MC42MjUsIC04NCkiIGNsYXNzPSJsYWJlbC1ncm91cCB0ZXh0Ij48ZyB0cmFuc2Zvcm09InRyYW5zbGF0ZSgwLC0xMikiIHN0eWxlPSJmb250LXdlaWdodDogYm9sZGVyIiBjbGFzcz0ibGFiZWwiPjxmb3JlaWduT2JqZWN0IGhlaWdodD0iMjQiIHdpZHRoPSIxMDEuMjUiPjxkaXYgc3R5bGU9ImRpc3BsYXk6IHRhYmxlLWNlbGw7IHdoaXRlLXNwYWNlOiBub3dyYXA7IGxpbmUtaGVpZ2h0OiAxLjU7IG1heC13aWR0aDogMTQ4cHg7IHRleHQtYWxpZ246IGNlbnRlcjsiIHhtbG5zPSJodHRwOi8vd3d3LnczLm9yZy8xOTk5L3hodG1sIj48c3BhbiBzdHlsZT0iIiBjbGFzcz0ibm9kZUxhYmVsIG1hcmtkb3duLW5vZGUtbGFiZWwiPjxwPk5MUFByb2Nlc3NvcjwvcD48L3NwYW4+PC9kaXY+PC9mb3JlaWduT2JqZWN0PjwvZz48L2c+PGcgdHJhbnNmb3JtPSJ0cmFuc2xhdGUoLTIzOC40MTQwNjI1LCAtMzYpIiBjbGFzcz0ibWVtYmVycy1ncm91cCB0ZXh0Ij48ZyB0cmFuc2Zvcm09InRyYW5zbGF0ZSgwLC0xMikiIHN0eWxlPSIiIGNsYXNzPSJsYWJlbCI+PGZvcmVpZ25PYmplY3QgaGVpZ2h0PSIyNCIgd2lkdGg9IjIzMi4xNTYyNSI+PGRpdiBzdHlsZT0iZGlzcGxheTogdGFibGUtY2VsbDsgd2hpdGUtc3BhY2U6IG5vd3JhcDsgbGluZS1oZWlnaHQ6IDEuNTsgbWF4LXdpZHRoOiAyOTJweDsgdGV4dC1hbGlnbjogY2VudGVyOyIgeG1sbnM9Imh0dHA6Ly93d3cudzMub3JnLzE5OTkveGh0bWwiPjxzcGFuIHN0eWxlPSIiIGNsYXNzPSJub2RlTGFiZWwgbWFya2Rvd24tbm9kZS1sYWJlbCI+PHA+LWxhbmd1YWdlTW9kZWw6IExhbmd1YWdlTW9kZWw8L3A+PC9zcGFuPjwvZGl2PjwvZm9yZWlnbk9iamVjdD48L2c+PGcgdHJhbnNmb3JtPSJ0cmFuc2xhdGUoMCwxMikiIHN0eWxlPSIiIGNsYXNzPSJsYWJlbCI+PGZvcmVpZ25PYmplY3QgaGVpZ2h0PSIyNCIgd2lkdGg9IjI0NC45MjE4NzUiPjxkaXYgc3R5bGU9ImRpc3BsYXk6IHRhYmxlLWNlbGw7IHdoaXRlLXNwYWNlOiBub3dyYXA7IGxpbmUtaGVpZ2h0OiAxLjU7IG1heC13aWR0aDogMzAycHg7IHRleHQtYWxpZ246IGNlbnRlcjsiIHhtbG5zPSJodHRwOi8vd3d3LnczLm9yZy8xOTk5L3hodG1sIj48c3BhbiBzdHlsZT0iIiBjbGFzcz0ibm9kZUxhYmVsIG1hcmtkb3duLW5vZGUtbGFiZWwiPjxwPi1jb21tYW5kUGFyc2VyOiBDb21tYW5kUGFyc2VyPC9wPjwvc3Bhbj48L2Rpdj48L2ZvcmVpZ25PYmplY3Q+PC9nPjwvZz48ZyB0cmFuc2Zvcm09InRyYW5zbGF0ZSgtMjM4LjQxNDA2MjUsIDM2KSIgY2xhc3M9Im1ldGhvZHMtZ3JvdXAgdGV4dCI+PGcgdHJhbnNmb3JtPSJ0cmFuc2xhdGUoMCwtMTIpIiBzdHlsZT0iIiBjbGFzcz0ibGFiZWwiPjxmb3JlaWduT2JqZWN0IGhlaWdodD0iMjQiIHdpZHRoPSIzNjUuNzAzMTI1Ij48ZGl2IHN0eWxlPSJkaXNwbGF5OiB0YWJsZS1jZWxsOyB3aGl0ZS1zcGFjZTogbm93cmFwOyBsaW5lLWhlaWdodDogMS41OyBtYXgtd2lkdGg6IDQxM3B4OyB0ZXh0LWFsaWduOiBjZW50ZXI7IiB4bWxucz0iaHR0cDovL3d3dy53My5vcmcvMTk5OS94aHRtbCI+PHNwYW4gc3R5bGU9IiIgY2xhc3M9Im5vZGVMYWJlbCBtYXJrZG93bi1ub2RlLWxhYmVsIj48cD4rcGFyc2VOYXR1cmFsTGFuZ3VhZ2UoaW5wdXQ6IFN0cmluZykgOiA6IENvbW1hbmQ8L3A+PC9zcGFuPjwvZGl2PjwvZm9yZWlnbk9iamVjdD48L2c+PGcgdHJhbnNmb3JtPSJ0cmFuc2xhdGUoMCwxMikiIHN0eWxlPSIiIGNsYXNzPSJsYWJlbCI+PGZvcmVpZ25PYmplY3QgaGVpZ2h0PSIyNCIgd2lkdGg9IjMzNi41Ij48ZGl2IHN0eWxlPSJkaXNwbGF5OiB0YWJsZS1jZWxsOyB3aGl0ZS1zcGFjZTogbm93cmFwOyBsaW5lLWhlaWdodDogMS41OyBtYXgtd2lkdGg6IDM4MnB4OyB0ZXh0LWFsaWduOiBjZW50ZXI7IiB4bWxucz0iaHR0cDovL3d3dy53My5vcmcvMTk5OS94aHRtbCI+PHNwYW4gc3R5bGU9IiIgY2xhc3M9Im5vZGVMYWJlbCBtYXJrZG93bi1ub2RlLWxhYmVsIj48cD4rZ2VuZXJhdGVSZXNwb25zZShyZXN1bHQ6IFJlc3VsdCkgOiA6IFJlc3BvbnNlPC9wPjwvc3Bhbj48L2Rpdj48L2ZvcmVpZ25PYmplY3Q+PC9nPjxnIHRyYW5zZm9ybT0idHJhbnNsYXRlKDAsMzYpIiBzdHlsZT0iIiBjbGFzcz0ibGFiZWwiPjxmb3JlaWduT2JqZWN0IGhlaWdodD0iMjQiIHdpZHRoPSI0MjYuMjAzMTI1Ij48ZGl2IHN0eWxlPSJkaXNwbGF5OiB0YWJsZS1jZWxsOyB3aGl0ZS1zcGFjZTogbm93cmFwOyBsaW5lLWhlaWdodDogMS41OyBtYXgtd2lkdGg6IDQ3NnB4OyB0ZXh0LWFsaWduOiBjZW50ZXI7IiB4bWxucz0iaHR0cDovL3d3dy53My5vcmcvMTk5OS94aHRtbCI+PHNwYW4gc3R5bGU9IiIgY2xhc3M9Im5vZGVMYWJlbCBtYXJrZG93bi1ub2RlLWxhYmVsIj48cD4rcmVzb2x2ZUFtYmlndWl0eShjb21tYW5kOiBDb21tYW5kLCBjb250ZXh0OiBDb250ZXh0KTwvcD48L3NwYW4+PC9kaXY+PC9mb3JlaWduT2JqZWN0PjwvZz48L2c+PGcgc3R5bGU9IiIgY2xhc3M9ImRpdmlkZXIiPjxwYXRoIHN0eWxlPSIiIGZpbGw9Im5vbmUiIHN0cm9rZS13aWR0aD0iMS4zIiBzdHJva2U9IiNjY2MiIGQ9Ik0tMjUwLjQxNDA2MjUgLTYwIEMtMTE3LjAxMzk1NTU4NjYzNTM1IC02MCwgMTYuMzg2MTUxMzI2NzI5MzA1IC02MCwgMjUwLjQxNDA2MjUgLTYwIE0tMjUwLjQxNDA2MjUgLTYwIEMtMTQxLjgwMTIwNjE0ODEzMzk5IC02MCwgLTMzLjE4ODM0OTc5NjI2Nzk0IC02MCwgMjUwLjQxNDA2MjUgLTYwIj48L3BhdGg+PC9nPjxnIHN0eWxlPSIiIGNsYXNzPSJkaXZpZGVyIj48cGF0aCBzdHlsZT0iIiBmaWxsPSJub25lIiBzdHJva2Utd2lkdGg9IjEuMyIgc3Ryb2tlPSIjY2NjIiBkPSJNLTI1MC40MTQwNjI1IDEyIEMtNTQuOTY1MzgzNzI5MjQzOTcgMTIsIDE0MC40ODMyOTUwNDE1MTIwNiAxMiwgMjUwLjQxNDA2MjUgMTIgTS0yNTAuNDE0MDYyNSAxMiBDLTg4LjY0MTE0NDQ1ODQ1MjI2IDEyLCA3My4xMzE3NzM1ODMwOTU0OCAxMiwgMjUwLjQxNDA2MjUgMTIiPjwvcGF0aD48L2c+PC9nPjxnIHRyYW5zZm9ybT0idHJhbnNsYXRlKDEzMDguNDU3MDMxMjUsIDUyNSkiIGlkPSJjbGFzc0lkLVBsYXRmb3JtSW50ZWdyYXRpb24tNDciIGNsYXNzPSJub2RlIGRlZmF1bHQiPjxnIGNsYXNzPSJiYXNpYyBsYWJlbC1jb250YWluZXIiPjxwYXRoIHN0eWxlPSIiIGZpbGw9IiMxZjIwMjAiIHN0cm9rZS13aWR0aD0iMCIgc3Ryb2tlPSJub25lIiBkPSJNLTI3My40OTYwOTM3NSAtMTY4IEwyNzMuNDk2MDkzNzUgLTE2OCBMMjczLjQ5NjA5Mzc1IDE2OCBMLTI3My40OTYwOTM3NSAxNjgiPjwvcGF0aD48cGF0aCBzdHlsZT0iIiBmaWxsPSJub25lIiBzdHJva2Utd2lkdGg9IjEuMyIgc3Ryb2tlPSIjY2NjIiBkPSJNLTI3My40OTYwOTM3NSAtMTY4IEMtMTA0LjUwMjAwNzMxNTUzNjU5IC0xNjgsIDY0LjQ5MjA3OTExODkyNjgyIC0xNjgsIDI3My40OTYwOTM3NSAtMTY4IE0tMjczLjQ5NjA5Mzc1IC0xNjggQy04MS4zNTgxNDgyNzA3NTY0IC0xNjgsIDExMC43Nzk3OTcyMDg0ODcyIC0xNjgsIDI3My40OTYwOTM3NSAtMTY4IE0yNzMuNDk2MDkzNzUgLTE2OCBDMjczLjQ5NjA5Mzc1IC02MS41NjQyNzQxMDQ1OTYzNSwgMjczLjQ5NjA5Mzc1IDQ0Ljg3MTQ1MTc5MDgwNzMsIDI3My40OTYwOTM3NSAxNjggTTI3My40OTYwOTM3NSAtMTY4IEMyNzMuNDk2MDkzNzUgLTUzLjI3ODc2MzMxMjUyMzYyLCAyNzMuNDk2MDkzNzUgNjEuNDQyNDczMzc0OTUyNzU1LCAyNzMuNDk2MDkzNzUgMTY4IE0yNzMuNDk2MDkzNzUgMTY4IEMxMjcuODQ1MzQ2NTAwODkwOTEgMTY4LCAtMTcuODA1NDAwNzQ4MjE4MTc2IDE2OCwgLTI3My40OTYwOTM3NSAxNjggTTI3My40OTYwOTM3NSAxNjggQzg0LjI0NTU3OTk1NjcyODcgMTY4LCAtMTA1LjAwNDkzMzgzNjU0MjU5IDE2OCwgLTI3My40OTYwOTM3NSAxNjggTS0yNzMuNDk2MDkzNzUgMTY4IEMtMjczLjQ5NjA5Mzc1IDU4LjM5OTY2NDYxMDU4ODg0LCAtMjczLjQ5NjA5Mzc1IC01MS4yMDA2NzA3Nzg4MjIzMTQsIC0yNzMuNDk2MDkzNzUgLTE2OCBNLTI3My40OTYwOTM3NSAxNjggQy0yNzMuNDk2MDkzNzUgOTYuMzYxNDgwNTE4Njk3OSwgLTI3My40OTYwOTM3NSAyNC43MjI5NjEwMzczOTU4MDUsIC0yNzMuNDk2MDkzNzUgLTE2OCI+PC9wYXRoPjwvZz48ZyB0cmFuc2Zvcm09InRyYW5zbGF0ZSgwLCAtMTQ0KSIgY2xhc3M9ImFubm90YXRpb24tZ3JvdXAgdGV4dCI+PC9nPjxnIHRyYW5zZm9ybT0idHJhbnNsYXRlKC03My4yNDIxODc1LCAtMTQ0KSIgY2xhc3M9ImxhYmVsLWdyb3VwIHRleHQiPjxnIHRyYW5zZm9ybT0idHJhbnNsYXRlKDAsLTEyKSIgc3R5bGU9ImZvbnQtd2VpZ2h0OiBib2xkZXIiIGNsYXNzPSJsYWJlbCI+PGZvcmVpZ25PYmplY3QgaGVpZ2h0PSIyNCIgd2lkdGg9IjE0Ni40ODQzNzUiPjxkaXYgc3R5bGU9ImRpc3BsYXk6IHRhYmxlLWNlbGw7IHdoaXRlLXNwYWNlOiBub3dyYXA7IGxpbmUtaGVpZ2h0OiAxLjU7IG1heC13aWR0aDogMTg4cHg7IHRleHQtYWxpZ246IGNlbnRlcjsiIHhtbG5zPSJodHRwOi8vd3d3LnczLm9yZy8xOTk5L3hodG1sIj48c3BhbiBzdHlsZT0iIiBjbGFzcz0ibm9kZUxhYmVsIG1hcmtkb3duLW5vZGUtbGFiZWwiPjxwPlBsYXRmb3JtSW50ZWdyYXRpb248L3A+PC9zcGFuPjwvZGl2PjwvZm9yZWlnbk9iamVjdD48L2c+PC9nPjxnIHRyYW5zZm9ybT0idHJhbnNsYXRlKC0yNjEuNDk2MDkzNzUsIC05NikiIGNsYXNzPSJtZW1iZXJzLWdyb3VwIHRleHQiPjxnIHRyYW5zZm9ybT0idHJhbnNsYXRlKDAsLTEyKSIgc3R5bGU9IiIgY2xhc3M9ImxhYmVsIj48Zm9yZWlnbk9iamVjdCBoZWlnaHQ9IjI0IiB3aWR0aD0iMjY2LjcwMzEyNSI+PGRpdiBzdHlsZT0iZGlzcGxheTogdGFibGUtY2VsbDsgd2hpdGUtc3BhY2U6IG5vd3JhcDsgbGluZS1oZWlnaHQ6IDEuNTsgbWF4LXdpZHRoOiAzMTZweDsgdGV4dC1hbGlnbjogY2VudGVyOyIgeG1sbnM9Imh0dHA6Ly93d3cudzMub3JnLzE5OTkveGh0bWwiPjxzcGFuIHN0eWxlPSIiIGNsYXNzPSJub2RlTGFiZWwgbWFya2Rvd24tbm9kZS1sYWJlbCI+PHA+LXBsYXRmb3JtRGV0ZWN0b3I6IFBsYXRmb3JtRGV0ZWN0b3I8L3A+PC9zcGFuPjwvZGl2PjwvZm9yZWlnbk9iamVjdD48L2c+PGcgdHJhbnNmb3JtPSJ0cmFuc2xhdGUoMCwxMikiIHN0eWxlPSIiIGNsYXNzPSJsYWJlbCI+PGZvcmVpZ25PYmplY3QgaGVpZ2h0PSIyNCIgd2lkdGg9IjI4Ny41Ij48ZGl2IHN0eWxlPSJkaXNwbGF5OiB0YWJsZS1jZWxsOyB3aGl0ZS1zcGFjZTogbm93cmFwOyBsaW5lLWhlaWdodDogMS41OyBtYXgtd2lkdGg6IDM0MnB4OyB0ZXh0LWFsaWduOiBjZW50ZXI7IiB4bWxucz0iaHR0cDovL3d3dy53My5vcmcvMTk5OS94aHRtbCI+PHNwYW4gc3R5bGU9IiIgY2xhc3M9Im5vZGVMYWJlbCBtYXJrZG93bi1ub2RlLWxhYmVsIj48cD4tZmlsZVN5c3RlbU1hbmFnZXI6IEZpbGVTeXN0ZW1NYW5hZ2VyPC9wPjwvc3Bhbj48L2Rpdj48L2ZvcmVpZ25PYmplY3Q+PC9nPjxnIHRyYW5zZm9ybT0idHJhbnNsYXRlKDAsMzYpIiBzdHlsZT0iIiBjbGFzcz0ibGFiZWwiPjxmb3JlaWduT2JqZWN0IGhlaWdodD0iMjQiIHdpZHRoPSIyNjcuODkwNjI1Ij48ZGl2IHN0eWxlPSJkaXNwbGF5OiB0YWJsZS1jZWxsOyB3aGl0ZS1zcGFjZTogbm93cmFwOyBsaW5lLWhlaWdodDogMS41OyBtYXgtd2lkdGg6IDMyMXB4OyB0ZXh0LWFsaWduOiBjZW50ZXI7IiB4bWxucz0iaHR0cDovL3d3dy53My5vcmcvMTk5OS94aHRtbCI+PHNwYW4gc3R5bGU9IiIgY2xhc3M9Im5vZGVMYWJlbCBtYXJrZG93bi1ub2RlLWxhYmVsIj48cD4tYXBwQ29udHJvbGxlcjogQXBwbGljYXRpb25Db250cm9sbGVyPC9wPjwvc3Bhbj48L2Rpdj48L2ZvcmVpZ25PYmplY3Q+PC9nPjxnIHRyYW5zZm9ybT0idHJhbnNsYXRlKDAsNjApIiBzdHlsZT0iIiBjbGFzcz0ibGFiZWwiPjxmb3JlaWduT2JqZWN0IGhlaWdodD0iMjQiIHdpZHRoPSIyNDcuMDc4MTI1Ij48ZGl2IHN0eWxlPSJkaXNwbGF5OiB0YWJsZS1jZWxsOyB3aGl0ZS1zcGFjZTogbm93cmFwOyBsaW5lLWhlaWdodDogMS41OyBtYXgtd2lkdGg6IDMwN3B4OyB0ZXh0LWFsaWduOiBjZW50ZXI7IiB4bWxucz0iaHR0cDovL3d3dy53My5vcmcvMTk5OS94aHRtbCI+PHNwYW4gc3R5bGU9IiIgY2xhc3M9Im5vZGVMYWJlbCBtYXJrZG93bi1ub2RlLWxhYmVsIj48cD4td2luZG93TWFuYWdlcjogV2luZG93TWFuYWdlcjwvcD48L3NwYW4+PC9kaXY+PC9mb3JlaWduT2JqZWN0PjwvZz48ZyB0cmFuc2Zvcm09InRyYW5zbGF0ZSgwLDg0KSIgc3R5bGU9IiIgY2xhc3M9ImxhYmVsIj48Zm9yZWlnbk9iamVjdCBoZWlnaHQ9IjI0IiB3aWR0aD0iMjMwLjAzMTI1Ij48ZGl2IHN0eWxlPSJkaXNwbGF5OiB0YWJsZS1jZWxsOyB3aGl0ZS1zcGFjZTogbm93cmFwOyBsaW5lLWhlaWdodDogMS41OyBtYXgtd2lkdGg6IDI4N3B4OyB0ZXh0LWFsaWduOiBjZW50ZXI7IiB4bWxucz0iaHR0cDovL3d3dy53My5vcmcvMTk5OS94aHRtbCI+PHNwYW4gc3R5bGU9IiIgY2xhc3M9Im5vZGVMYWJlbCBtYXJrZG93bi1ub2RlLWxhYmVsIj48cD4tc3lzdGVtU2V0dGluZ3M6IFN5c3RlbVNldHRpbmdzPC9wPjwvc3Bhbj48L2Rpdj48L2ZvcmVpZ25PYmplY3Q+PC9nPjwvZz48ZyB0cmFuc2Zvcm09InRyYW5zbGF0ZSgtMjYxLjQ5NjA5Mzc1LCA0OCkiIGNsYXNzPSJtZXRob2RzLWdyb3VwIHRleHQiPjxnIHRyYW5zZm9ybT0idHJhbnNsYXRlKDAsLTEyKSIgc3R5bGU9IiIgY2xhc3M9ImxhYmVsIj48Zm9yZWlnbk9iamVjdCBoZWlnaHQ9IjI0IiB3aWR0aD0iMjYwLjE4NzUiPjxkaXYgc3R5bGU9ImRpc3BsYXk6IHRhYmxlLWNlbGw7IHdoaXRlLXNwYWNlOiBub3dyYXA7IGxpbmUtaGVpZ2h0OiAxLjU7IG1heC13aWR0aDogMzA0cHg7IHRleHQtYWxpZ246IGNlbnRlcjsiIHhtbG5zPSJodHRwOi8vd3d3LnczLm9yZy8xOTk5L3hodG1sIj48c3BhbiBzdHlsZT0iIiBjbGFzcz0ibm9kZUxhYmVsIG1hcmtkb3duLW5vZGUtbGFiZWwiPjxwPitnZXRQbGF0Zm9ybVR5cGUoKSA6IDogUGxhdGZvcm1UeXBlPC9wPjwvc3Bhbj48L2Rpdj48L2ZvcmVpZ25PYmplY3Q+PC9nPjxnIHRyYW5zZm9ybT0idHJhbnNsYXRlKDAsMTIpIiBzdHlsZT0iIiBjbGFzcz0ibGFiZWwiPjxmb3JlaWduT2JqZWN0IGhlaWdodD0iMjQiIHdpZHRoPSIzMjMuODc1Ij48ZGl2IHN0eWxlPSJkaXNwbGF5OiB0YWJsZS1jZWxsOyB3aGl0ZS1zcGFjZTogbm93cmFwOyBsaW5lLWhlaWdodDogMS41OyBtYXgtd2lkdGg6IDM2NHB4OyB0ZXh0LWFsaWduOiBjZW50ZXI7IiB4bWxucz0iaHR0cDovL3d3dy53My5vcmcvMTk5OS94aHRtbCI+PHNwYW4gc3R5bGU9IiIgY2xhc3M9Im5vZGVMYWJlbCBtYXJrZG93bi1ub2RlLWxhYmVsIj48cD4rYWNjZXNzRmlsZVN5c3RlbShwYXRoOiBTdHJpbmcpIDogOiBGaWxlUmVzdWx0PC9wPjwvc3Bhbj48L2Rpdj48L2ZvcmVpZ25PYmplY3Q+PC9nPjxnIHRyYW5zZm9ybT0idHJhbnNsYXRlKDAsMzYpIiBzdHlsZT0iIiBjbGFzcz0ibGFiZWwiPjxmb3JlaWduT2JqZWN0IGhlaWdodD0iMjQiIHdpZHRoPSI0NDkuNzUiPjxkaXYgc3R5bGU9ImRpc3BsYXk6IHRhYmxlLWNlbGw7IHdoaXRlLXNwYWNlOiBub3dyYXA7IGxpbmUtaGVpZ2h0OiAxLjU7IG1heC13aWR0aDogNDg2cHg7IHRleHQtYWxpZ246IGNlbnRlcjsiIHhtbG5zPSJodHRwOi8vd3d3LnczLm9yZy8xOTk5L3hodG1sIj48c3BhbiBzdHlsZT0iIiBjbGFzcz0ibm9kZUxhYmVsIG1hcmtkb3duLW5vZGUtbGFiZWwiPjxwPitsYXVuY2hBcHBsaWNhdGlvbihhcHA6IFN0cmluZywgcGFyYW1zOiBTdHJpbmdbXSkgOiA6IEFwcFJlc3VsdDwvcD48L3NwYW4+PC9kaXY+PC9mb3JlaWduT2JqZWN0PjwvZz48ZyB0cmFuc2Zvcm09InRyYW5zbGF0ZSgwLDYwKSIgc3R5bGU9IiIgY2xhc3M9ImxhYmVsIj48Zm9yZWlnbk9iamVjdCBoZWlnaHQ9IjI0IiB3aWR0aD0iNDE1LjI2NTYyNSI+PGRpdiBzdHlsZT0iZGlzcGxheTogdGFibGUtY2VsbDsgd2hpdGUtc3BhY2U6IG5vd3JhcDsgbGluZS1oZWlnaHQ6IDEuNTsgbWF4LXdpZHRoOiA0NTdweDsgdGV4dC1hbGlnbjogY2VudGVyOyIgeG1sbnM9Imh0dHA6Ly93d3cudzMub3JnLzE5OTkveGh0bWwiPjxzcGFuIHN0eWxlPSIiIGNsYXNzPSJub2RlTGFiZWwgbWFya2Rvd24tbm9kZS1sYWJlbCI+PHA+K21hbmFnZVdpbmRvdyh3aW5kb3c6IFdpbmRvdywgYWN0aW9uOiBTdHJpbmcpIDogOiB2b2lkPC9wPjwvc3Bhbj48L2Rpdj48L2ZvcmVpZ25PYmplY3Q+PC9nPjxnIHRyYW5zZm9ybT0idHJhbnNsYXRlKDAsODQpIiBzdHlsZT0iIiBjbGFzcz0ibGFiZWwiPjxmb3JlaWduT2JqZWN0IGhlaWdodD0iMjQiIHdpZHRoPSI0MTIuNjQwNjI1Ij48ZGl2IHN0eWxlPSJkaXNwbGF5OiB0YWJsZS1jZWxsOyB3aGl0ZS1zcGFjZTogbm93cmFwOyBsaW5lLWhlaWdodDogMS41OyBtYXgtd2lkdGg6IDQ0OXB4OyB0ZXh0LWFsaWduOiBjZW50ZXI7IiB4bWxucz0iaHR0cDovL3d3dy53My5vcmcvMTk5OS94aHRtbCI+PHNwYW4gc3R5bGU9IiIgY2xhc3M9Im5vZGVMYWJlbCBtYXJrZG93bi1ub2RlLWxhYmVsIj48cD4rbW9kaWZ5U3lzdGVtU2V0dGluZyhzZXR0aW5nOiBTdHJpbmcsIHZhbHVlOiBhbnkpIDogOiB2b2lkPC9wPjwvc3Bhbj48L2Rpdj48L2ZvcmVpZ25PYmplY3Q+PC9nPjwvZz48ZyBzdHlsZT0iIiBjbGFzcz0iZGl2aWRlciI+PHBhdGggc3R5bGU9IiIgZmlsbD0ibm9uZSIgc3Ryb2tlLXdpZHRoPSIxLjMiIHN0cm9rZT0iI2NjYyIgZD0iTS0yNzMuNDk2MDkzNzUgLTEyMCBDLTEwMy44MzYyNjY2OTcyOTc5OSAtMTIwLCA2NS44MjM1NjAzNTU0MDQwMyAtMTIwLCAyNzMuNDk2MDkzNzUgLTEyMCBNLTI3My40OTYwOTM3NSAtMTIwIEMtOTUuOTk2NTg5Njc0MTU3MjQgLTEyMCwgODEuNTAyOTE0NDAxNjg1NTMgLTEyMCwgMjczLjQ5NjA5Mzc1IC0xMjAiPjwvcGF0aD48L2c+PGcgc3R5bGU9IiIgY2xhc3M9ImRpdmlkZXIiPjxwYXRoIHN0eWxlPSIiIGZpbGw9Im5vbmUiIHN0cm9rZS13aWR0aD0iMS4zIiBzdHJva2U9IiNjY2MiIGQ9Ik0tMjczLjQ5NjA5Mzc1IDI0IEMtMTUzLjM2MTM1MzI5MzI1MTQzIDI0LCAtMzMuMjI2NjEyODM2NTAyODUgMjQsIDI3My40OTYwOTM3NSAyNCBNLTI3My40OTYwOTM3NSAyNCBDLTEzNy45NTQyNTQxMjIxMTA0IDI0LCAtMi40MTI0MTQ0OTQyMjA3OTc3IDI0LCAyNzMuNDk2MDkzNzUgMjQiPjwvcGF0aD48L2c+PC9nPjxnIHRyYW5zZm9ybT0idHJhbnNsYXRlKDc4Mi45NjA5Mzc1LCAxNDApIiBpZD0iY2xhc3NJZC1QbGF0Zm9ybUZhY3RvcnktNDgiIGNsYXNzPSJub2RlIGRlZmF1bHQiPjxnIGNsYXNzPSJiYXNpYyBsYWJlbC1jb250YWluZXIiPjxwYXRoIHN0eWxlPSIiIGZpbGw9IiMxZjIwMjAiIHN0cm9rZS13aWR0aD0iMCIgc3Ryb2tlPSJub25lIiBkPSJNLTMxNC4yNjk1MzEyNSAtNzUgTDMxNC4yNjk1MzEyNSAtNzUgTDMxNC4yNjk1MzEyNSA3NSBMLTMxNC4yNjk1MzEyNSA3NSI+PC9wYXRoPjxwYXRoIHN0eWxlPSIiIGZpbGw9Im5vbmUiIHN0cm9rZS13aWR0aD0iMS4zIiBzdHJva2U9IiNjY2MiIGQ9Ik0tMzE0LjI2OTUzMTI1IC03NSBDLTE1Ni44MjE2OTQ2MTc0MzcyIC03NSwgMC42MjYxNDIwMTUxMjU1OTQ4IC03NSwgMzE0LjI2OTUzMTI1IC03NSBNLTMxNC4yNjk1MzEyNSAtNzUgQy04OC4xNDA2OTk4MjQ1NzE3NSAtNzUsIDEzNy45ODgxMzE2MDA4NTY1IC03NSwgMzE0LjI2OTUzMTI1IC03NSBNMzE0LjI2OTUzMTI1IC03NSBDMzE0LjI2OTUzMTI1IC0yMy41MDc5MzA4MTY5NTgwMjMsIDMxNC4yNjk1MzEyNSAyNy45ODQxMzgzNjYwODM5NTQsIDMxNC4yNjk1MzEyNSA3NSBNMzE0LjI2OTUzMTI1IC03NSBDMzE0LjI2OTUzMTI1IC0xNy42MzIwMDc1MzYyMjUwODIsIDMxNC4yNjk1MzEyNSAzOS43MzU5ODQ5Mjc1NDk4MzYsIDMxNC4yNjk1MzEyNSA3NSBNMzE0LjI2OTUzMTI1IDc1IEMxNTQuODAzODY1ODI3NTU4OTUgNzUsIC00LjY2MTc5OTU5NDg4MjA5OCA3NSwgLTMxNC4yNjk1MzEyNSA3NSBNMzE0LjI2OTUzMTI1IDc1IEM5NC4wMDk5NjMxNDAyNjQwMyA3NSwgLTEyNi4yNDk2MDQ5Njk0NzE5MyA3NSwgLTMxNC4yNjk1MzEyNSA3NSBNLTMxNC4yNjk1MzEyNSA3NSBDLTMxNC4yNjk1MzEyNSAyMS44NTc0NDQ5NTUzMTE1LCAtMzE0LjI2OTUzMTI1IC0zMS4yODUxMTAwODkzNzcsIC0zMTQuMjY5NTMxMjUgLTc1IE0tMzE0LjI2OTUzMTI1IDc1IEMtMzE0LjI2OTUzMTI1IDI3LjkxNDUwODg2NzY2ODk1LCAtMzE0LjI2OTUzMTI1IC0xOS4xNzA5ODIyNjQ2NjIxLCAtMzE0LjI2OTUzMTI1IC03NSI+PC9wYXRoPjwvZz48ZyB0cmFuc2Zvcm09InRyYW5zbGF0ZSgwLCAtNTEpIiBjbGFzcz0iYW5ub3RhdGlvbi1ncm91cCB0ZXh0Ij48L2c+PGcgdHJhbnNmb3JtPSJ0cmFuc2xhdGUoLTYwLjMwNDY4NzUsIC01MSkiIGNsYXNzPSJsYWJlbC1ncm91cCB0ZXh0Ij48ZyB0cmFuc2Zvcm09InRyYW5zbGF0ZSgwLC0xMikiIHN0eWxlPSJmb250LXdlaWdodDogYm9sZGVyIiBjbGFzcz0ibGFiZWwiPjxmb3JlaWduT2JqZWN0IGhlaWdodD0iMjQiIHdpZHRoPSIxMjAuNjA5Mzc1Ij48ZGl2IHN0eWxlPSJkaXNwbGF5OiB0YWJsZS1jZWxsOyB3aGl0ZS1zcGFjZTogbm93cmFwOyBsaW5lLWhlaWdodDogMS41OyBtYXgtd2lkdGg6IDE2MnB4OyB0ZXh0LWFsaWduOiBjZW50ZXI7IiB4bWxucz0iaHR0cDovL3d3dy53My5vcmcvMTk5OS94aHRtbCI+PHNwYW4gc3R5bGU9IiIgY2xhc3M9Im5vZGVMYWJlbCBtYXJrZG93bi1ub2RlLWxhYmVsIj48cD5QbGF0Zm9ybUZhY3Rvcnk8L3A+PC9zcGFuPjwvZGl2PjwvZm9yZWlnbk9iamVjdD48L2c+PC9nPjxnIHRyYW5zZm9ybT0idHJhbnNsYXRlKC0zMDIuMjY5NTMxMjUsIC0zKSIgY2xhc3M9Im1lbWJlcnMtZ3JvdXAgdGV4dCI+PC9nPjxnIHRyYW5zZm9ybT0idHJhbnNsYXRlKC0zMDIuMjY5NTMxMjUsIDI3KSIgY2xhc3M9Im1ldGhvZHMtZ3JvdXAgdGV4dCI+PGcgdHJhbnNmb3JtPSJ0cmFuc2xhdGUoMCwtMTIpIiBzdHlsZT0iIiBjbGFzcz0ibGFiZWwiPjxmb3JlaWduT2JqZWN0IGhlaWdodD0iMjQiIHdpZHRoPSI1NDQuMjM0Mzc1Ij48ZGl2IHN0eWxlPSJkaXNwbGF5OiB0YWJsZS1jZWxsOyB3aGl0ZS1zcGFjZTogbm93cmFwOyBsaW5lLWhlaWdodDogMS41OyBtYXgtd2lkdGg6IDU3NXB4OyB0ZXh0LWFsaWduOiBjZW50ZXI7IiB4bWxucz0iaHR0cDovL3d3dy53My5vcmcvMTk5OS94aHRtbCI+PHNwYW4gc3R5bGU9IiIgY2xhc3M9Im5vZGVMYWJlbCBtYXJrZG93bi1ub2RlLWxhYmVsIj48cD4rY3JlYXRlUGxhdGZvcm1JbnRlZ3JhdGlvbihwbGF0Zm9ybTogUGxhdGZvcm1UeXBlKSA6IDogUGxhdGZvcm1JbnRlZ3JhdGlvbjwvcD48L3NwYW4+PC9kaXY+PC9mb3JlaWduT2JqZWN0PjwvZz48ZyB0cmFuc2Zvcm09InRyYW5zbGF0ZSgwLDEyKSIgc3R5bGU9IiIgY2xhc3M9ImxhYmVsIj48Zm9yZWlnbk9iamVjdCBoZWlnaHQ9IjI0IiB3aWR0aD0iMzA1LjY1NjI1Ij48ZGl2IHN0eWxlPSJkaXNwbGF5OiB0YWJsZS1jZWxsOyB3aGl0ZS1zcGFjZTogbm93cmFwOyBsaW5lLWhlaWdodDogMS41OyBtYXgtd2lkdGg6IDM0OHB4OyB0ZXh0LWFsaWduOiBjZW50ZXI7IiB4bWxucz0iaHR0cDovL3d3dy53My5vcmcvMTk5OS94aHRtbCI+PHNwYW4gc3R5bGU9IiIgY2xhc3M9Im5vZGVMYWJlbCBtYXJrZG93bi1ub2RlLWxhYmVsIj48cD4rZGV0ZWN0Q3VycmVudFBsYXRmb3JtKCkgOiA6IFBsYXRmb3JtVHlwZTwvcD48L3NwYW4+PC9kaXY+PC9mb3JlaWduT2JqZWN0PjwvZz48L2c+PGcgc3R5bGU9IiIgY2xhc3M9ImRpdmlkZXIiPjxwYXRoIHN0eWxlPSIiIGZpbGw9Im5vbmUiIHN0cm9rZS13aWR0aD0iMS4zIiBzdHJva2U9IiNjY2MiIGQ9Ik0tMzE0LjI2OTUzMTI1IC0yNyBDLTgwLjc0NDE5MjAxNjQyOTgyIC0yNywgMTUyLjc4MTE0NzIxNzE0MDM2IC0yNywgMzE0LjI2OTUzMTI1IC0yNyBNLTMxNC4yNjk1MzEyNSAtMjcgQy0xNTcuNzI3NTIzNTI4MTgyNjcgLTI3LCAtMS4xODU1MTU4MDYzNjUzNDQ4IC0yNywgMzE0LjI2OTUzMTI1IC0yNyI+PC9wYXRoPjwvZz48ZyBzdHlsZT0iIiBjbGFzcz0iZGl2aWRlciI+PHBhdGggc3R5bGU9IiIgZmlsbD0ibm9uZSIgc3Ryb2tlLXdpZHRoPSIxLjMiIHN0cm9rZT0iI2NjYyIgZD0iTS0zMTQuMjY5NTMxMjUgLTMgQy0xNjAuNjk4MTQyNzU4NDUxNzUgLTMsIC03LjEyNjc1NDI2NjkwMzUwNCAtMywgMzE0LjI2OTUzMTI1IC0zIE0tMzE0LjI2OTUzMTI1IC0zIEMtNzcuNjg0MDYzNzE0NzgxMTYgLTMsIDE1OC45MDE0MDM4MjA0Mzc2OCAtMywgMzE0LjI2OTUzMTI1IC0zIj48L3BhdGg+PC9nPjwvZz48ZyB0cmFuc2Zvcm09InRyYW5zbGF0ZSg2ODIuOTE3OTY4NzUsIDg1NCkiIGlkPSJjbGFzc0lkLVdpbmRvd3NQbGF0Zm9ybUludGVncmF0aW9uLTQ5IiBjbGFzcz0ibm9kZSBkZWZhdWx0Ij48ZyBjbGFzcz0iYmFzaWMgbGFiZWwtY29udGFpbmVyIj48cGF0aCBzdHlsZT0iIiBmaWxsPSIjMWYyMDIwIiBzdHJva2Utd2lkdGg9IjAiIHN0cm9rZT0ibm9uZSIgZD0iTS0yOTAuMDI3MzQzNzUgLTk5IEwyOTAuMDI3MzQzNzUgLTk5IEwyOTAuMDI3MzQzNzUgOTkgTC0yOTAuMDI3MzQzNzUgOTkiPjwvcGF0aD48cGF0aCBzdHlsZT0iIiBmaWxsPSJub25lIiBzdHJva2Utd2lkdGg9IjEuMyIgc3Ryb2tlPSIjY2NjIiBkPSJNLTI5MC4wMjczNDM3NSAtOTkgQy0xNDUuNzYxMDkxMzAyNzM0OTQgLTk5LCAtMS40OTQ4Mzg4NTU0Njk4Nzk1IC05OSwgMjkwLjAyNzM0Mzc1IC05OSBNLTI5MC4wMjczNDM3NSAtOTkgQy0xMDIuMzU3NDI1MzAxNDAxNCAtOTksIDg1LjMxMjQ5MzE0NzE5NzE5IC05OSwgMjkwLjAyNzM0Mzc1IC05OSBNMjkwLjAyNzM0Mzc1IC05OSBDMjkwLjAyNzM0Mzc1IC01Ni4zODM4NTkxMTMxODEzNjYsIDI5MC4wMjczNDM3NSAtMTMuNzY3NzE4MjI2MzYyNzMyLCAyOTAuMDI3MzQzNzUgOTkgTTI5MC4wMjczNDM3NSAtOTkgQzI5MC4wMjczNDM3NSAtMzcuNzU3MzE0ODYxMzU0MzEsIDI5MC4wMjczNDM3NSAyMy40ODUzNzAyNzcyOTEzOCwgMjkwLjAyNzM0Mzc1IDk5IE0yOTAuMDI3MzQzNzUgOTkgQzE2OS4wMDE2MTk3ODMwNTI0IDk5LCA0Ny45NzU4OTU4MTYxMDQ4MSA5OSwgLTI5MC4wMjczNDM3NSA5OSBNMjkwLjAyNzM0Mzc1IDk5IEMxMjUuNTcyNzk4NjcyNDk0ODggOTksIC0zOC44ODE3NDY0MDUwMTAyMyA5OSwgLTI5MC4wMjczNDM3NSA5OSBNLTI5MC4wMjczNDM3NSA5OSBDLTI5MC4wMjczNDM3NSAyMC4zMDQ0MjMxNzMxMTI4OCwgLTI5MC4wMjczNDM3NSAtNTguMzkxMTUzNjUzNzc0MjQsIC0yOTAuMDI3MzQzNzUgLTk5IE0tMjkwLjAyNzM0Mzc1IDk5IEMtMjkwLjAyNzM0Mzc1IDMxLjAzMDk5MzU5OTUzOTA3MywgLTI5MC4wMjczNDM3NSAtMzYuOTM4MDEyODAwOTIxODU0LCAtMjkwLjAyNzM0Mzc1IC05OSI+PC9wYXRoPjwvZz48ZyB0cmFuc2Zvcm09InRyYW5zbGF0ZSgwLCAtNzUpIiBjbGFzcz0iYW5ub3RhdGlvbi1ncm91cCB0ZXh0Ij48L2c+PGcgdHJhbnNmb3JtPSJ0cmFuc2xhdGUoLTEwNi4zMDQ2ODc1LCAtNzUpIiBjbGFzcz0ibGFiZWwtZ3JvdXAgdGV4dCI+PGcgdHJhbnNmb3JtPSJ0cmFuc2xhdGUoMCwtMTIpIiBzdHlsZT0iZm9udC13ZWlnaHQ6IGJvbGRlciIgY2xhc3M9ImxhYmVsIj48Zm9yZWlnbk9iamVjdCBoZWlnaHQ9IjI0IiB3aWR0aD0iMjEyLjYwOTM3NSI+PGRpdiBzdHlsZT0iZGlzcGxheTogdGFibGUtY2VsbDsgd2hpdGUtc3BhY2U6IG5vd3JhcDsgbGluZS1oZWlnaHQ6IDEuNTsgbWF4LXdpZHRoOiAyNTJweDsgdGV4dC1hbGlnbjogY2VudGVyOyIgeG1sbnM9Imh0dHA6Ly93d3cudzMub3JnLzE5OTkveGh0bWwiPjxzcGFuIHN0eWxlPSIiIGNsYXNzPSJub2RlTGFiZWwgbWFya2Rvd24tbm9kZS1sYWJlbCI+PHA+V2luZG93c1BsYXRmb3JtSW50ZWdyYXRpb248L3A+PC9zcGFuPjwvZGl2PjwvZm9yZWlnbk9iamVjdD48L2c+PC9nPjxnIHRyYW5zZm9ybT0idHJhbnNsYXRlKC0yNzguMDI3MzQzNzUsIC0yNykiIGNsYXNzPSJtZW1iZXJzLWdyb3VwIHRleHQiPjwvZz48ZyB0cmFuc2Zvcm09InRyYW5zbGF0ZSgtMjc4LjAyNzM0Mzc1LCAzKSIgY2xhc3M9Im1ldGhvZHMtZ3JvdXAgdGV4dCI+PGcgdHJhbnNmb3JtPSJ0cmFuc2xhdGUoMCwtMTIpIiBzdHlsZT0iIiBjbGFzcz0ibGFiZWwiPjxmb3JlaWduT2JqZWN0IGhlaWdodD0iMjQiIHdpZHRoPSIzMjMuODc1Ij48ZGl2IHN0eWxlPSJkaXNwbGF5OiB0YWJsZS1jZWxsOyB3aGl0ZS1zcGFjZTogbm93cmFwOyBsaW5lLWhlaWdodDogMS41OyBtYXgtd2lkdGg6IDM2NHB4OyB0ZXh0LWFsaWduOiBjZW50ZXI7IiB4bWxucz0iaHR0cDovL3d3dy53My5vcmcvMTk5OS94aHRtbCI+PHNwYW4gc3R5bGU9IiIgY2xhc3M9Im5vZGVMYWJlbCBtYXJrZG93bi1ub2RlLWxhYmVsIj48cD4rYWNjZXNzRmlsZVN5c3RlbShwYXRoOiBTdHJpbmcpIDogOiBGaWxlUmVzdWx0PC9wPjwvc3Bhbj48L2Rpdj48L2ZvcmVpZ25PYmplY3Q+PC9nPjxnIHRyYW5zZm9ybT0idHJhbnNsYXRlKDAsMTIpIiBzdHlsZT0iIiBjbGFzcz0ibGFiZWwiPjxmb3JlaWduT2JqZWN0IGhlaWdodD0iMjQiIHdpZHRoPSI0NDkuNzUiPjxkaXYgc3R5bGU9ImRpc3BsYXk6IHRhYmxlLWNlbGw7IHdoaXRlLXNwYWNlOiBub3dyYXA7IGxpbmUtaGVpZ2h0OiAxLjU7IG1heC13aWR0aDogNDg2cHg7IHRleHQtYWxpZ246IGNlbnRlcjsiIHhtbG5zPSJodHRwOi8vd3d3LnczLm9yZy8xOTk5L3hodG1sIj48c3BhbiBzdHlsZT0iIiBjbGFzcz0ibm9kZUxhYmVsIG1hcmtkb3duLW5vZGUtbGFiZWwiPjxwPitsYXVuY2hBcHBsaWNhdGlvbihhcHA6IFN0cmluZywgcGFyYW1zOiBTdHJpbmdbXSkgOiA6IEFwcFJlc3VsdDwvcD48L3NwYW4+PC9kaXY+PC9mb3JlaWduT2JqZWN0PjwvZz48ZyB0cmFuc2Zvcm09InRyYW5zbGF0ZSgwLDM2KSIgc3R5bGU9IiIgY2xhc3M9ImxhYmVsIj48Zm9yZWlnbk9iamVjdCBoZWlnaHQ9IjI0IiB3aWR0aD0iNDE1LjI2NTYyNSI+PGRpdiBzdHlsZT0iZGlzcGxheTogdGFibGUtY2VsbDsgd2hpdGUtc3BhY2U6IG5vd3JhcDsgbGluZS1oZWlnaHQ6IDEuNTsgbWF4LXdpZHRoOiA0NTdweDsgdGV4dC1hbGlnbjogY2VudGVyOyIgeG1sbnM9Imh0dHA6Ly93d3cudzMub3JnLzE5OTkveGh0bWwiPjxzcGFuIHN0eWxlPSIiIGNsYXNzPSJub2RlTGFiZWwgbWFya2Rvd24tbm9kZS1sYWJlbCI+PHA+K21hbmFnZVdpbmRvdyh3aW5kb3c6IFdpbmRvdywgYWN0aW9uOiBTdHJpbmcpIDogOiB2b2lkPC9wPjwvc3Bhbj48L2Rpdj48L2ZvcmVpZ25PYmplY3Q+PC9nPjxnIHRyYW5zZm9ybT0idHJhbnNsYXRlKDAsNjApIiBzdHlsZT0iIiBjbGFzcz0ibGFiZWwiPjxmb3JlaWduT2JqZWN0IGhlaWdodD0iMjQiIHdpZHRoPSI0MTIuNjQwNjI1Ij48ZGl2IHN0eWxlPSJkaXNwbGF5OiB0YWJsZS1jZWxsOyB3aGl0ZS1zcGFjZTogbm93cmFwOyBsaW5lLWhlaWdodDogMS41OyBtYXgtd2lkdGg6IDQ0OXB4OyB0ZXh0LWFsaWduOiBjZW50ZXI7IiB4bWxucz0iaHR0cDovL3d3dy53My5vcmcvMTk5OS94aHRtbCI+PHNwYW4gc3R5bGU9IiIgY2xhc3M9Im5vZGVMYWJlbCBtYXJrZG93bi1ub2RlLWxhYmVsIj48cD4rbW9kaWZ5U3lzdGVtU2V0dGluZyhzZXR0aW5nOiBTdHJpbmcsIHZhbHVlOiBhbnkpIDogOiB2b2lkPC9wPjwvc3Bhbj48L2Rpdj48L2ZvcmVpZ25PYmplY3Q+PC9nPjwvZz48ZyBzdHlsZT0iIiBjbGFzcz0iZGl2aWRlciI+PHBhdGggc3R5bGU9IiIgZmlsbD0ibm9uZSIgc3Ryb2tlLXdpZHRoPSIxLjMiIHN0cm9rZT0iI2NjYyIgZD0iTS0yOTAuMDI3MzQzNzUgLTUxIEMtNjguNzY0MDY0MTE4MjgyNzYgLTUxLCAxNTIuNDk5MjE1NTEzNDM0NDggLTUxLCAyOTAuMDI3MzQzNzUgLTUxIE0tMjkwLjAyNzM0Mzc1IC01MSBDLTc0LjQ2Mzg3NzM1MTg1NTE5IC01MSwgMTQxLjA5OTU4OTA0NjI4OTYyIC01MSwgMjkwLjAyNzM0Mzc1IC01MSI+PC9wYXRoPjwvZz48ZyBzdHlsZT0iIiBjbGFzcz0iZGl2aWRlciI+PHBhdGggc3R5bGU9IiIgZmlsbD0ibm9uZSIgc3Ryb2tlLXdpZHRoPSIxLjMiIHN0cm9rZT0iI2NjYyIgZD0iTS0yOTAuMDI3MzQzNzUgLTI3IEMtMTYwLjM1OTI4NDY3NjkxNDcgLTI3LCAtMzAuNjkxMjI1NjAzODI5NDIzIC0yNywgMjkwLjAyNzM0Mzc1IC0yNyBNLTI5MC4wMjczNDM3NSAtMjcgQy03Ni4xMTY5MDcyMDg5NTAxIC0yNywgMTM3Ljc5MzUyOTMzMjA5OTggLTI3LCAyOTAuMDI3MzQzNzUgLTI3Ij48L3BhdGg+PC9nPjwvZz48ZyB0cmFuc2Zvcm09InRyYW5zbGF0ZSgxMzA4LjQ1NzAzMTI1LCA4NTQpIiBpZD0iY2xhc3NJZC1NYWNPU1BsYXRmb3JtSW50ZWdyYXRpb24tNTAiIGNsYXNzPSJub2RlIGRlZmF1bHQiPjxnIGNsYXNzPSJiYXNpYyBsYWJlbC1jb250YWluZXIiPjxwYXRoIHN0eWxlPSIiIGZpbGw9IiMxZjIwMjAiIHN0cm9rZS13aWR0aD0iMCIgc3Ryb2tlPSJub25lIiBkPSJNLTI4NS41MTE3MTg3NSAtOTkgTDI4NS41MTE3MTg3NSAtOTkgTDI4NS41MTE3MTg3NSA5OSBMLTI4NS41MTE3MTg3NSA5OSI+PC9wYXRoPjxwYXRoIHN0eWxlPSIiIGZpbGw9Im5vbmUiIHN0cm9rZS13aWR0aD0iMS4zIiBzdHJva2U9IiNjY2MiIGQ9Ik0tMjg1LjUxMTcxODc1IC05OSBDLTE1OS43NTY1MjA5NDA5MzY3NSAtOTksIC0zNC4wMDEzMjMxMzE4NzM1MzQgLTk5LCAyODUuNTExNzE4NzUgLTk5IE0tMjg1LjUxMTcxODc1IC05OSBDLTE2MC4wMTAyNDY4MTQxMjY5NiAtOTksIC0zNC41MDg3NzQ4NzgyNTM5MiAtOTksIDI4NS41MTE3MTg3NSAtOTkgTTI4NS41MTE3MTg3NSAtOTkgQzI4NS41MTE3MTg3NSAtMzEuNjk5MjQyMTkwMDIxOTc3LCAyODUuNTExNzE4NzUgMzUuNjAxNTE1NjE5OTU2MDUsIDI4NS41MTE3MTg3NSA5OSBNMjg1LjUxMTcxODc1IC05OSBDMjg1LjUxMTcxODc1IC0zMC41MTQzOTAwMDc1MjgzOSwgMjg1LjUxMTcxODc1IDM3Ljk3MTIxOTk4NDk0MzIyLCAyODUuNTExNzE4NzUgOTkgTTI4NS41MTE3MTg3NSA5OSBDNjAuNDYxNTQwMDMxOTA2MTcgOTksIC0xNjQuNTg4NjM4Njg2MTg3NjYgOTksIC0yODUuNTExNzE4NzUgOTkgTTI4NS41MTE3MTg3NSA5OSBDMTM0LjgwNTYxMTIyMjEzNjYgOTksIC0xNS45MDA0OTYzMDU3MjY3OSA5OSwgLTI4NS41MTE3MTg3NSA5OSBNLTI4NS41MTE3MTg3NSA5OSBDLTI4NS41MTE3MTg3NSA1Ni4xNDM4NTk0ODUwNTc1MSwgLTI4NS41MTE3MTg3NSAxMy4yODc3MTg5NzAxMTUwMjMsIC0yODUuNTExNzE4NzUgLTk5IE0tMjg1LjUxMTcxODc1IDk5IEMtMjg1LjUxMTcxODc1IDIyLjg4NTM4MjEwNzkzMTM3OCwgLTI4NS41MTE3MTg3NSAtNTMuMjI5MjM1Nzg0MTM3MjQ1LCAtMjg1LjUxMTcxODc1IC05OSI+PC9wYXRoPjwvZz48ZyB0cmFuc2Zvcm09InRyYW5zbGF0ZSgwLCAtNzUpIiBjbGFzcz0iYW5ub3RhdGlvbi1ncm91cCB0ZXh0Ij48L2c+PGcgdHJhbnNmb3JtPSJ0cmFuc2xhdGUoLTk3LjI3MzQzNzUsIC03NSkiIGNsYXNzPSJsYWJlbC1ncm91cCB0ZXh0Ij48ZyB0cmFuc2Zvcm09InRyYW5zbGF0ZSgwLC0xMikiIHN0eWxlPSJmb250LXdlaWdodDogYm9sZGVyIiBjbGFzcz0ibGFiZWwiPjxmb3JlaWduT2JqZWN0IGhlaWdodD0iMjQiIHdpZHRoPSIxOTQuNTQ2ODc1Ij48ZGl2IHN0eWxlPSJkaXNwbGF5OiB0YWJsZS1jZWxsOyB3aGl0ZS1zcGFjZTogbm93cmFwOyBsaW5lLWhlaWdodDogMS41OyBtYXgtd2lkdGg6IDIzOXB4OyB0ZXh0LWFsaWduOiBjZW50ZXI7IiB4bWxucz0iaHR0cDovL3d3dy53My5vcmcvMTk5OS94aHRtbCI+PHNwYW4gc3R5bGU9IiIgY2xhc3M9Im5vZGVMYWJlbCBtYXJrZG93bi1ub2RlLWxhYmVsIj48cD5NYWNPU1BsYXRmb3JtSW50ZWdyYXRpb248L3A+PC9zcGFuPjwvZGl2PjwvZm9yZWlnbk9iamVjdD48L2c+PC9nPjxnIHRyYW5zZm9ybT0idHJhbnNsYXRlKC0yNzMuNTExNzE4NzUsIC0yNykiIGNsYXNzPSJtZW1iZXJzLWdyb3VwIHRleHQiPjwvZz48ZyB0cmFuc2Zvcm09InRyYW5zbGF0ZSgtMjczLjUxMTcxODc1LCAzKSIgY2xhc3M9Im1ldGhvZHMtZ3JvdXAgdGV4dCI+PGcgdHJhbnNmb3JtPSJ0cmFuc2xhdGUoMCwtMTIpIiBzdHlsZT0iIiBjbGFzcz0ibGFiZWwiPjxmb3JlaWduT2JqZWN0IGhlaWdodD0iMjQiIHdpZHRoPSIzMjMuODc1Ij48ZGl2IHN0eWxlPSJkaXNwbGF5OiB0YWJsZS1jZWxsOyB3aGl0ZS1zcGFjZTogbm93cmFwOyBsaW5lLWhlaWdodDogMS41OyBtYXgtd2lkdGg6IDM2NHB4OyB0ZXh0LWFsaWduOiBjZW50ZXI7IiB4bWxucz0iaHR0cDovL3d3dy53My5vcmcvMTk5OS94aHRtbCI+PHNwYW4gc3R5bGU9IiIgY2xhc3M9Im5vZGVMYWJlbCBtYXJrZG93bi1ub2RlLWxhYmVsIj48cD4rYWNjZXNzRmlsZVN5c3RlbShwYXRoOiBTdHJpbmcpIDogOiBGaWxlUmVzdWx0PC9wPjwvc3Bhbj48L2Rpdj48L2ZvcmVpZ25PYmplY3Q+PC9nPjxnIHRyYW5zZm9ybT0idHJhbnNsYXRlKDAsMTIpIiBzdHlsZT0iIiBjbGFzcz0ibGFiZWwiPjxmb3JlaWduT2JqZWN0IGhlaWdodD0iMjQiIHdpZHRoPSI0NDkuNzUiPjxkaXYgc3R5bGU9ImRpc3BsYXk6IHRhYmxlLWNlbGw7IHdoaXRlLXNwYWNlOiBub3dyYXA7IGxpbmUtaGVpZ2h0OiAxLjU7IG1heC13aWR0aDogNDg2cHg7IHRleHQtYWxpZ246IGNlbnRlcjsiIHhtbG5zPSJodHRwOi8vd3d3LnczLm9yZy8xOTk5L3hodG1sIj48c3BhbiBzdHlsZT0iIiBjbGFzcz0ibm9kZUxhYmVsIG1hcmtkb3duLW5vZGUtbGFiZWwiPjxwPitsYXVuY2hBcHBsaWNhdGlvbihhcHA6IFN0cmluZywgcGFyYW1zOiBTdHJpbmdbXSkgOiA6IEFwcFJlc3VsdDwvcD48L3NwYW4+PC9kaXY+PC9mb3JlaWduT2JqZWN0PjwvZz48ZyB0cmFuc2Zvcm09InRyYW5zbGF0ZSgwLDM2KSIgc3R5bGU9IiIgY2xhc3M9ImxhYmVsIj48Zm9yZWlnbk9iamVjdCBoZWlnaHQ9IjI0IiB3aWR0aD0iNDE1LjI2NTYyNSI+PGRpdiBzdHlsZT0iZGlzcGxheTogdGFibGUtY2VsbDsgd2hpdGUtc3BhY2U6IG5vd3JhcDsgbGluZS1oZWlnaHQ6IDEuNTsgbWF4LXdpZHRoOiA0NTdweDsgdGV4dC1hbGlnbjogY2VudGVyOyIgeG1sbnM9Imh0dHA6Ly93d3cudzMub3JnLzE5OTkveGh0bWwiPjxzcGFuIHN0eWxlPSIiIGNsYXNzPSJub2RlTGFiZWwgbWFya2Rvd24tbm9kZS1sYWJlbCI+PHA+K21hbmFnZVdpbmRvdyh3aW5kb3c6IFdpbmRvdywgYWN0aW9uOiBTdHJpbmcpIDogOiB2b2lkPC9wPjwvc3Bhbj48L2Rpdj48L2ZvcmVpZ25PYmplY3Q+PC9nPjxnIHRyYW5zZm9ybT0idHJhbnNsYXRlKDAsNjApIiBzdHlsZT0iIiBjbGFzcz0ibGFiZWwiPjxmb3JlaWduT2JqZWN0IGhlaWdodD0iMjQiIHdpZHRoPSI0MTIuNjQwNjI1Ij48ZGl2IHN0eWxlPSJkaXNwbGF5OiB0YWJsZS1jZWxsOyB3aGl0ZS1zcGFjZTogbm93cmFwOyBsaW5lLWhlaWdodDogMS41OyBtYXgtd2lkdGg6IDQ0OXB4OyB0ZXh0LWFsaWduOiBjZW50ZXI7IiB4bWxucz0iaHR0cDovL3d3dy53My5vcmcvMTk5OS94aHRtbCI+PHNwYW4gc3R5bGU9IiIgY2xhc3M9Im5vZGVMYWJlbCBtYXJrZG93bi1ub2RlLWxhYmVsIj48cD4rbW9kaWZ5U3lzdGVtU2V0dGluZyhzZXR0aW5nOiBTdHJpbmcsIHZhbHVlOiBhbnkpIDogOiB2b2lkPC9wPjwvc3Bhbj48L2Rpdj48L2ZvcmVpZ25PYmplY3Q+PC9nPjwvZz48ZyBzdHlsZT0iIiBjbGFzcz0iZGl2aWRlciI+PHBhdGggc3R5bGU9IiIgZmlsbD0ibm9uZSIgc3Ryb2tlLXdpZHRoPSIxLjMiIHN0cm9rZT0iI2NjYyIgZD0iTS0yODUuNTExNzE4NzUgLTUxIEMtODAuMDg5NjQxNTczMDE2OSAtNTEsIDEyNS4zMzI0MzU2MDM5NjYxOSAtNTEsIDI4NS41MTE3MTg3NSAtNTEgTS0yODUuNTExNzE4NzUgLTUxIEMtOTMuNzQxNTUwMTY2MjAxMDIgLTUxLCA5OC4wMjg2MTg0MTc1OTc5NSAtNTEsIDI4NS41MTE3MTg3NSAtNTEiPjwvcGF0aD48L2c+PGcgc3R5bGU9IiIgY2xhc3M9ImRpdmlkZXIiPjxwYXRoIHN0eWxlPSIiIGZpbGw9Im5vbmUiIHN0cm9rZS13aWR0aD0iMS4zIiBzdHJva2U9IiNjY2MiIGQ9Ik0tMjg1LjUxMTcxODc1IC0yNyBDLTg4LjY5MDUyODI5NTAxNzQzIC0yNywgMTA4LjEzMDY2MjE1OTk2NTE0IC0yNywgMjg1LjUxMTcxODc1IC0yNyBNLTI4NS41MTE3MTg3NSAtMjcgQy02MS4wMDg5MDI5Njk2ODE2MyAtMjcsIDE2My40OTM5MTI4MTA2MzY3NCAtMjcsIDI4NS41MTE3MTg3NSAtMjciPjwvcGF0aD48L2c+PC9nPjxnIHRyYW5zZm9ybT0idHJhbnNsYXRlKDE5MjcuODAwNzgxMjUsIDg1NCkiIGlkPSJjbGFzc0lkLUxpbnV4UGxhdGZvcm1JbnRlZ3JhdGlvbi01MSIgY2xhc3M9Im5vZGUgZGVmYXVsdCI+PGcgY2xhc3M9ImJhc2ljIGxhYmVsLWNvbnRhaW5lciI+PHBhdGggc3R5bGU9IiIgZmlsbD0iIzFmMjAyMCIgc3Ryb2tlLXdpZHRoPSIwIiBzdHJva2U9Im5vbmUiIGQ9Ik0tMjgzLjgzMjAzMTI1IC05OSBMMjgzLjgzMjAzMTI1IC05OSBMMjgzLjgzMjAzMTI1IDk5IEwtMjgzLjgzMjAzMTI1IDk5Ij48L3BhdGg+PHBhdGggc3R5bGU9IiIgZmlsbD0ibm9uZSIgc3Ryb2tlLXdpZHRoPSIxLjMiIHN0cm9rZT0iI2NjYyIgZD0iTS0yODMuODMyMDMxMjUgLTk5IEMtNjEuOTgyOTA0MTIwODA0MTEgLTk5LCAxNTkuODY2MjIzMDA4MzkxNzggLTk5LCAyODMuODMyMDMxMjUgLTk5IE0tMjgzLjgzMjAzMTI1IC05OSBDLTU4LjY0NDYxMDkyMTcxMTQ2IC05OSwgMTY2LjU0MjgwOTQwNjU3NzA4IC05OSwgMjgzLjgzMjAzMTI1IC05OSBNMjgzLjgzMjAzMTI1IC05OSBDMjgzLjgzMjAzMTI1IC0yOC4wODkwNjQ3ODcxNTY3NTgsIDI4My44MzIwMzEyNSA0Mi44MjE4NzA0MjU2ODY0ODQsIDI4My44MzIwMzEyNSA5OSBNMjgzLjgzMjAzMTI1IC05OSBDMjgzLjgzMjAzMTI1IC01MS4xODgwMjk4MjQ4MDYwMTYsIDI4My44MzIwMzEyNSAtMy4zNzYwNTk2NDk2MTIwMzE0LCAyODMuODMyMDMxMjUgOTkgTTI4My44MzIwMzEyNSA5OSBDNzcuMzY1MDY1OTY0OTUzMjkgOTksIC0xMjkuMTAxODk5MzIwMDkzNDIgOTksIC0yODMuODMyMDMxMjUgOTkgTTI4My44MzIwMzEyNSA5OSBDODQuODMxMTIwNzY4MTI5ODYgOTksIC0xMTQuMTY5Nzg5NzEzNzQwMjcgOTksIC0yODMuODMyMDMxMjUgOTkgTS0yODMuODMyMDMxMjUgOTkgQy0yODMuODMyMDMxMjUgMzUuNDE4MDczMTA5Mzc1NDM1LCAtMjgzLjgzMjAzMTI1IC0yOC4xNjM4NTM3ODEyNDkxMywgLTI4My44MzIwMzEyNSAtOTkgTS0yODMuODMyMDMxMjUgOTkgQy0yODMuODMyMDMxMjUgNDcuMzgzMzE1MTI2OTM5NTMsIC0yODMuODMyMDMxMjUgLTQuMjMzMzY5NzQ2MTIwOTQyNSwgLTI4My44MzIwMzEyNSAtOTkiPjwvcGF0aD48L2c+PGcgdHJhbnNmb3JtPSJ0cmFuc2xhdGUoMCwgLTc1KSIgY2xhc3M9ImFubm90YXRpb24tZ3JvdXAgdGV4dCI+PC9nPjxnIHRyYW5zZm9ybT0idHJhbnNsYXRlKC05My45MTQwNjI1LCAtNzUpIiBjbGFzcz0ibGFiZWwtZ3JvdXAgdGV4dCI+PGcgdHJhbnNmb3JtPSJ0cmFuc2xhdGUoMCwtMTIpIiBzdHlsZT0iZm9udC13ZWlnaHQ6IGJvbGRlciIgY2xhc3M9ImxhYmVsIj48Zm9yZWlnbk9iamVjdCBoZWlnaHQ9IjI0IiB3aWR0aD0iMTg3LjgyODEyNSI+PGRpdiBzdHlsZT0iZGlzcGxheTogdGFibGUtY2VsbDsgd2hpdGUtc3BhY2U6IG5vd3JhcDsgbGluZS1oZWlnaHQ6IDEuNTsgbWF4LXdpZHRoOiAyMjRweDsgdGV4dC1hbGlnbjogY2VudGVyOyIgeG1sbnM9Imh0dHA6Ly93d3cudzMub3JnLzE5OTkveGh0bWwiPjxzcGFuIHN0eWxlPSIiIGNsYXNzPSJub2RlTGFiZWwgbWFya2Rvd24tbm9kZS1sYWJlbCI+PHA+TGludXhQbGF0Zm9ybUludGVncmF0aW9uPC9wPjwvc3Bhbj48L2Rpdj48L2ZvcmVpZ25PYmplY3Q+PC9nPjwvZz48ZyB0cmFuc2Zvcm09InRyYW5zbGF0ZSgtMjcxLjgzMjAzMTI1LCAtMjcpIiBjbGFzcz0ibWVtYmVycy1ncm91cCB0ZXh0Ij48L2c+PGcgdHJhbnNmb3JtPSJ0cmFuc2xhdGUoLTI3MS44MzIwMzEyNSwgMykiIGNsYXNzPSJtZXRob2RzLWdyb3VwIHRleHQiPjxnIHRyYW5zZm9ybT0idHJhbnNsYXRlKDAsLTEyKSIgc3R5bGU9IiIgY2xhc3M9ImxhYmVsIj48Zm9yZWlnbk9iamVjdCBoZWlnaHQ9IjI0IiB3aWR0aD0iMzIzLjg3NSI+PGRpdiBzdHlsZT0iZGlzcGxheTogdGFibGUtY2VsbDsgd2hpdGUtc3BhY2U6IG5vd3JhcDsgbGluZS1oZWlnaHQ6IDEuNTsgbWF4LXdpZHRoOiAzNjRweDsgdGV4dC1hbGlnbjogY2VudGVyOyIgeG1sbnM9Imh0dHA6Ly93d3cudzMub3JnLzE5OTkveGh0bWwiPjxzcGFuIHN0eWxlPSIiIGNsYXNzPSJub2RlTGFiZWwgbWFya2Rvd24tbm9kZS1sYWJlbCI+PHA+K2FjY2Vzc0ZpbGVTeXN0ZW0ocGF0aDogU3RyaW5nKSA6IDogRmlsZVJlc3VsdDwvcD48L3NwYW4+PC9kaXY+PC9mb3JlaWduT2JqZWN0PjwvZz48ZyB0cmFuc2Zvcm09InRyYW5zbGF0ZSgwLDEyKSIgc3R5bGU9IiIgY2xhc3M9ImxhYmVsIj48Zm9yZWlnbk9iamVjdCBoZWlnaHQ9IjI0IiB3aWR0aD0iNDQ5Ljc1Ij48ZGl2IHN0eWxlPSJkaXNwbGF5OiB0YWJsZS1jZWxsOyB3aGl0ZS1zcGFjZTogbm93cmFwOyBsaW5lLWhlaWdodDogMS41OyBtYXgtd2lkdGg6IDQ4NnB4OyB0ZXh0LWFsaWduOiBjZW50ZXI7IiB4bWxucz0iaHR0cDovL3d3dy53My5vcmcvMTk5OS94aHRtbCI+PHNwYW4gc3R5bGU9IiIgY2xhc3M9Im5vZGVMYWJlbCBtYXJrZG93bi1ub2RlLWxhYmVsIj48cD4rbGF1bmNoQXBwbGljYXRpb24oYXBwOiBTdHJpbmcsIHBhcmFtczogU3RyaW5nW10pIDogOiBBcHBSZXN1bHQ8L3A+PC9zcGFuPjwvZGl2PjwvZm9yZWlnbk9iamVjdD48L2c+PGcgdHJhbnNmb3JtPSJ0cmFuc2xhdGUoMCwzNikiIHN0eWxlPSIiIGNsYXNzPSJsYWJlbCI+PGZvcmVpZ25PYmplY3QgaGVpZ2h0PSIyNCIgd2lkdGg9IjQxNS4yNjU2MjUiPjxkaXYgc3R5bGU9ImRpc3BsYXk6IHRhYmxlLWNlbGw7IHdoaXRlLXNwYWNlOiBub3dyYXA7IGxpbmUtaGVpZ2h0OiAxLjU7IG1heC13aWR0aDogNDU3cHg7IHRleHQtYWxpZ246IGNlbnRlcjsiIHhtbG5zPSJodHRwOi8vd3d3LnczLm9yZy8xOTk5L3hodG1sIj48c3BhbiBzdHlsZT0iIiBjbGFzcz0ibm9kZUxhYmVsIG1hcmtkb3duLW5vZGUtbGFiZWwiPjxwPittYW5hZ2VXaW5kb3cod2luZG93OiBXaW5kb3csIGFjdGlvbjogU3RyaW5nKSA6IDogdm9pZDwvcD48L3NwYW4+PC9kaXY+PC9mb3JlaWduT2JqZWN0PjwvZz48ZyB0cmFuc2Zvcm09InRyYW5zbGF0ZSgwLDYwKSIgc3R5bGU9IiIgY2xhc3M9ImxhYmVsIj48Zm9yZWlnbk9iamVjdCBoZWlnaHQ9IjI0IiB3aWR0aD0iNDEyLjY0MDYyNSI+PGRpdiBzdHlsZT0iZGlzcGxheTogdGFibGUtY2VsbDsgd2hpdGUtc3BhY2U6IG5vd3JhcDsgbGluZS1oZWlnaHQ6IDEuNTsgbWF4LXdpZHRoOiA0NDlweDsgdGV4dC1hbGlnbjogY2VudGVyOyIgeG1sbnM9Imh0dHA6Ly93d3cudzMub3JnLzE5OTkveGh0bWwiPjxzcGFuIHN0eWxlPSIiIGNsYXNzPSJub2RlTGFiZWwgbWFya2Rvd24tbm9kZS1sYWJlbCI+PHA+K21vZGlmeVN5c3RlbVNldHRpbmcoc2V0dGluZzogU3RyaW5nLCB2YWx1ZTogYW55KSA6IDogdm9pZDwvcD48L3NwYW4+PC9kaXY+PC9mb3JlaWduT2JqZWN0PjwvZz48L2c+PGcgc3R5bGU9IiIgY2xhc3M9ImRpdmlkZXIiPjxwYXRoIHN0eWxlPSIiIGZpbGw9Im5vbmUiIHN0cm9rZS13aWR0aD0iMS4zIiBzdHJva2U9IiNjY2MiIGQ9Ik0tMjgzLjgzMjAzMTI1IC01MSBDLTE1Ni42Mzk5MTM4MDg3MTM3NCAtNTEsIC0yOS40NDc3OTYzNjc0Mjc0ODYgLTUxLCAyODMuODMyMDMxMjUgLTUxIE0tMjgzLjgzMjAzMTI1IC01MSBDLTg5LjUwMjUzMjIyMTE3NTM2IC01MSwgMTA0LjgyNjk2NjgwNzY0OTI4IC01MSwgMjgzLjgzMjAzMTI1IC01MSI+PC9wYXRoPjwvZz48ZyBzdHlsZT0iIiBjbGFzcz0iZGl2aWRlciI+PHBhdGggc3R5bGU9IiIgZmlsbD0ibm9uZSIgc3Ryb2tlLXdpZHRoPSIxLjMiIHN0cm9rZT0iI2NjYyIgZD0iTS0yODMuODMyMDMxMjUgLTI3IEMtMTQ0LjMxODAxMjQ1MDk2OTM1IC0yNywgLTQuODAzOTkzNjUxOTM4Njk3IC0yNywgMjgzLjgzMjAzMTI1IC0yNyBNLTI4My44MzIwMzEyNSAtMjcgQy03MS41NzYxNTEzMjgzMDcxOSAtMjcsIDE0MC42Nzk3Mjg1OTMzODU2MiAtMjcsIDI4My44MzIwMzEyNSAtMjciPjwvcGF0aD48L2c+PC9nPjxnIHRyYW5zZm9ybT0idHJhbnNsYXRlKDE4ODMuNzUsIDUyNSkiIGlkPSJjbGFzc0lkLVNlY3VyaXR5TWFuYWdlci01MiIgY2xhc3M9Im5vZGUgZGVmYXVsdCI+PGcgY2xhc3M9ImJhc2ljIGxhYmVsLWNvbnRhaW5lciI+PHBhdGggc3R5bGU9IiIgZmlsbD0iIzFmMjAyMCIgc3Ryb2tlLXdpZHRoPSIwIiBzdHJva2U9Im5vbmUiIGQ9Ik0tMjUxLjc2MTcxODc1IC0xMjAgTDI1MS43NjE3MTg3NSAtMTIwIEwyNTEuNzYxNzE4NzUgMTIwIEwtMjUxLjc2MTcxODc1IDEyMCI+PC9wYXRoPjxwYXRoIHN0eWxlPSIiIGZpbGw9Im5vbmUiIHN0cm9rZS13aWR0aD0iMS4zIiBzdHJva2U9IiNjY2MiIGQ9Ik0tMjUxLjc2MTcxODc1IC0xMjAgQy0xMTguMjg3MzI1MDU1MDc5MjEgLTEyMCwgMTUuMTg3MDY4NjM5ODQxNTg0IC0xMjAsIDI1MS43NjE3MTg3NSAtMTIwIE0tMjUxLjc2MTcxODc1IC0xMjAgQy04OC4xMzYxMDE2NTQxMzc2MyAtMTIwLCA3NS40ODk1MTU0NDE3MjQ3MyAtMTIwLCAyNTEuNzYxNzE4NzUgLTEyMCBNMjUxLjc2MTcxODc1IC0xMjAgQzI1MS43NjE3MTg3NSAtNTkuNjc5MjE1NjA2Mjk4OTQsIDI1MS43NjE3MTg3NSAwLjY0MTU2ODc4NzQwMjEyMTYsIDI1MS43NjE3MTg3NSAxMjAgTTI1MS43NjE3MTg3NSAtMTIwIEMyNTEuNzYxNzE4NzUgLTcwLjA4NzQ4NDg4MzEwMjIyLCAyNTEuNzYxNzE4NzUgLTIwLjE3NDk2OTc2NjIwNDQ0LCAyNTEuNzYxNzE4NzUgMTIwIE0yNTEuNzYxNzE4NzUgMTIwIEMxMDkuODIwMjk2NDQxNTExNjMgMTIwLCAtMzIuMTIxMTI1ODY2OTc2NzQgMTIwLCAtMjUxLjc2MTcxODc1IDEyMCBNMjUxLjc2MTcxODc1IDEyMCBDNzguMDUxODEwMzA5Mzk0NjUgMTIwLCAtOTUuNjU4MDk4MTMxMjEwNjkgMTIwLCAtMjUxLjc2MTcxODc1IDEyMCBNLTI1MS43NjE3MTg3NSAxMjAgQy0yNTEuNzYxNzE4NzUgMjcuNTAzNjcwODM2MTczNjk3LCAtMjUxLjc2MTcxODc1IC02NC45OTI2NTgzMjc2NTI2LCAtMjUxLjc2MTcxODc1IC0xMjAgTS0yNTEuNzYxNzE4NzUgMTIwIEMtMjUxLjc2MTcxODc1IDY2LjEwMTk0MDQ4NTk0MzkzLCAtMjUxLjc2MTcxODc1IDEyLjIwMzg4MDk3MTg4Nzg1NSwgLTI1MS43NjE3MTg3NSAtMTIwIj48L3BhdGg+PC9nPjxnIHRyYW5zZm9ybT0idHJhbnNsYXRlKDAsIC05NikiIGNsYXNzPSJhbm5vdGF0aW9uLWdyb3VwIHRleHQiPjwvZz48ZyB0cmFuc2Zvcm09InRyYW5zbGF0ZSgtNjEuOTkyMTg3NSwgLTk2KSIgY2xhc3M9ImxhYmVsLWdyb3VwIHRleHQiPjxnIHRyYW5zZm9ybT0idHJhbnNsYXRlKDAsLTEyKSIgc3R5bGU9ImZvbnQtd2VpZ2h0OiBib2xkZXIiIGNsYXNzPSJsYWJlbCI+PGZvcmVpZ25PYmplY3QgaGVpZ2h0PSIyNCIgd2lkdGg9IjEyMy45ODQzNzUiPjxkaXYgc3R5bGU9ImRpc3BsYXk6IHRhYmxlLWNlbGw7IHdoaXRlLXNwYWNlOiBub3dyYXA7IGxpbmUtaGVpZ2h0OiAxLjU7IG1heC13aWR0aDogMTcwcHg7IHRleHQtYWxpZ246IGNlbnRlcjsiIHhtbG5zPSJodHRwOi8vd3d3LnczLm9yZy8xOTk5L3hodG1sIj48c3BhbiBzdHlsZT0iIiBjbGFzcz0ibm9kZUxhYmVsIG1hcmtkb3duLW5vZGUtbGFiZWwiPjxwPlNlY3VyaXR5TWFuYWdlcjwvcD48L3NwYW4+PC9kaXY+PC9mb3JlaWduT2JqZWN0PjwvZz48L2c+PGcgdHJhbnNmb3JtPSJ0cmFuc2xhdGUoLTIzOS43NjE3MTg3NSwgLTQ4KSIgY2xhc3M9Im1lbWJlcnMtZ3JvdXAgdGV4dCI+PGcgdHJhbnNmb3JtPSJ0cmFuc2xhdGUoMCwtMTIpIiBzdHlsZT0iIiBjbGFzcz0ibGFiZWwiPjxmb3JlaWduT2JqZWN0IGhlaWdodD0iMjQiIHdpZHRoPSIyNTMuNTE1NjI1Ij48ZGl2IHN0eWxlPSJkaXNwbGF5OiB0YWJsZS1jZWxsOyB3aGl0ZS1zcGFjZTogbm93cmFwOyBsaW5lLWhlaWdodDogMS41OyBtYXgtd2lkdGg6IDMxM3B4OyB0ZXh0LWFsaWduOiBjZW50ZXI7IiB4bWxucz0iaHR0cDovL3d3dy53My5vcmcvMTk5OS94aHRtbCI+PHNwYW4gc3R5bGU9IiIgY2xhc3M9Im5vZGVMYWJlbCBtYXJrZG93bi1ub2RlLWxhYmVsIj48cD4tcGVybWlzc2lvbk1vZGVsOiBQZXJtaXNzaW9uTW9kZWw8L3A+PC9zcGFuPjwvZGl2PjwvZm9yZWlnbk9iamVjdD48L2c+PGcgdHJhbnNmb3JtPSJ0cmFuc2xhdGUoMCwxMikiIHN0eWxlPSIiIGNsYXNzPSJsYWJlbCI+PGZvcmVpZ25PYmplY3QgaGVpZ2h0PSIyNCIgd2lkdGg9IjMzMC40Mzc1Ij48ZGl2IHN0eWxlPSJkaXNwbGF5OiB0YWJsZS1jZWxsOyB3aGl0ZS1zcGFjZTogbm93cmFwOyBsaW5lLWhlaWdodDogMS41OyBtYXgtd2lkdGg6IDM3OHB4OyB0ZXh0LWFsaWduOiBjZW50ZXI7IiB4bWxucz0iaHR0cDovL3d3dy53My5vcmcvMTk5OS94aHRtbCI+PHNwYW4gc3R5bGU9IiIgY2xhc3M9Im5vZGVMYWJlbCBtYXJrZG93bi1ub2RlLWxhYmVsIj48cD4tYXV0aGVudGljYXRpb25TZXJ2aWNlOiBBdXRoZW50aWNhdGlvblNlcnZpY2U8L3A+PC9zcGFuPjwvZGl2PjwvZm9yZWlnbk9iamVjdD48L2c+PGcgdHJhbnNmb3JtPSJ0cmFuc2xhdGUoMCwzNikiIHN0eWxlPSIiIGNsYXNzPSJsYWJlbCI+PGZvcmVpZ25PYmplY3QgaGVpZ2h0PSIyNCIgd2lkdGg9IjIzNC41OTM3NSI+PGRpdiBzdHlsZT0iZGlzcGxheTogdGFibGUtY2VsbDsgd2hpdGUtc3BhY2U6IG5vd3JhcDsgbGluZS1oZWlnaHQ6IDEuNTsgbWF4LXdpZHRoOiAyODVweDsgdGV4dC1hbGlnbjogY2VudGVyOyIgeG1sbnM9Imh0dHA6Ly93d3cudzMub3JnLzE5OTkveGh0bWwiPjxzcGFuIHN0eWxlPSIiIGNsYXNzPSJub2RlTGFiZWwgbWFya2Rvd24tbm9kZS1sYWJlbCI+PHA+LWRhdGFFbmNyeXB0aW9uOiBEYXRhRW5jcnlwdGlvbjwvcD48L3NwYW4+PC9kaXY+PC9mb3JlaWduT2JqZWN0PjwvZz48L2c+PGcgdHJhbnNmb3JtPSJ0cmFuc2xhdGUoLTIzOS43NjE3MTg3NSwgNDgpIiBjbGFzcz0ibWV0aG9kcy1ncm91cCB0ZXh0Ij48ZyB0cmFuc2Zvcm09InRyYW5zbGF0ZSgwLC0xMikiIHN0eWxlPSIiIGNsYXNzPSJsYWJlbCI+PGZvcmVpZ25PYmplY3QgaGVpZ2h0PSIyNCIgd2lkdGg9IjMzNi44NTkzNzUiPjxkaXYgc3R5bGU9ImRpc3BsYXk6IHRhYmxlLWNlbGw7IHdoaXRlLXNwYWNlOiBub3dyYXA7IGxpbmUtaGVpZ2h0OiAxLjU7IG1heC13aWR0aDogMzc5cHg7IHRleHQtYWxpZ246IGNlbnRlcjsiIHhtbG5zPSJodHRwOi8vd3d3LnczLm9yZy8xOTk5L3hodG1sIj48c3BhbiBzdHlsZT0iIiBjbGFzcz0ibm9kZUxhYmVsIG1hcmtkb3duLW5vZGUtbGFiZWwiPjxwPit2YWxpZGF0ZVBlcm1pc3Npb24oYWN0aW9uOiBBY3Rpb24pIDogOiBCb29sZWFuPC9wPjwvc3Bhbj48L2Rpdj48L2ZvcmVpZ25PYmplY3Q+PC9nPjxnIHRyYW5zZm9ybT0idHJhbnNsYXRlKDAsMTIpIiBzdHlsZT0iIiBjbGFzcz0ibGFiZWwiPjxmb3JlaWduT2JqZWN0IGhlaWdodD0iMjQiIHdpZHRoPSI0MTcuNTMxMjUiPjxkaXYgc3R5bGU9ImRpc3BsYXk6IHRhYmxlLWNlbGw7IHdoaXRlLXNwYWNlOiBub3dyYXA7IGxpbmUtaGVpZ2h0OiAxLjU7IG1heC13aWR0aDogNDU3cHg7IHRleHQtYWxpZ246IGNlbnRlcjsiIHhtbG5zPSJodHRwOi8vd3d3LnczLm9yZy8xOTk5L3hodG1sIj48c3BhbiBzdHlsZT0iIiBjbGFzcz0ibm9kZUxhYmVsIG1hcmtkb3duLW5vZGUtbGFiZWwiPjxwPithdXRoZW50aWNhdGVPcGVyYXRpb24ob3BlcmF0aW9uOiBPcGVyYXRpb24pIDogOiBCb29sZWFuPC9wPjwvc3Bhbj48L2Rpdj48L2ZvcmVpZ25PYmplY3Q+PC9nPjxnIHRyYW5zZm9ybT0idHJhbnNsYXRlKDAsMzYpIiBzdHlsZT0iIiBjbGFzcz0ibGFiZWwiPjxmb3JlaWduT2JqZWN0IGhlaWdodD0iMjQiIHdpZHRoPSIzMDcuMDc4MTI1Ij48ZGl2IHN0eWxlPSJkaXNwbGF5OiB0YWJsZS1jZWxsOyB3aGl0ZS1zcGFjZTogbm93cmFwOyBsaW5lLWhlaWdodDogMS41OyBtYXgtd2lkdGg6IDM0OXB4OyB0ZXh0LWFsaWduOiBjZW50ZXI7IiB4bWxucz0iaHR0cDovL3d3dy53My5vcmcvMTk5OS94aHRtbCI+PHNwYW4gc3R5bGU9IiIgY2xhc3M9Im5vZGVMYWJlbCBtYXJrZG93bi1ub2RlLWxhYmVsIj48cD4rc2VjdXJlRGF0YShkYXRhOiBEYXRhKSA6IDogRW5jcnlwdGVkRGF0YTwvcD48L3NwYW4+PC9kaXY+PC9mb3JlaWduT2JqZWN0PjwvZz48L2c+PGcgc3R5bGU9IiIgY2xhc3M9ImRpdmlkZXIiPjxwYXRoIHN0eWxlPSIiIGZpbGw9Im5vbmUiIHN0cm9rZS13aWR0aD0iMS4zIiBzdHJva2U9IiNjY2MiIGQ9Ik0tMjUxLjc2MTcxODc1IC03MiBDLTE0Ni4zMTU2NjE0NjYyOTAyNCAtNzIsIC00MC44Njk2MDQxODI1ODA1IC03MiwgMjUxLjc2MTcxODc1IC03MiBNLTI1MS43NjE3MTg3NSAtNzIgQy02MS44MDI4MTA2ODg4MTI5MSAtNzIsIDEyOC4xNTYwOTczNzIzNzQxOCAtNzIsIDI1MS43NjE3MTg3NSAtNzIiPjwvcGF0aD48L2c+PGcgc3R5bGU9IiIgY2xhc3M9ImRpdmlkZXIiPjxwYXRoIHN0eWxlPSIiIGZpbGw9Im5vbmUiIHN0cm9rZS13aWR0aD0iMS4zIiBzdHJva2U9IiNjY2MiIGQ9Ik0tMjUxLjc2MTcxODc1IDI0IEMtOTUuNjg4NDY2MDgwNDkzNjQgMjQsIDYwLjM4NDc4NjU4OTAxMjcyIDI0LCAyNTEuNzYxNzE4NzUgMjQgTS0yNTEuNzYxNzE4NzUgMjQgQy0xMzIuOTc0NjIyNDkxNjk5OSAyNCwgLTE0LjE4NzUyNjIzMzM5OTgwOCAyNCwgMjUxLjc2MTcxODc1IDI0Ij48L3BhdGg+PC9nPjwvZz48ZyB0cmFuc2Zvcm09InRyYW5zbGF0ZSgyMzg1Ljk4NDM3NSwgNTI1KSIgaWQ9ImNsYXNzSWQtVXNlckludGVyZmFjZS01MyIgY2xhc3M9Im5vZGUgZGVmYXVsdCI+PGcgY2xhc3M9ImJhc2ljIGxhYmVsLWNvbnRhaW5lciI+PHBhdGggc3R5bGU9IiIgZmlsbD0iIzFmMjAyMCIgc3Ryb2tlLXdpZHRoPSIwIiBzdHJva2U9Im5vbmUiIGQ9Ik0tMjAwLjQ3MjY1NjI1IC0xODAgTDIwMC40NzI2NTYyNSAtMTgwIEwyMDAuNDcyNjU2MjUgMTgwIEwtMjAwLjQ3MjY1NjI1IDE4MCI+PC9wYXRoPjxwYXRoIHN0eWxlPSIiIGZpbGw9Im5vbmUiIHN0cm9rZS13aWR0aD0iMS4zIiBzdHJva2U9IiNjY2MiIGQ9Ik0tMjAwLjQ3MjY1NjI1IC0xODAgQy01OC4yOTI0Mzk2MzEwMzkwOSAtMTgwLCA4My44ODc3NzY5ODc5MjE4MiAtMTgwLCAyMDAuNDcyNjU2MjUgLTE4MCBNLTIwMC40NzI2NTYyNSAtMTgwIEMtMTE5Ljk1NDg1NDAxMjAwODE4IC0xODAsIC0zOS40MzcwNTE3NzQwMTYzNyAtMTgwLCAyMDAuNDcyNjU2MjUgLTE4MCBNMjAwLjQ3MjY1NjI1IC0xODAgQzIwMC40NzI2NTYyNSAtNDAuNDI4NTI5OTU1MDQxOTEsIDIwMC40NzI2NTYyNSA5OS4xNDI5NDAwODk5MTYxOCwgMjAwLjQ3MjY1NjI1IDE4MCBNMjAwLjQ3MjY1NjI1IC0xODAgQzIwMC40NzI2NTYyNSAtMTA1LjA5NjM0NzY0MTY4MDc4LCAyMDAuNDcyNjU2MjUgLTMwLjE5MjY5NTI4MzM2MTU2LCAyMDAuNDcyNjU2MjUgMTgwIE0yMDAuNDcyNjU2MjUgMTgwIEM5NS41MTYxMDMwOTE5NTE2MyAxODAsIC05LjQ0MDQ1MDA2NjA5NjczIDE4MCwgLTIwMC40NzI2NTYyNSAxODAgTTIwMC40NzI2NTYyNSAxODAgQzc4LjIxMjE4NTUzNzIyODczIDE4MCwgLTQ0LjA0ODI4NTE3NTU0MjUzIDE4MCwgLTIwMC40NzI2NTYyNSAxODAgTS0yMDAuNDcyNjU2MjUgMTgwIEMtMjAwLjQ3MjY1NjI1IDYxLjI5MDg4NjUxODczMjcwNSwgLTIwMC40NzI2NTYyNSAtNTcuNDE4MjI2OTYyNTM0NTksIC0yMDAuNDcyNjU2MjUgLTE4MCBNLTIwMC40NzI2NTYyNSAxODAgQy0yMDAuNDcyNjU2MjUgNTYuOTQ4MjY4Njg4NDkzMjg2LCAtMjAwLjQ3MjY1NjI1IC02Ni4xMDM0NjI2MjMwMTM0MywgLTIwMC40NzI2NTYyNSAtMTgwIj48L3BhdGg+PC9nPjxnIHRyYW5zZm9ybT0idHJhbnNsYXRlKDAsIC0xNTYpIiBjbGFzcz0iYW5ub3RhdGlvbi1ncm91cCB0ZXh0Ij48L2c+PGcgdHJhbnNmb3JtPSJ0cmFuc2xhdGUoLTUwLjkyOTY4NzUsIC0xNTYpIiBjbGFzcz0ibGFiZWwtZ3JvdXAgdGV4dCI+PGcgdHJhbnNmb3JtPSJ0cmFuc2xhdGUoMCwtMTIpIiBzdHlsZT0iZm9udC13ZWlnaHQ6IGJvbGRlciIgY2xhc3M9ImxhYmVsIj48Zm9yZWlnbk9iamVjdCBoZWlnaHQ9IjI0IiB3aWR0aD0iMTAxLjg1OTM3NSI+PGRpdiBzdHlsZT0iZGlzcGxheTogdGFibGUtY2VsbDsgd2hpdGUtc3BhY2U6IG5vd3JhcDsgbGluZS1oZWlnaHQ6IDEuNTsgbWF4LXdpZHRoOiAxNDVweDsgdGV4dC1hbGlnbjogY2VudGVyOyIgeG1sbnM9Imh0dHA6Ly93d3cudzMub3JnLzE5OTkveGh0bWwiPjxzcGFuIHN0eWxlPSIiIGNsYXNzPSJub2RlTGFiZWwgbWFya2Rvd24tbm9kZS1sYWJlbCI+PHA+VXNlckludGVyZmFjZTwvcD48L3NwYW4+PC9kaXY+PC9mb3JlaWduT2JqZWN0PjwvZz48L2c+PGcgdHJhbnNmb3JtPSJ0cmFuc2xhdGUoLTE4OC40NzI2NTYyNSwgLTEwOCkiIGNsYXNzPSJtZW1iZXJzLWdyb3VwIHRleHQiPjxnIHRyYW5zZm9ybT0idHJhbnNsYXRlKDAsLTEyKSIgc3R5bGU9IiIgY2xhc3M9ImxhYmVsIj48Zm9yZWlnbk9iamVjdCBoZWlnaHQ9IjI0IiB3aWR0aD0iMjAzLjg0Mzc1Ij48ZGl2IHN0eWxlPSJkaXNwbGF5OiB0YWJsZS1jZWxsOyB3aGl0ZS1zcGFjZTogbm93cmFwOyBsaW5lLWhlaWdodDogMS41OyBtYXgtd2lkdGg6IDI2MXB4OyB0ZXh0LWFsaWduOiBjZW50ZXI7IiB4bWxucz0iaHR0cDovL3d3dy53My5vcmcvMTk5OS94aHRtbCI+PHNwYW4gc3R5bGU9IiIgY2xhc3M9Im5vZGVMYWJlbCBtYXJrZG93bi1ub2RlLWxhYmVsIj48cD4tY29tbWFuZEJhcjogQ29tbWFuZEJhcjwvcD48L3NwYW4+PC9kaXY+PC9mb3JlaWduT2JqZWN0PjwvZz48ZyB0cmFuc2Zvcm09InRyYW5zbGF0ZSgwLDEyKSIgc3R5bGU9IiIgY2xhc3M9ImxhYmVsIj48Zm9yZWlnbk9iamVjdCBoZWlnaHQ9IjI0IiB3aWR0aD0iMjEwLjMyODEyNSI+PGRpdiBzdHlsZT0iZGlzcGxheTogdGFibGUtY2VsbDsgd2hpdGUtc3BhY2U6IG5vd3JhcDsgbGluZS1oZWlnaHQ6IDEuNTsgbWF4LXdpZHRoOiAyNjdweDsgdGV4dC1hbGlnbjogY2VudGVyOyIgeG1sbnM9Imh0dHA6Ly93d3cudzMub3JnLzE5OTkveGh0bWwiPjxzcGFuIHN0eWxlPSIiIGNsYXNzPSJub2RlTGFiZWwgbWFya2Rvd24tbm9kZS1sYWJlbCI+PHA+LXJlc3BvbnNlQXJlYTogUmVzcG9uc2VBcmVhPC9wPjwvc3Bhbj48L2Rpdj48L2ZvcmVpZ25PYmplY3Q+PC9nPjxnIHRyYW5zZm9ybT0idHJhbnNsYXRlKDAsMzYpIiBzdHlsZT0iIiBjbGFzcz0ibGFiZWwiPjxmb3JlaWduT2JqZWN0IGhlaWdodD0iMjQiIHdpZHRoPSIyMDUuMTA5Mzc1Ij48ZGl2IHN0eWxlPSJkaXNwbGF5OiB0YWJsZS1jZWxsOyB3aGl0ZS1zcGFjZTogbm93cmFwOyBsaW5lLWhlaWdodDogMS41OyBtYXgtd2lkdGg6IDI1NHB4OyB0ZXh0LWFsaWduOiBjZW50ZXI7IiB4bWxucz0iaHR0cDovL3d3dy53My5vcmcvMTk5OS94aHRtbCI+PHNwYW4gc3R5bGU9IiIgY2xhc3M9Im5vZGVMYWJlbCBtYXJrZG93bi1ub2RlLWxhYmVsIj48cD4tY29udGV4dFBhbmVsOiBDb250ZXh0UGFuZWw8L3A+PC9zcGFuPjwvZGl2PjwvZm9yZWlnbk9iamVjdD48L2c+PGcgdHJhbnNmb3JtPSJ0cmFuc2xhdGUoMCw2MCkiIHN0eWxlPSIiIGNsYXNzPSJsYWJlbCI+PGZvcmVpZ25PYmplY3QgaGVpZ2h0PSIyNCIgd2lkdGg9IjE3Ni4yODEyNSI+PGRpdiBzdHlsZT0iZGlzcGxheTogdGFibGUtY2VsbDsgd2hpdGUtc3BhY2U6IG5vd3JhcDsgbGluZS1oZWlnaHQ6IDEuNTsgbWF4LXdpZHRoOiAyMjhweDsgdGV4dC1hbGlnbjogY2VudGVyOyIgeG1sbnM9Imh0dHA6Ly93d3cudzMub3JnLzE5OTkveGh0bWwiPjxzcGFuIHN0eWxlPSIiIGNsYXNzPSJub2RlTGFiZWwgbWFya2Rvd24tbm9kZS1sYWJlbCI+PHA+LXN5c3RlbVRyYXk6IFN5c3RlbVRyYXk8L3A+PC9zcGFuPjwvZGl2PjwvZm9yZWlnbk9iamVjdD48L2c+PGcgdHJhbnNmb3JtPSJ0cmFuc2xhdGUoMCw4NCkiIHN0eWxlPSIiIGNsYXNzPSJsYWJlbCI+PGZvcmVpZ25PYmplY3QgaGVpZ2h0PSIyNCIgd2lkdGg9IjIwNi43MzQzNzUiPjxkaXYgc3R5bGU9ImRpc3BsYXk6IHRhYmxlLWNlbGw7IHdoaXRlLXNwYWNlOiBub3dyYXA7IGxpbmUtaGVpZ2h0OiAxLjU7IG1heC13aWR0aDogMjU4cHg7IHRleHQtYWxpZ246IGNlbnRlcjsiIHhtbG5zPSJodHRwOi8vd3d3LnczLm9yZy8xOTk5L3hodG1sIj48c3BhbiBzdHlsZT0iIiBjbGFzcz0ibm9kZUxhYmVsIG1hcmtkb3duLW5vZGUtbGFiZWwiPjxwPi1zZXR0aW5nc1BhbmVsOiBTZXR0aW5nc1BhbmVsPC9wPjwvc3Bhbj48L2Rpdj48L2ZvcmVpZ25PYmplY3Q+PC9nPjxnIHRyYW5zZm9ybT0idHJhbnNsYXRlKDAsMTA4KSIgc3R5bGU9IiIgY2xhc3M9ImxhYmVsIj48Zm9yZWlnbk9iamVjdCBoZWlnaHQ9IjI0IiB3aWR0aD0iMzI2LjAxNTYyNSI+PGRpdiBzdHlsZT0iZGlzcGxheTogdGFibGUtY2VsbDsgd2hpdGUtc3BhY2U6IG5vd3JhcDsgbGluZS1oZWlnaHQ6IDEuNTsgbWF4LXdpZHRoOiAzNzJweDsgdGV4dC1hbGlnbjogY2VudGVyOyIgeG1sbnM9Imh0dHA6Ly93d3cudzMub3JnLzE5OTkveGh0bWwiPjxzcGFuIHN0eWxlPSIiIGNsYXNzPSJub2RlTGFiZWwgbWFya2Rvd24tbm9kZS1sYWJlbCI+PHA+LXBsYXRmb3JtU3R5bGVBZGFwdGVyOiBQbGF0Zm9ybVN0eWxlQWRhcHRlcjwvcD48L3NwYW4+PC9kaXY+PC9mb3JlaWduT2JqZWN0PjwvZz48L2c+PGcgdHJhbnNmb3JtPSJ0cmFuc2xhdGUoLTE4OC40NzI2NTYyNSwgNjApIiBjbGFzcz0ibWV0aG9kcy1ncm91cCB0ZXh0Ij48ZyB0cmFuc2Zvcm09InRyYW5zbGF0ZSgwLC0xMikiIHN0eWxlPSIiIGNsYXNzPSJsYWJlbCI+PGZvcmVpZ25PYmplY3QgaGVpZ2h0PSIyNCIgd2lkdGg9IjI3NC4yMTg3NSI+PGRpdiBzdHlsZT0iZGlzcGxheTogdGFibGUtY2VsbDsgd2hpdGUtc3BhY2U6IG5vd3JhcDsgbGluZS1oZWlnaHQ6IDEuNTsgbWF4LXdpZHRoOiAzMzNweDsgdGV4dC1hbGlnbjogY2VudGVyOyIgeG1sbnM9Imh0dHA6Ly93d3cudzMub3JnLzE5OTkveGh0bWwiPjxzcGFuIHN0eWxlPSIiIGNsYXNzPSJub2RlTGFiZWwgbWFya2Rvd24tbm9kZS1sYWJlbCI+PHA+K2Rpc3BsYXlSZXNwb25zZShyZXNwb25zZTogUmVzcG9uc2UpPC9wPjwvc3Bhbj48L2Rpdj48L2ZvcmVpZ25PYmplY3Q+PC9nPjxnIHRyYW5zZm9ybT0idHJhbnNsYXRlKDAsMTIpIiBzdHlsZT0iIiBjbGFzcz0ibGFiZWwiPjxmb3JlaWduT2JqZWN0IGhlaWdodD0iMjQiIHdpZHRoPSIyMzMuODkwNjI1Ij48ZGl2IHN0eWxlPSJkaXNwbGF5OiB0YWJsZS1jZWxsOyB3aGl0ZS1zcGFjZTogbm93cmFwOyBsaW5lLWhlaWdodDogMS41OyBtYXgtd2lkdGg6IDI4N3B4OyB0ZXh0LWFsaWduOiBjZW50ZXI7IiB4bWxucz0iaHR0cDovL3d3dy53My5vcmcvMTk5OS94aHRtbCI+PHNwYW4gc3R5bGU9IiIgY2xhc3M9Im5vZGVMYWJlbCBtYXJrZG93bi1ub2RlLWxhYmVsIj48cD4rc2hvd0NvbnRleHQoY29udGV4dDogQ29udGV4dCk8L3A+PC9zcGFuPjwvZGl2PjwvZm9yZWlnbk9iamVjdD48L2c+PGcgdHJhbnNmb3JtPSJ0cmFuc2xhdGUoMCwzNikiIHN0eWxlPSIiIGNsYXNzPSJsYWJlbCI+PGZvcmVpZ25PYmplY3QgaGVpZ2h0PSIyNCIgd2lkdGg9IjE4MS44MjgxMjUiPjxkaXYgc3R5bGU9ImRpc3BsYXk6IHRhYmxlLWNlbGw7IHdoaXRlLXNwYWNlOiBub3dyYXA7IGxpbmUtaGVpZ2h0OiAxLjU7IG1heC13aWR0aDogMjM0cHg7IHRleHQtYWxpZ246IGNlbnRlcjsiIHhtbG5zPSJodHRwOi8vd3d3LnczLm9yZy8xOTk5L3hodG1sIj48c3BhbiBzdHlsZT0iIiBjbGFzcz0ibm9kZUxhYmVsIG1hcmtkb3duLW5vZGUtbGFiZWwiPjxwPitnZXRDb21tYW5kKCkgOiA6IFN0cmluZzwvcD48L3NwYW4+PC9kaXY+PC9mb3JlaWduT2JqZWN0PjwvZz48ZyB0cmFuc2Zvcm09InRyYW5zbGF0ZSgwLDYwKSIgc3R5bGU9IiIgY2xhc3M9ImxhYmVsIj48Zm9yZWlnbk9iamVjdCBoZWlnaHQ9IjI0IiB3aWR0aD0iMjkyLjE1NjI1Ij48ZGl2IHN0eWxlPSJkaXNwbGF5OiB0YWJsZS1jZWxsOyB3aGl0ZS1zcGFjZTogbm93cmFwOyBsaW5lLWhlaWdodDogMS41OyBtYXgtd2lkdGg6IDM0NHB4OyB0ZXh0LWFsaWduOiBjZW50ZXI7IiB4bWxucz0iaHR0cDovL3d3dy53My5vcmcvMTk5OS94aHRtbCI+PHNwYW4gc3R5bGU9IiIgY2xhc3M9Im5vZGVMYWJlbCBtYXJrZG93bi1ub2RlLWxhYmVsIj48cD4rdXBkYXRlU3lzdGVtVHJheVN0YXR1cyhzdGF0dXM6IFN0YXR1cyk8L3A+PC9zcGFuPjwvZGl2PjwvZm9yZWlnbk9iamVjdD48L2c+PGcgdHJhbnNmb3JtPSJ0cmFuc2xhdGUoMCw4NCkiIHN0eWxlPSIiIGNsYXNzPSJsYWJlbCI+PGZvcmVpZ25PYmplY3QgaGVpZ2h0PSIyNCIgd2lkdGg9IjIzMC44OTA2MjUiPjxkaXYgc3R5bGU9ImRpc3BsYXk6IHRhYmxlLWNlbGw7IHdoaXRlLXNwYWNlOiBub3dyYXA7IGxpbmUtaGVpZ2h0OiAxLjU7IG1heC13aWR0aDogMjc1cHg7IHRleHQtYWxpZ246IGNlbnRlcjsiIHhtbG5zPSJodHRwOi8vd3d3LnczLm9yZy8xOTk5L3hodG1sIj48c3BhbiBzdHlsZT0iIiBjbGFzcz0ibm9kZUxhYmVsIG1hcmtkb3duLW5vZGUtbGFiZWwiPjxwPithZGFwdFRvUGxhdGZvcm1TdHlsZSgpIDogOiB2b2lkPC9wPjwvc3Bhbj48L2Rpdj48L2ZvcmVpZ25PYmplY3Q+PC9nPjwvZz48ZyBzdHlsZT0iIiBjbGFzcz0iZGl2aWRlciI+PHBhdGggc3R5bGU9IiIgZmlsbD0ibm9uZSIgc3Ryb2tlLXdpZHRoPSIxLjMiIHN0cm9rZT0iI2NjYyIgZD0iTS0yMDAuNDcyNjU2MjUgLTEzMiBDLTY3LjY4NTQzMDA5MjE1NjAzIC0xMzIsIDY1LjEwMTc5NjA2NTY4Nzk1IC0xMzIsIDIwMC40NzI2NTYyNSAtMTMyIE0tMjAwLjQ3MjY1NjI1IC0xMzIgQy03My4wNDgwMzk0Nzk0ODUzMyAtMTMyLCA1NC4zNzY1NzcyOTEwMjkzNSAtMTMyLCAyMDAuNDcyNjU2MjUgLTEzMiI+PC9wYXRoPjwvZz48ZyBzdHlsZT0iIiBjbGFzcz0iZGl2aWRlciI+PHBhdGggc3R5bGU9IiIgZmlsbD0ibm9uZSIgc3Ryb2tlLXdpZHRoPSIxLjMiIHN0cm9rZT0iI2NjYyIgZD0iTS0yMDAuNDcyNjU2MjUgMzYgQy01NC40MTAyOTIxODE3OTMyNCAzNiwgOTEuNjUyMDcxODg2NDEzNTIgMzYsIDIwMC40NzI2NTYyNSAzNiBNLTIwMC40NzI2NTYyNSAzNiBDLTUxLjA4NDQxODIwMDE5ODQgMzYsIDk4LjMwMzgxOTg0OTYwMzIgMzYsIDIwMC40NzI2NTYyNSAzNiI+PC9wYXRoPjwvZz48L2c+PGcgdHJhbnNmb3JtPSJ0cmFuc2xhdGUoMjk1My43MzgyODEyNSwgNTI1KSIgaWQ9ImNsYXNzSWQtRXh0ZW5zaW9uTWFuYWdlci01NCIgY2xhc3M9Im5vZGUgZGVmYXVsdCI+PGcgY2xhc3M9ImJhc2ljIGxhYmVsLWNvbnRhaW5lciI+PHBhdGggc3R5bGU9IiIgZmlsbD0iIzFmMjAyMCIgc3Ryb2tlLXdpZHRoPSIwIiBzdHJva2U9Im5vbmUiIGQ9Ik0tMzE3LjI4MTI1IC0xMzIgTDMxNy4yODEyNSAtMTMyIEwzMTcuMjgxMjUgMTMyIEwtMzE3LjI4MTI1IDEzMiI+PC9wYXRoPjxwYXRoIHN0eWxlPSIiIGZpbGw9Im5vbmUiIHN0cm9rZS13aWR0aD0iMS4zIiBzdHJva2U9IiNjY2MiIGQ9Ik0tMzE3LjI4MTI1IC0xMzIgQy0xNjYuNDU5NzMyODk2MzE5NSAtMTMyLCAtMTUuNjM4MjE1NzkyNjM5MDE2IC0xMzIsIDMxNy4yODEyNSAtMTMyIE0tMzE3LjI4MTI1IC0xMzIgQy0xNTcuNjM3OTg3ODQ1MDgzOTYgLTEzMiwgMi4wMDUyNzQzMDk4MzIwODkgLTEzMiwgMzE3LjI4MTI1IC0xMzIgTTMxNy4yODEyNSAtMTMyIEMzMTcuMjgxMjUgLTQ0LjUwNzcyMDc4NjYzNjI3LCAzMTcuMjgxMjUgNDIuOTg0NTU4NDI2NzI3NDYsIDMxNy4yODEyNSAxMzIgTTMxNy4yODEyNSAtMTMyIEMzMTcuMjgxMjUgLTMyLjAyMzI3OTAzMzcxMzU4LCAzMTcuMjgxMjUgNjcuOTUzNDQxOTMyNTcyODQsIDMxNy4yODEyNSAxMzIgTTMxNy4yODEyNSAxMzIgQzE3MS4wNjk5MzM1Mzk3NTAyOCAxMzIsIDI0Ljg1ODYxNzA3OTUwMDU2IDEzMiwgLTMxNy4yODEyNSAxMzIgTTMxNy4yODEyNSAxMzIgQzEyNi44NTk5OTMxMDUwMjI2OCAxMzIsIC02My41NjEyNjM3ODk5NTQ2NCAxMzIsIC0zMTcuMjgxMjUgMTMyIE0tMzE3LjI4MTI1IDEzMiBDLTMxNy4yODEyNSA2OC45MDY3MzIyMjkzNDc4NywgLTMxNy4yODEyNSA1LjgxMzQ2NDQ1ODY5NTczNCwgLTMxNy4yODEyNSAtMTMyIE0tMzE3LjI4MTI1IDEzMiBDLTMxNy4yODEyNSA1Ni4wNDgyMjkzMTg1Nzg3MzQsIC0zMTcuMjgxMjUgLTE5LjkwMzU0MTM2Mjg0MjUzLCAtMzE3LjI4MTI1IC0xMzIiPjwvcGF0aD48L2c+PGcgdHJhbnNmb3JtPSJ0cmFuc2xhdGUoMCwgLTEwOCkiIGNsYXNzPSJhbm5vdGF0aW9uLWdyb3VwIHRleHQiPjwvZz48ZyB0cmFuc2Zvcm09InRyYW5zbGF0ZSgtNjcuNzgxMjUsIC0xMDgpIiBjbGFzcz0ibGFiZWwtZ3JvdXAgdGV4dCI+PGcgdHJhbnNmb3JtPSJ0cmFuc2xhdGUoMCwtMTIpIiBzdHlsZT0iZm9udC13ZWlnaHQ6IGJvbGRlciIgY2xhc3M9ImxhYmVsIj48Zm9yZWlnbk9iamVjdCBoZWlnaHQ9IjI0IiB3aWR0aD0iMTM1LjU2MjUiPjxkaXYgc3R5bGU9ImRpc3BsYXk6IHRhYmxlLWNlbGw7IHdoaXRlLXNwYWNlOiBub3dyYXA7IGxpbmUtaGVpZ2h0OiAxLjU7IG1heC13aWR0aDogMTgwcHg7IHRleHQtYWxpZ246IGNlbnRlcjsiIHhtbG5zPSJodHRwOi8vd3d3LnczLm9yZy8xOTk5L3hodG1sIj48c3BhbiBzdHlsZT0iIiBjbGFzcz0ibm9kZUxhYmVsIG1hcmtkb3duLW5vZGUtbGFiZWwiPjxwPkV4dGVuc2lvbk1hbmFnZXI8L3A+PC9zcGFuPjwvZGl2PjwvZm9yZWlnbk9iamVjdD48L2c+PC9nPjxnIHRyYW5zZm9ybT0idHJhbnNsYXRlKC0zMDUuMjgxMjUsIC02MCkiIGNsYXNzPSJtZW1iZXJzLWdyb3VwIHRleHQiPjxnIHRyYW5zZm9ybT0idHJhbnNsYXRlKDAsLTEyKSIgc3R5bGU9IiIgY2xhc3M9ImxhYmVsIj48Zm9yZWlnbk9iamVjdCBoZWlnaHQ9IjI0IiB3aWR0aD0iMzA2LjU5Mzc1Ij48ZGl2IHN0eWxlPSJkaXNwbGF5OiB0YWJsZS1jZWxsOyB3aGl0ZS1zcGFjZTogbm93cmFwOyBsaW5lLWhlaWdodDogMS41OyBtYXgtd2lkdGg6IDM5NXB4OyB0ZXh0LWFsaWduOiBjZW50ZXI7IiB4bWxucz0iaHR0cDovL3d3dy53My5vcmcvMTk5OS94aHRtbCI+PHNwYW4gc3R5bGU9IiIgY2xhc3M9Im5vZGVMYWJlbCBtYXJrZG93bi1ub2RlLWxhYmVsIj48cD4tbG9hZGVkRXh0ZW5zaW9uczogTWFwJmx0O1N0cmluZywgRXh0ZW5zaW9uJmd0OzwvcD48L3NwYW4+PC9kaXY+PC9mb3JlaWduT2JqZWN0PjwvZz48ZyB0cmFuc2Zvcm09InRyYW5zbGF0ZSgwLDEyKSIgc3R5bGU9IiIgY2xhc3M9ImxhYmVsIj48Zm9yZWlnbk9iamVjdCBoZWlnaHQ9IjI0IiB3aWR0aD0iMTk5Ljg5MDYyNSI+PGRpdiBzdHlsZT0iZGlzcGxheTogdGFibGUtY2VsbDsgd2hpdGUtc3BhY2U6IG5vd3JhcDsgbGluZS1oZWlnaHQ6IDEuNTsgbWF4LXdpZHRoOiAyNTFweDsgdGV4dC1hbGlnbjogY2VudGVyOyIgeG1sbnM9Imh0dHA6Ly93d3cudzMub3JnLzE5OTkveGh0bWwiPjxzcGFuIHN0eWxlPSIiIGNsYXNzPSJub2RlTGFiZWwgbWFya2Rvd24tbm9kZS1sYWJlbCI+PHA+LWV4dGVuc2lvbkFQSTogRXh0ZW5zaW9uQVBJPC9wPjwvc3Bhbj48L2Rpdj48L2ZvcmVpZ25PYmplY3Q+PC9nPjxnIHRyYW5zZm9ybT0idHJhbnNsYXRlKDAsMzYpIiBzdHlsZT0iIiBjbGFzcz0ibGFiZWwiPjxmb3JlaWduT2JqZWN0IGhlaWdodD0iMjQiIHdpZHRoPSI0NTAuNDM3NSI+PGRpdiBzdHlsZT0iZGlzcGxheTogdGFibGUtY2VsbDsgd2hpdGUtc3BhY2U6IG5vd3JhcDsgbGluZS1oZWlnaHQ6IDEuNTsgbWF4LXdpZHRoOiA1NTlweDsgdGV4dC1hbGlnbjogY2VudGVyOyIgeG1sbnM9Imh0dHA6Ly93d3cudzMub3JnLzE5OTkveGh0bWwiPjxzcGFuIHN0eWxlPSIiIGNsYXNzPSJub2RlTGFiZWwgbWFya2Rvd24tbm9kZS1sYWJlbCI+PHA+LXBsYXRmb3JtU3BlY2lmaWNFeHRlbnNpb25zOiBNYXBVbnN1cHBvcnRlZCBtYXJrZG93bjogZGVsJmd0OzwvcD48L3NwYW4+PC9kaXY+PC9mb3JlaWduT2JqZWN0PjwvZz48L2c+PGcgdHJhbnNmb3JtPSJ0cmFuc2xhdGUoLTMwNS4yODEyNSwgMzYpIiBjbGFzcz0ibWV0aG9kcy1ncm91cCB0ZXh0Ij48ZyB0cmFuc2Zvcm09InRyYW5zbGF0ZSgwLC0xMikiIHN0eWxlPSIiIGNsYXNzPSJsYWJlbCI+PGZvcmVpZ25PYmplY3QgaGVpZ2h0PSIyNCIgd2lkdGg9IjI2Ny45MjE4NzUiPjxkaXYgc3R5bGU9ImRpc3BsYXk6IHRhYmxlLWNlbGw7IHdoaXRlLXNwYWNlOiBub3dyYXA7IGxpbmUtaGVpZ2h0OiAxLjU7IG1heC13aWR0aDogMzE2cHg7IHRleHQtYWxpZ246IGNlbnRlcjsiIHhtbG5zPSJodHRwOi8vd3d3LnczLm9yZy8xOTk5L3hodG1sIj48c3BhbiBzdHlsZT0iIiBjbGFzcz0ibm9kZUxhYmVsIG1hcmtkb3duLW5vZGUtbGFiZWwiPjxwPitsb2FkRXh0ZW5zaW9uKGV4dGVuc2lvbjogRXh0ZW5zaW9uKTwvcD48L3NwYW4+PC9kaXY+PC9mb3JlaWduT2JqZWN0PjwvZz48ZyB0cmFuc2Zvcm09InRyYW5zbGF0ZSgwLDEyKSIgc3R5bGU9IiIgY2xhc3M9ImxhYmVsIj48Zm9yZWlnbk9iamVjdCBoZWlnaHQ9IjI0IiB3aWR0aD0iNDM3LjM5MDYyNSI+PGRpdiBzdHlsZT0iZGlzcGxheTogdGFibGUtY2VsbDsgd2hpdGUtc3BhY2U6IG5vd3JhcDsgbGluZS1oZWlnaHQ6IDEuNTsgbWF4LXdpZHRoOiA0ODZweDsgdGV4dC1hbGlnbjogY2VudGVyOyIgeG1sbnM9Imh0dHA6Ly93d3cudzMub3JnLzE5OTkveGh0bWwiPjxzcGFuIHN0eWxlPSIiIGNsYXNzPSJub2RlTGFiZWwgbWFya2Rvd24tbm9kZS1sYWJlbCI+PHA+K2V4ZWN1dGVFeHRlbnNpb25Db21tYW5kKGNvbW1hbmQ6IENvbW1hbmQpIDogOiBSZXN1bHQ8L3A+PC9zcGFuPjwvZGl2PjwvZm9yZWlnbk9iamVjdD48L2c+PGcgdHJhbnNmb3JtPSJ0cmFuc2xhdGUoMCwzNikiIHN0eWxlPSIiIGNsYXNzPSJsYWJlbCI+PGZvcmVpZ25PYmplY3QgaGVpZ2h0PSIyNCIgd2lkdGg9IjMyMC41NzgxMjUiPjxkaXYgc3R5bGU9ImRpc3BsYXk6IHRhYmxlLWNlbGw7IHdoaXRlLXNwYWNlOiBub3dyYXA7IGxpbmUtaGVpZ2h0OiAxLjU7IG1heC13aWR0aDogNDAxcHg7IHRleHQtYWxpZ246IGNlbnRlcjsiIHhtbG5zPSJodHRwOi8vd3d3LnczLm9yZy8xOTk5L3hodG1sIj48c3BhbiBzdHlsZT0iIiBjbGFzcz0ibm9kZUxhYmVsIG1hcmtkb3duLW5vZGUtbGFiZWwiPjxwPitnZXRBdmFpbGFibGVFeHRlbnNpb25zKCkgOiA6IExpc3QmbHQ7RXh0ZW5zaW9uJmd0OzwvcD48L3NwYW4+PC9kaXY+PC9mb3JlaWduT2JqZWN0PjwvZz48ZyB0cmFuc2Zvcm09InRyYW5zbGF0ZSgwLDYwKSIgc3R5bGU9IiIgY2xhc3M9ImxhYmVsIj48Zm9yZWlnbk9iamVjdCBoZWlnaHQ9IjI0IiB3aWR0aD0iNTQyLjc4MTI1Ij48ZGl2IHN0eWxlPSJkaXNwbGF5OiB0YWJsZS1jZWxsOyB3aGl0ZS1zcGFjZTogbm93cmFwOyBsaW5lLWhlaWdodDogMS41OyBtYXgtd2lkdGg6IDYxNHB4OyB0ZXh0LWFsaWduOiBjZW50ZXI7IiB4bWxucz0iaHR0cDovL3d3dy53My5vcmcvMTk5OS94aHRtbCI+PHNwYW4gc3R5bGU9IiIgY2xhc3M9Im5vZGVMYWJlbCBtYXJrZG93bi1ub2RlLWxhYmVsIj48cD4rZ2V0UGxhdGZvcm1TcGVjaWZpY0V4dGVuc2lvbnMocGxhdGZvcm06IFBsYXRmb3JtVHlwZSkgOiA6IExpc3QmbHQ7RXh0ZW5zaW9uJmd0OzwvcD48L3NwYW4+PC9kaXY+PC9mb3JlaWduT2JqZWN0PjwvZz48L2c+PGcgc3R5bGU9IiIgY2xhc3M9ImRpdmlkZXIiPjxwYXRoIHN0eWxlPSIiIGZpbGw9Im5vbmUiIHN0cm9rZS13aWR0aD0iMS4zIiBzdHJva2U9IiNjY2MiIGQ9Ik0tMzE3LjI4MTI1IC04NCBDLTExMC44MTY1NzI3MjM1ODgyMiAtODQsIDk1LjY0ODEwNDU1MjgyMzU1IC04NCwgMzE3LjI4MTI1IC04NCBNLTMxNy4yODEyNSAtODQgQy0xODEuNDM0OTMzMjM3MzIyODcgLTg0LCAtNDUuNTg4NjE2NDc0NjQ1NzMgLTg0LCAzMTcuMjgxMjUgLTg0Ij48L3BhdGg+PC9nPjxnIHN0eWxlPSIiIGNsYXNzPSJkaXZpZGVyIj48cGF0aCBzdHlsZT0iIiBmaWxsPSJub25lIiBzdHJva2Utd2lkdGg9IjEuMyIgc3Ryb2tlPSIjY2NjIiBkPSJNLTMxNy4yODEyNSAxMiBDLTE0Mi44Mzg2ODQ2NTYwMTcxNiAxMiwgMzEuNjAzODgwNjg3OTY1NjcgMTIsIDMxNy4yODEyNSAxMiBNLTMxNy4yODEyNSAxMiBDLTg5LjU2OTcxMDM0MzExNDgyIDEyLCAxMzguMTQxODI5MzEzNzcwMzYgMTIsIDMxNy4yODEyNSAxMiI+PC9wYXRoPjwvZz48L2c+PC9nPjwvZz48L2c+PC9zdmc+;" vertex="1" parent="1">
            <mxGeometry x="-1220" y="730" width="3279.01953125" height="961" as="geometry" />
          </mxCell>
        </UserObject>
      </root>
    </mxGraphModel>
  </diagram>
</mxfile>
